<?xml version="1.0" encoding="UTF-8"?>
<svg version="1.1" xmlns="http://www.w3.org/2000/svg" width="1254" height="1254">
<path d="M0 0 C413.82 0 827.64 0 1254 0 C1254 413.82 1254 827.64 1254 1254 C840.18 1254 426.36 1254 0 1254 C0 840.18 0 426.36 0 0 Z " fill="#FEFDFD" transform="translate(0,0)"/>
<path d="M0 0 C0.80102142 -0.00067474 1.60204285 -0.00134949 2.42733765 -0.00204468 C15.04957308 0.01482976 27.39370279 0.42080689 39.75 3.25 C40.45866211 3.41097168 41.16732422 3.57194336 41.89746094 3.73779297 C53.16746711 6.47254272 61.37530443 11.78817471 67.8125 21.5625 C72.22612066 29.05466033 71.84018087 39.26106574 70.0625 47.5625 C67.12802436 55.80697917 63.26923718 62.4526024 55.75 67.25 C47.95389131 70.88459964 42.64801793 71.25 33.75 71.25 C33.75 82.8 33.75 94.35 33.75 106.25 C38.7 106.58 43.65 106.91 48.75 107.25 C51.62558466 107.68758897 54.50201071 108.12536758 57.36328125 108.6484375 C60.08751725 109.13232717 62.80696255 109.56826701 65.54296875 109.9765625 C66.39084961 110.10434082 67.23873047 110.23211914 68.11230469 110.36376953 C69.79593375 110.61628197 71.4801646 110.86482233 73.16503906 111.10888672 C77.33495143 111.74411314 80.84001348 112.63683071 84.75 114.25 C88.00187725 115.10241538 91.28339959 115.82288428 94.5625 116.5625 C111.7497113 120.55310413 128.72735021 125.79612316 144.75 133.25 C149.54282078 135.52938654 149.54282078 135.52938654 154.75 136.25 C156.11158751 134.77604379 156.11158751 134.77604379 157.28125 132.76953125 C157.99438354 131.65058472 157.99438354 131.65058472 158.72192383 130.5090332 C159.22618896 129.70167725 159.7304541 128.89432129 160.25 128.0625 C165.52860012 119.87618958 171.20635969 112.45429631 177.75 105.25 C178.3275 104.60160156 178.905 103.95320313 179.5 103.28515625 C199.48675598 82.04922802 231.51544669 65.20770032 260.87524414 64.04516602 C264.69110599 63.9421247 268.50492812 63.9236429 272.32202148 63.93432617 C274.68064475 63.9374908 277.03801459 63.91392106 279.39648438 63.88867188 C288.57457326 63.84963716 296.88258482 64.62414769 305.75 67.25 C306.52158447 67.47437744 307.29316895 67.69875488 308.08813477 67.92993164 C310.1006088 68.55101911 312.08102388 69.22408872 314.0625 69.9375 C314.76906738 70.19096191 315.47563477 70.44442383 316.20361328 70.70556641 C333.00247924 76.92446704 346.72796643 85.93074285 359.75 98.25 C360.56210937 98.99765625 361.37421875 99.7453125 362.2109375 100.515625 C386.85553325 123.99407269 400.7954755 157.70906792 402.0078125 191.4609375 C402.95988993 232.73752329 388.8654983 268.56471729 360.55859375 298.453125 C356.23825345 302.75543884 351.56942867 306.52657847 346.75 310.25 C345.86054687 310.9925 344.97109375 311.735 344.0546875 312.5 C341.75 314.25 341.75 314.25 339.75 314.25 C340.24628906 315.19617188 340.74257813 316.14234375 341.25390625 317.1171875 C355.16118192 344.01378963 364.56019157 373.66917368 370.75 403.25 C370.98275635 404.34948975 370.98275635 404.34948975 371.22021484 405.47119141 C372.06089278 409.54251682 372.75133108 413.62121095 373.36279297 417.73144531 C373.6433884 419.55655408 373.94456885 421.37853669 374.25830078 423.19824219 C380.5323207 459.87628339 381.95896932 502.75953229 373.21435547 539.18847656 C372.58512963 541.98194816 372.20384323 544.78959887 371.81396484 547.62475586 C369.40068906 564.92115002 364.41358923 581.51787181 359.125 598.125 C358.75294434 599.29538818 358.38088867 600.46577637 357.99755859 601.67163086 C355.92242028 608.05883469 353.58964949 614.16804731 350.75 620.25 C349.45997652 623.2467212 348.17694913 626.2462649 346.89990234 629.24853516 C335.50708416 655.83984472 321.36930026 681.25937908 303.75 704.25 C303.14406006 705.04083984 303.14406006 705.04083984 302.52587891 705.84765625 C286.43091672 726.77527832 268.95175338 747.16177851 248.75 764.25 C247.29980469 765.53390625 247.29980469 765.53390625 245.8203125 766.84375 C212.66125239 796.07426785 173.65600717 817.90776443 132.75 834.25 C131.8945459 834.59401855 131.0390918 834.93803711 130.15771484 835.29248047 C100.10370042 847.25406396 67.89888253 854.26367128 35.75 857.25 C34.84950928 857.34498779 33.94901855 857.43997559 33.02124023 857.5378418 C22.39675079 858.53463528 11.74033415 858.43607361 1.07836914 858.43530273 C-2.28056712 858.43747931 -5.63916884 858.45566047 -8.99804688 858.47460938 C-43.7766201 858.56720528 -78.07232407 852.67319005 -111.25 842.25 C-112.10464844 841.98606445 -112.95929688 841.72212891 -113.83984375 841.45019531 C-157.08466365 828.00446193 -197.6013049 806.06110133 -233.25 778.25 C-234.24362549 777.47487061 -234.24362549 777.47487061 -235.25732422 776.68408203 C-256.26967198 760.18199891 -276.87903354 741.39861585 -293.25 720.25 C-294.82965191 718.39269596 -296.41323257 716.53872867 -298 714.6875 C-323.68160714 683.86957143 -343.44945051 647.83068001 -357.25 610.25 C-358.60156233 606.6182102 -359.9547831 602.99006428 -361.390625 599.390625 C-368.55129055 580.7325528 -372.36263171 560.97468554 -375.5625 541.3125 C-375.74702225 540.19208817 -375.74702225 540.19208817 -375.93527222 539.04904175 C-379.18507703 519.10861708 -380.66350657 499.32607508 -380.625 479.125 C-380.62478851 478.08939941 -380.62457703 477.05379883 -380.62435913 475.98681641 C-380.53153576 430.05904378 -371.52663567 385.40839946 -354.5 342.75 C-354.15582031 341.88648926 -353.81164062 341.02297852 -353.45703125 340.13330078 C-350.88536323 333.72650331 -348.18038871 327.38871266 -345.33300781 321.09960938 C-343.76581322 317.8053976 -343.76581322 317.8053976 -343.25 314.25 C-345.25991256 312.60052768 -347.28749958 311.04581942 -349.375 309.5 C-377.98750664 287.52270114 -398.31160214 255.24724719 -403.25 219.25 C-403.52263672 217.72632813 -403.52263672 217.72632813 -403.80078125 216.171875 C-407.31188509 185.51841189 -401.49365195 156.02108308 -386.25 129.25 C-385.91274902 128.65670898 -385.57549805 128.06341797 -385.22802734 127.45214844 C-367.40178594 96.74058874 -338.28114503 75.5620238 -304.25 66.25 C-303.55366455 66.05422363 -302.8573291 65.85844727 -302.13989258 65.65673828 C-294.26072422 63.75583486 -286.25204371 63.87782025 -278.1940918 63.87939453 C-275.7165695 63.87505096 -273.24087711 63.83872154 -270.76367188 63.80078125 C-259.7177225 63.72279722 -249.85790704 65.21018615 -239.25 68.25 C-237.95582153 68.61134033 -237.95582153 68.61134033 -236.63549805 68.97998047 C-215.31864119 75.30031557 -197.30670652 87.09864675 -181.25 102.25 C-180.16138672 103.24193359 -180.16138672 103.24193359 -179.05078125 104.25390625 C-169.84662419 112.96232774 -161.24672739 124.04308202 -155.25 135.25 C-155.25 135.91 -155.25 136.57 -155.25 137.25 C-154.02603516 136.63125 -154.02603516 136.63125 -152.77734375 136 C-136.31094504 127.9728546 -118.92582753 122.4519196 -101.24316406 117.78808594 C-98.16617758 116.95740512 -95.11714731 116.03387716 -92.0625 115.125 C-73.22081698 109.73857167 -52.84019122 106.25 -33.25 106.25 C-33.25 94.7 -33.25 83.15 -33.25 71.25 C-37.21 71.25 -41.17 71.25 -45.25 71.25 C-54.12788572 68.53441143 -60.35715129 64.88861187 -65.0625 56.75 C-70.18510811 47.09921612 -71.16190549 34.86436518 -68.25 24.25 C-64.41302586 15.17441733 -57.07716476 9.58191856 -48.24609375 5.6875 C-41.22001917 2.94009064 -33.6962452 2.12102526 -26.25 1.25 C-25.2906958 1.11078125 -25.2906958 1.11078125 -24.31201172 0.96875 C-16.2582618 -0.11775926 -8.11173496 0.00612614 0 0 Z " fill="#FDF7F0" transform="translate(626.25,184.75)"/>
<path d="M0 0 C0.80102142 -0.00067474 1.60204285 -0.00134949 2.42733765 -0.00204468 C15.04957308 0.01482976 27.39370279 0.42080689 39.75 3.25 C40.45866211 3.41097168 41.16732422 3.57194336 41.89746094 3.73779297 C53.16746711 6.47254272 61.37530443 11.78817471 67.8125 21.5625 C72.22612066 29.05466033 71.84018087 39.26106574 70.0625 47.5625 C67.12802436 55.80697917 63.26923718 62.4526024 55.75 67.25 C47.95389131 70.88459964 42.64801793 71.25 33.75 71.25 C33.75 82.8 33.75 94.35 33.75 106.25 C38.7 106.58 43.65 106.91 48.75 107.25 C51.62558466 107.68758897 54.50201071 108.12536758 57.36328125 108.6484375 C60.08751725 109.13232717 62.80696255 109.56826701 65.54296875 109.9765625 C66.39084961 110.10434082 67.23873047 110.23211914 68.11230469 110.36376953 C69.79593375 110.61628197 71.4801646 110.86482233 73.16503906 111.10888672 C77.33495143 111.74411314 80.84001348 112.63683071 84.75 114.25 C88.00187725 115.10241538 91.28339959 115.82288428 94.5625 116.5625 C111.7497113 120.55310413 128.72735021 125.79612316 144.75 133.25 C149.54282078 135.52938654 149.54282078 135.52938654 154.75 136.25 C156.11158751 134.77604379 156.11158751 134.77604379 157.28125 132.76953125 C157.99438354 131.65058472 157.99438354 131.65058472 158.72192383 130.5090332 C159.22618896 129.70167725 159.7304541 128.89432129 160.25 128.0625 C165.52860012 119.87618958 171.20635969 112.45429631 177.75 105.25 C178.3275 104.60160156 178.905 103.95320313 179.5 103.28515625 C199.48675598 82.04922802 231.51544669 65.20770032 260.87524414 64.04516602 C264.69110599 63.9421247 268.50492812 63.9236429 272.32202148 63.93432617 C274.68064475 63.9374908 277.03801459 63.91392106 279.39648438 63.88867188 C288.57457326 63.84963716 296.88258482 64.62414769 305.75 67.25 C306.52158447 67.47437744 307.29316895 67.69875488 308.08813477 67.92993164 C310.1006088 68.55101911 312.08102388 69.22408872 314.0625 69.9375 C314.76906738 70.19096191 315.47563477 70.44442383 316.20361328 70.70556641 C333.00247924 76.92446704 346.72796643 85.93074285 359.75 98.25 C360.56210937 98.99765625 361.37421875 99.7453125 362.2109375 100.515625 C386.85553325 123.99407269 400.7954755 157.70906792 402.0078125 191.4609375 C402.95988993 232.73752329 388.8654983 268.56471729 360.55859375 298.453125 C356.23825345 302.75543884 351.56942867 306.52657847 346.75 310.25 C345.86054687 310.9925 344.97109375 311.735 344.0546875 312.5 C341.75 314.25 341.75 314.25 339.75 314.25 C340.24628906 315.19617188 340.74257813 316.14234375 341.25390625 317.1171875 C355.16118192 344.01378963 364.56019157 373.66917368 370.75 403.25 C370.98275635 404.34948975 370.98275635 404.34948975 371.22021484 405.47119141 C372.06089278 409.54251682 372.75133108 413.62121095 373.36279297 417.73144531 C373.6433884 419.55655408 373.94456885 421.37853669 374.25830078 423.19824219 C380.5323207 459.87628339 381.95896932 502.75953229 373.21435547 539.18847656 C372.58512963 541.98194816 372.20384323 544.78959887 371.81396484 547.62475586 C369.40068906 564.92115002 364.41358923 581.51787181 359.125 598.125 C358.75294434 599.29538818 358.38088867 600.46577637 357.99755859 601.67163086 C355.92242028 608.05883469 353.58964949 614.16804731 350.75 620.25 C349.45997652 623.2467212 348.17694913 626.2462649 346.89990234 629.24853516 C335.50708416 655.83984472 321.36930026 681.25937908 303.75 704.25 C303.14406006 705.04083984 303.14406006 705.04083984 302.52587891 705.84765625 C286.43091672 726.77527832 268.95175338 747.16177851 248.75 764.25 C247.29980469 765.53390625 247.29980469 765.53390625 245.8203125 766.84375 C212.66125239 796.07426785 173.65600717 817.90776443 132.75 834.25 C131.8945459 834.59401855 131.0390918 834.93803711 130.15771484 835.29248047 C100.10370042 847.25406396 67.89888253 854.26367128 35.75 857.25 C34.84950928 857.34498779 33.94901855 857.43997559 33.02124023 857.5378418 C22.39675079 858.53463528 11.74033415 858.43607361 1.07836914 858.43530273 C-2.28056712 858.43747931 -5.63916884 858.45566047 -8.99804688 858.47460938 C-43.7766201 858.56720528 -78.07232407 852.67319005 -111.25 842.25 C-112.10464844 841.98606445 -112.95929688 841.72212891 -113.83984375 841.45019531 C-157.08466365 828.00446193 -197.6013049 806.06110133 -233.25 778.25 C-234.24362549 777.47487061 -234.24362549 777.47487061 -235.25732422 776.68408203 C-256.26967198 760.18199891 -276.87903354 741.39861585 -293.25 720.25 C-294.82965191 718.39269596 -296.41323257 716.53872867 -298 714.6875 C-323.68160714 683.86957143 -343.44945051 647.83068001 -357.25 610.25 C-358.60156233 606.6182102 -359.9547831 602.99006428 -361.390625 599.390625 C-368.55129055 580.7325528 -372.36263171 560.97468554 -375.5625 541.3125 C-375.74702225 540.19208817 -375.74702225 540.19208817 -375.93527222 539.04904175 C-379.18507703 519.10861708 -380.66350657 499.32607508 -380.625 479.125 C-380.62478851 478.08939941 -380.62457703 477.05379883 -380.62435913 475.98681641 C-380.53153576 430.05904378 -371.52663567 385.40839946 -354.5 342.75 C-354.15582031 341.88648926 -353.81164062 341.02297852 -353.45703125 340.13330078 C-350.88536323 333.72650331 -348.18038871 327.38871266 -345.33300781 321.09960938 C-343.76581322 317.8053976 -343.76581322 317.8053976 -343.25 314.25 C-345.25991256 312.60052768 -347.28749958 311.04581942 -349.375 309.5 C-377.98750664 287.52270114 -398.31160214 255.24724719 -403.25 219.25 C-403.52263672 217.72632813 -403.52263672 217.72632813 -403.80078125 216.171875 C-407.31188509 185.51841189 -401.49365195 156.02108308 -386.25 129.25 C-385.91274902 128.65670898 -385.57549805 128.06341797 -385.22802734 127.45214844 C-367.40178594 96.74058874 -338.28114503 75.5620238 -304.25 66.25 C-303.55366455 66.05422363 -302.8573291 65.85844727 -302.13989258 65.65673828 C-294.26072422 63.75583486 -286.25204371 63.87782025 -278.1940918 63.87939453 C-275.7165695 63.87505096 -273.24087711 63.83872154 -270.76367188 63.80078125 C-259.7177225 63.72279722 -249.85790704 65.21018615 -239.25 68.25 C-237.95582153 68.61134033 -237.95582153 68.61134033 -236.63549805 68.97998047 C-215.31864119 75.30031557 -197.30670652 87.09864675 -181.25 102.25 C-180.16138672 103.24193359 -180.16138672 103.24193359 -179.05078125 104.25390625 C-169.84662419 112.96232774 -161.24672739 124.04308202 -155.25 135.25 C-155.25 135.91 -155.25 136.57 -155.25 137.25 C-154.02603516 136.63125 -154.02603516 136.63125 -152.77734375 136 C-136.31094504 127.9728546 -118.92582753 122.4519196 -101.24316406 117.78808594 C-98.16617758 116.95740512 -95.11714731 116.03387716 -92.0625 115.125 C-73.22081698 109.73857167 -52.84019122 106.25 -33.25 106.25 C-33.25 94.7 -33.25 83.15 -33.25 71.25 C-37.21 71.25 -41.17 71.25 -45.25 71.25 C-54.12788572 68.53441143 -60.35715129 64.88861187 -65.0625 56.75 C-70.18510811 47.09921612 -71.16190549 34.86436518 -68.25 24.25 C-64.41302586 15.17441733 -57.07716476 9.58191856 -48.24609375 5.6875 C-41.22001917 2.94009064 -33.6962452 2.12102526 -26.25 1.25 C-25.2906958 1.11078125 -25.2906958 1.11078125 -24.31201172 0.96875 C-16.2582618 -0.11775926 -8.11173496 0.00612614 0 0 Z M-46.30273438 166.74609375 C-48.88057252 167.18683745 -51.45673971 167.57794394 -54.046875 167.9375 C-110.05297676 175.93477336 -162.81647903 201.49035861 -206.25 237.25 C-207.19907227 238.03012451 -208.14814453 238.81024902 -209.12597656 239.61401367 C-217.09650261 246.22940269 -224.57820432 253.21453857 -231.875 260.5625 C-232.69455673 261.38479095 -232.69455673 261.38479095 -233.53067017 262.22369385 C-240.86496752 269.59914315 -247.92437974 276.98162345 -253.96728516 285.47558594 C-255.45199009 287.52941834 -256.99480328 289.53265414 -258.54296875 291.5390625 C-276.63679175 315.1890994 -291.92047402 342.28827266 -302.25 370.25 C-302.54600098 371.04212891 -302.84200195 371.83425781 -303.14697266 372.65039062 C-307.82136334 385.25537939 -311.59496728 397.82266633 -314.19921875 411.0234375 C-314.89982217 414.57186099 -315.6581163 418.1000918 -316.46875 421.625 C-316.67886719 422.54925781 -316.88898438 423.47351563 -317.10546875 424.42578125 C-317.52838039 426.27890315 -317.95785336 428.13054241 -318.39453125 429.98046875 C-321.94920129 445.79111772 -322.63114323 461.66170176 -322.5625 477.8125 C-322.56034485 478.73197418 -322.5581897 479.65144836 -322.55596924 480.5987854 C-322.50074023 495.34062031 -321.79190209 509.70316104 -319.25 524.25 C-318.94400879 526.05138428 -318.94400879 526.05138428 -318.63183594 527.88916016 C-314.96120045 549.11953876 -310.53532083 570.29149546 -302.25 590.25 C-301.66393522 591.74893491 -301.08026431 593.2488101 -300.5 594.75 C-288.68881534 624.02906694 -273.84478183 651.42252074 -254.25 676.25 C-253.198125 677.58998047 -253.198125 677.58998047 -252.125 678.95703125 C-238.34046452 696.16308535 -222.66420639 712.70835792 -205.25 726.25 C-204.18198536 727.13843994 -203.11706131 728.03060379 -202.0546875 728.92578125 C-183.02867332 744.81064513 -161.4661683 757.39581492 -139.25 768.25 C-134.37408759 770.74635036 -134.37408759 770.74635036 -131.9921875 771.9765625 C-127.8169526 773.91548925 -123.53324324 775.56606827 -119.25 777.25 C-118.37972168 777.59708008 -117.50944336 777.94416016 -116.61279297 778.30175781 C-91.7405573 788.17075587 -66.71028099 794.36149962 -40.25 798.25 C-39.37811035 798.38277344 -38.5062207 798.51554688 -37.60791016 798.65234375 C-25.7804369 800.38759225 -13.92907427 800.42335395 -2 800.4375 C-1.24008759 800.43867828 -0.48017517 800.43985657 0.30276489 800.44107056 C15.86991437 800.43833545 31.16991699 799.59160753 46.56176758 797.203125 C48.70956787 796.87159364 50.85936646 796.55636999 53.00976562 796.2421875 C59.42638428 795.27927966 65.61829903 794.22366953 71.72973633 791.96435547 C75.43975818 790.65250967 79.29577591 789.88652944 83.125 789 C93.32623756 786.5460644 102.99890295 783.08973535 112.75 779.25 C113.7709375 778.85554687 114.791875 778.46109375 115.84375 778.0546875 C121.21977258 775.94741939 126.49972176 773.65164243 131.75 771.25 C132.32572754 770.9926709 132.90145508 770.7353418 133.49462891 770.47021484 C176.0827496 751.39978204 216.77681373 721.05777236 245.75 684.25 C246.67991743 683.11913721 247.61234962 681.99033909 248.546875 680.86328125 C263.75294196 662.41175888 276.48503669 641.92536624 286.75244141 620.33984375 C287.41817163 618.94516662 288.09236764 617.55449946 288.77490234 616.16796875 C297.11350894 599.18809789 302.89487885 581.20046066 308.75 563.25 C309.05574951 562.32179443 309.36149902 561.39358887 309.67651367 560.43725586 C318.00651745 534.10721201 318.91241625 506.16780993 318.9375 478.8125 C318.93867828 477.81881409 318.93985657 476.82512817 318.94107056 475.80133057 C318.93888405 459.5037469 318.73782718 443.32188355 315.75 427.25 C315.60079102 426.43096191 315.45158203 425.61192383 315.29785156 424.76806641 C309.28927596 392.30907208 298.17738921 361.40797859 282.75 332.25 C282.37794434 331.54311035 282.00588867 330.8362207 281.62255859 330.10791016 C272.79363803 313.45310495 262.48059247 297.99358711 250.75 283.25 C250.1209375 282.42757812 249.491875 281.60515625 248.84375 280.7578125 C242.67273035 272.78255406 235.71989692 265.52302205 228.75 258.25 C227.99251465 257.45746826 227.99251465 257.45746826 227.21972656 256.64892578 C221.63378558 250.83611552 215.84635235 245.49569491 209.53515625 240.48046875 C206.71147994 238.21915153 203.98757632 235.86444352 201.25 233.5 C174.00345141 210.77687323 141.13273514 194.22917628 108.00073242 182.07617188 C106.2575008 181.43628731 104.52056037 180.77924991 102.78637695 180.11523438 C93.18004891 176.52935076 83.48480414 173.9726868 73.5 171.6875 C72.6534082 171.49334503 71.80681641 171.29919006 70.93457031 171.09915161 C32.26910784 162.32783656 -7.10671013 159.95623128 -46.30273438 166.74609375 Z " fill="#839AB9" transform="translate(626.25,184.75)"/>
<path d="M0 0 C4.57498557 3.40464042 8.8610727 7.52071811 10.6875 13 C10.77915285 15.05475931 10.80943904 17.11243353 10.80775452 19.16923523 C10.80912918 20.46072479 10.81050385 21.75221436 10.81192017 23.08283997 C10.808381 24.51705956 10.80474619 25.95127892 10.80102539 27.38549805 C10.80074337 28.89331053 10.80090155 30.40112315 10.8014679 31.90893555 C10.80175528 36.00574667 10.79586805 40.10252862 10.78889394 44.19933295 C10.78265061 48.47947019 10.78205582 52.75960806 10.78086853 57.03974915 C10.77775811 65.14637061 10.76954861 73.25297863 10.75951904 81.35959417 C10.74834894 90.58802319 10.74284519 99.81645285 10.73782361 109.04488695 C10.72736577 128.02993227 10.7097719 147.01496505 10.6875 166 C12.44532236 164.56545193 14.20262827 163.13027101 15.9597168 161.69482422 C16.93837204 160.89567596 17.91702728 160.09652771 18.92533875 159.27316284 C22.16344287 156.60831553 25.33869556 153.87984404 28.5 151.125 C33.71554494 146.6149813 39.0538909 142.3057219 44.50048828 138.07910156 C49.10109454 134.4961231 53.56450094 130.77332069 57.99975586 126.98852539 C63.16553227 122.5804488 68.41939251 118.28513699 73.6875 114 C75.52129879 112.50056908 77.35462943 111.00056542 79.1875 109.5 C80.10144531 108.75234375 81.01539063 108.0046875 81.95703125 107.234375 C83.72572795 105.78702949 85.49398543 104.33914699 87.26171875 102.890625 C93.41929688 97.84674935 99.59379891 92.82403544 105.77294922 87.80664062 C111.42244059 83.21819393 117.05840481 78.61344805 122.6875 74 C125.31971977 71.84270673 127.95278869 69.68653786 130.58984375 67.53515625 C132.96592017 65.59526014 135.32946148 63.64066548 137.69140625 61.68359375 C139.10666746 60.51810363 140.52203173 59.35273865 141.9375 58.1875 C142.59903076 57.63610352 143.26056152 57.08470703 143.94213867 56.51660156 C150.9882075 50.7356645 156.34156071 47.26437103 165.75 47.6171875 C171.56749174 48.37531807 175.70653605 50.5963774 179.5625 55 C184.25752674 61.62827304 184.30208209 66.9499821 183.6875 75 C181.08617267 83.61689678 172.12333802 89.61103199 165.30078125 94.953125 C162.69139443 96.99694965 160.12348299 99.08342402 157.5625 101.1875 C153.7427565 104.32054804 149.91394081 107.44190069 146.0769043 110.55371094 C137.63621532 117.39955879 129.237796 124.29537436 120.85498047 131.21191406 C117.1756292 134.24723381 113.49418803 137.28001534 109.8125 140.3125 C109.09586182 140.90281006 108.37922363 141.49312012 107.64086914 142.10131836 C102.97683735 145.94187143 98.30361843 149.7709764 93.625 153.59375 C89.80638847 156.72176157 85.99696716 159.86086292 82.1875 163 C75.69846963 168.34687573 69.19905153 173.68056329 62.6875 179 C60.85404964 180.49985696 59.02071829 181.9998594 57.1875 183.5 C55.83011719 184.60988281 55.83011719 184.60988281 54.4453125 185.7421875 C52.58408472 187.26596888 50.7247517 188.79206716 48.8671875 190.3203125 C32.21970339 204 32.21970339 204 30.6875 204 C30.67332031 203.34515625 30.65914062 202.6903125 30.64453125 202.015625 C30.04281941 190.5017877 26.17998941 181.45040916 18.15234375 173.12890625 C9.32131057 165.50146872 -1.18459667 163.55118647 -12.5625 163.6640625 C-17.0074442 164.06225542 -20.46199801 165.19774778 -24.45703125 167.125 C-26.3125 168 -26.3125 168 -28.3125 168 C-28.45279994 147.81565812 -28.55853455 127.6314155 -28.62337303 107.44668674 C-28.65428191 98.07407369 -28.69640543 88.70176401 -28.76513672 79.3293457 C-28.82502991 71.15820751 -28.86367073 62.98728907 -28.87703097 54.81593746 C-28.88483805 50.49105964 -28.90312361 46.16681039 -28.94688034 41.84213448 C-28.98777876 37.76672166 -29.00013474 33.69219287 -28.99114609 29.61659431 C-28.99278909 28.12548509 -29.00462221 26.63434457 -29.02773285 25.14341354 C-29.15719326 16.3563472 -28.62037699 9.64784978 -22.3125 3 C-16.07912636 -2.51340654 -7.69655567 -2.3234885 0 0 Z " fill="#272726" transform="translate(636.3125,452)"/>
<path d="M0 0 C1.06089844 0.52464844 2.12179687 1.04929687 3.21484375 1.58984375 C15.53322087 8.21036443 29.63642743 20.37418563 36 33 C34.60772177 37.1768347 31.68264717 38.25249225 28.0625 40.375 C14.61636217 48.51912464 1.98692557 57.83523003 -10 68 C-10.99902344 68.82628906 -11.99804688 69.65257812 -13.02734375 70.50390625 C-30.94901501 85.37321138 -47.62844625 101.64028108 -62 120 C-63.13654 121.4298296 -64.2732754 122.85950389 -65.41015625 124.2890625 C-71.72416822 132.2732756 -77.84552376 140.20251047 -83 149 C-99.13688971 141.9237305 -109.77029083 122.58276027 -116 107 C-123.79310779 86.26604349 -124.23790448 61.3236001 -115.234375 40.94140625 C-105.32795108 19.51779831 -89.31469614 2.48904642 -67.0390625 -6.00390625 C-43.96625591 -13.56633 -21.39180271 -10.76176634 0 0 Z " fill="#B6C3DB" transform="translate(392,310)"/>
<path d="M0 0 C23.11951711 -0.57558964 43.15767103 7.0241242 59.890625 22.90625 C72.50072359 36.15094771 79.57708298 51.4850519 83.640625 69.15625 C83.93259766 70.32220703 83.93259766 70.32220703 84.23046875 71.51171875 C87.78601217 94.43650825 81.58299246 118.52121581 68.625 137.6015625 C64.61998982 142.75761891 60.16330376 147.45594338 55.640625 152.15625 C55.01414062 152.8575 54.38765625 153.55875 53.7421875 154.28125 C52.203125 155.96875 52.203125 155.96875 49.640625 158.15625 C47.7734375 158.1875 47.7734375 158.1875 45.640625 157.15625 C43.92619947 155.08058109 42.43942 153.07231373 40.953125 150.84375 C40.06227143 149.55524671 39.1703253 148.26749818 38.27734375 146.98046875 C37.83310059 146.33384277 37.38885742 145.6872168 36.93115234 145.02099609 C20.83022289 121.75597545 0.52478666 98.63993869 -21.78125 81.17578125 C-24.56513961 78.99506772 -27.23623851 76.70665175 -29.921875 74.40625 C-42.94013305 63.55770162 -57.04880708 54.19545683 -71.359375 45.15625 C-64.81916971 27.1941551 -45.88534549 14.81180675 -29.3984375 6.953125 C-19.78379496 2.55498609 -10.47239818 0.48708829 0 0 Z " fill="#B6C3DB" transform="translate(895.359375,299.84375)"/>
<path d="M0 0 C0.33 0 0.66 0 1 0 C1 50.49 1 100.98 1 153 C4.96 151.02 4.96 151.02 9 149 C20.3956993 146.15107517 31.5920203 147.61352441 42 153 C50.89490158 159.11449256 57.15962782 167.55558211 60 178 C61.15618545 189.98781761 60.20998675 200.77931494 52.9453125 210.84765625 C48.56544499 215.99286393 43.98436955 219.88711138 38 223 C36.96875 223.5775 35.9375 224.155 34.875 224.75 C26.76671839 228.27533983 16.70505046 228.20236781 8.375 225.4375 C-3.36930015 220.60759301 -10.56893728 213.20200518 -16.23828125 202.0546875 C-19.82769055 192.37248601 -19.04300639 180.37795092 -15 171 C-11.84215384 164.55990768 -8.16093506 158.90615986 -2 155 C-1.34 155 -0.68 155 0 155 C0 103.85 0 52.7 0 0 Z " fill="#8398B6" transform="translate(607,467)"/>
<path d="M0 0 C7.60584964 5.31225685 11.10023405 14.14533199 13 23 C14.07974865 37.79092054 13.42355046 51.46200083 4.9375 64.0625 C0.5294139 69.00529477 -4.91569239 71.53011121 -11.41015625 72.51953125 C-19.69591048 72.9072216 -25.74029575 71.5898466 -32 66 C-34.50526789 63.20190859 -36.28721362 60.33458098 -38 57 C-38.4125 56.26910156 -38.825 55.53820312 -39.25 54.78515625 C-42.32211421 48.20357823 -42.38417279 41.57313404 -42.4375 34.4375 C-42.44765137 33.46796387 -42.45780273 32.49842773 -42.46826172 31.49951172 C-42.34255683 21.06246483 -39.8515896 12.03448735 -33 4 C-23.00787919 -5.14964788 -12.00906594 -6.77278971 0 0 Z " fill="#282828" transform="translate(468,691)"/>
<path d="M0 0 C7.92030954 4.8143058 12.59931142 12.82042337 14.96875 21.59375 C17.01877186 35.48834263 16.15023256 49.27388184 9.640625 61.828125 C4.07088926 68.32615003 -0.96328475 72.78012804 -9.72265625 73.82421875 C-17.24020054 73.98026057 -22.71133536 73.34825911 -28.609375 68.453125 C-36.84546261 60.29090365 -39.6795488 48.66822186 -39.85107422 37.40942383 C-39.892533 24.2048015 -38.56985028 13.89796782 -29.1328125 3.88671875 C-20.52924784 -3.81968275 -10.27221367 -4.58696334 0 0 Z " fill="#282828" transform="translate(806.609375,689.546875)"/>
<path d="M0 0 C4.90661548 3.5606373 9.38832498 8.62272952 10.37890625 14.75390625 C10.58457342 22.35149358 8.47074757 26.46569192 3.57421875 32.109375 C-4.46391336 39.98714537 -14.67453131 41.9426262 -25.4921875 42.01953125 C-37.29768945 41.85179479 -48.20494653 39.99557672 -56.9921875 31.45703125 C-57.518125 30.9671875 -58.0440625 30.47734375 -58.5859375 29.97265625 C-62.69422467 25.3622451 -62.66889344 20.45684399 -62.40234375 14.4765625 C-61.85117392 10.41890269 -60.82118447 8.42747807 -57.9921875 5.45703125 C-57.47914063 4.88597656 -56.96609375 4.31492187 -56.4375 3.7265625 C-42.03319146 -10.77047764 -16.67046118 -9.88875027 0 0 Z " fill="#CCD9E9" transform="translate(846.9921875,785.54296875)"/>
<path d="M0 0 C4.19800419 2.88168084 8.57603038 6.68598572 10.203125 11.63671875 C11.28105759 17.7879645 11.14427123 23.25033491 8.015625 28.76953125 C3.05296233 35.31971235 -3.61568188 38.74326223 -11.4375 40.6875 C-12.05004639 40.85805908 -12.66259277 41.02861816 -13.29370117 41.2043457 C-25.26296382 43.90189391 -39.57825623 42.49103175 -50.01953125 36.109375 C-54.6364485 32.79772515 -58.82724058 29.28657196 -60.4375 23.6875 C-61.3735643 17.69006144 -61.52414089 12.4180735 -57.9375 7.3125 C-52.10058143 0.73742311 -45.92061185 -3.09604784 -37.4375 -5.3125 C-36.54611328 -5.58707031 -36.54611328 -5.58707031 -35.63671875 -5.8671875 C-23.53166902 -8.31829881 -10.66584903 -6.08901022 0 0 Z " fill="#CBD9E9" transform="translate(456.4375,785.3125)"/>
<path d="M0 0 C21.78 0 43.56 0 66 0 C66 10.89 66 21.78 66 33 C44.22 33 22.44 33 0 33 C0 22.11 0 11.22 0 0 Z " fill="#637C9C" transform="translate(594,257)"/>
<path d="M0 0 C4.29424107 0.75337563 6.90471486 2.23121283 9.5625 5.625 C10.45798373 7.59830577 11.13020936 9.57839754 11.8046875 11.63671875 C14.00124724 17.39985746 18.18722038 20.32471518 23.5 22.86328125 C31.99636591 26.00114366 41.1003538 25.62107974 49.28125 21.8671875 C56.75577876 17.797153 59.76445706 13.0003554 63.203125 5.234375 C64.5625 2.625 64.5625 2.625 67.5625 0.625 C71.49584232 0.18796196 73.90076088 0.31524977 77.5 2 C80.16681359 5.39412639 80.33072051 7.5200863 80.1171875 11.765625 C78.43355769 20.4446181 73.22217257 29.27699265 66.05078125 34.4296875 C52.77911766 43.15675687 40.27481913 45.05424934 24.5625 43.625 C13.0998098 41.05339043 3.30137245 34.24022044 -3.4375 24.625 C-7.05452739 18.45750458 -9.20287049 12.89601966 -8.4375 5.625 C-5.86890902 1.96670376 -4.41498801 0.80272509 0 0 Z " fill="#272827" transform="translate(590.4375,768.375)"/>
<path d="M0 0 C7.1421328 2.1090298 13.97651708 4.9110646 20.7265625 8.03515625 C23.44053428 9.18696214 26.19523405 10.09216014 29 11 C44.97647919 16.25086832 44.97647919 16.25086832 49 23 C50.00001431 27.4643496 49.34972588 30.32552865 47.25 34.375 C44 38.16666667 44 38.16666667 41 39 C34.35157306 39.46739234 29.5631513 38.10647971 23.42578125 35.640625 C22.53892136 35.29497498 21.65206146 34.94932495 20.73832703 34.59320068 C18.8743449 33.86322696 17.01294243 33.12663501 15.15405273 32.38378906 C12.31681527 31.25172181 9.47096227 30.14395251 6.62304688 29.0390625 C4.80673204 28.3243372 2.99095728 27.60823758 1.17578125 26.890625 C0.32985916 26.56128967 -0.51606293 26.23195435 -1.38761902 25.89263916 C-6.62096372 23.78501523 -11.46412393 21.77920432 -14.3125 16.625 C-15.56061472 11.85947107 -15.62805569 9.12616881 -13.1875 4.75 C-9.32678388 -0.10347169 -5.92125789 -0.89088835 0 0 Z " fill="#879DBB" transform="translate(1041,721)"/>
<path d="M0 0 C3.62342508 1.6470114 6.16816086 3.4327343 8 7 C8.60059095 13.30620498 7.83256012 16.45437288 3.84204102 21.44946289 C1.16195645 23.70542274 -1.92363677 24.76700974 -5.16015625 25.99609375 C-5.86466415 26.2709108 -6.56917206 26.54572784 -7.29502869 26.82887268 C-9.54804137 27.70587274 -11.80508717 28.57189728 -14.0625 29.4375 C-15.55432238 30.01553866 -17.04586205 30.59430753 -18.53710938 31.17382812 C-20.71074799 32.01843811 -22.88491774 32.8613971 -25.06175232 33.69773865 C-29.72704055 35.49105146 -34.35029435 37.36451986 -38.93798828 39.34960938 C-42.73956235 40.54868507 -46.25315079 40.24894974 -50 39 C-53.09133781 36.93910812 -54.5494329 35.4476801 -55.66015625 31.87890625 C-56.36347189 27.82972008 -56.2186328 25.50380601 -54.5625 21.6875 C-48.14379887 14.9556915 -37.48666337 12.30710036 -28.9375 8.9375 C-26.92299489 8.14026826 -24.90890154 7.34201248 -22.89515686 6.54286194 C-21.07138696 5.81959636 -19.24654145 5.09904472 -17.42163086 4.37866211 C-15.01613475 3.40942654 -12.6573933 2.40496673 -10.29125977 1.34985352 C-6.52331472 -0.19550426 -4.03683069 -0.44853674 0 0 Z " fill="#869CBA" transform="translate(1082,646)"/>
<path d="M0 0 C2.48990285 1.0193351 4.93433904 2.11006285 7.37841797 3.23486328 C9.23278537 4.06545154 11.08829545 4.89349241 12.94482422 5.71923828 C13.90275879 6.1465625 14.86069336 6.57388672 15.84765625 7.01416016 C18.84343182 8.30925774 21.86160576 9.51149346 24.90576172 10.68798828 C25.89439209 11.07349854 26.88302246 11.45900879 27.90161133 11.85620117 C29.80239103 12.59234129 31.70802233 13.31610977 33.61889648 14.02563477 C39.2360016 16.2290641 42.544131 18.14930664 45.81591797 23.29736328 C46.87876496 27.04858797 46.55755588 30.59408004 44.99951172 34.17236328 C42.86298715 37.26920726 40.46279031 38.75595174 36.87841797 39.48486328 C26.25933781 39.79638073 14.43848409 33.07881582 4.64428711 29.06787109 C3.36987652 28.54856318 2.09311064 28.03500272 0.81420898 27.52685547 C-1.07718622 26.77516855 -2.96111888 26.00701248 -4.84423828 25.23486328 C-5.94388916 24.79013672 -7.04354004 24.34541016 -8.17651367 23.88720703 C-12.56211521 21.56891519 -15.59684699 19.05906842 -17.18408203 14.29736328 C-17.65403829 10.80625961 -17.86335252 8.35493519 -15.91455078 5.32080078 C-11.25931399 -0.18393177 -7.47713254 -2.40545355 0 0 Z " fill="#849BB9" transform="translate(178.18408203125,646.70263671875)"/>
<path d="M0 0 C3.56433331 2.30633332 5.55375935 5.13096306 6.5390625 9.2578125 C6.80603989 13.40298779 6.19287908 15.65924696 4.125 19.3125 C0.49271075 23.0056656 -4.20616814 24.34134718 -9 26 C-11.19038885 26.82571022 -13.3778053 27.6593397 -15.5625 28.5 C-17.21572266 29.13228516 -17.21572266 29.13228516 -18.90234375 29.77734375 C-21.51450784 30.80837447 -24.07090459 31.89739386 -26.625 33.0625 C-42.44183233 40.17281912 -42.44183233 40.17281912 -50 39 C-54.57355079 35.42069938 -56.69918947 32.32053837 -57.4375 26.625 C-57.002096 23.01736686 -56.36235762 21.0429755 -53.84375 18.3984375 C-46.94523824 13.16609171 -37.43375734 11.05829899 -29.31323242 8.24145508 C-3.60594569 -0.71877309 -3.60594569 -0.71877309 0 0 Z " fill="#869CBA" transform="translate(218,721)"/>
<path d="M0 0 C0.33 0 0.66 0 1 0 C1.19594676 3.14536768 1.3803401 6.29130614 1.5625 9.4375 C1.61857422 10.33533203 1.67464844 11.23316406 1.73242188 12.15820312 C1.78076172 13.01220703 1.82910156 13.86621094 1.87890625 14.74609375 C1.9260376 15.53685303 1.97316895 16.3276123 2.02172852 17.14233398 C2 19 2 19 1 20 C0.95907063 22.33297433 0.95758277 24.66705225 1 27 C0.01 27 -0.98 27 -2 27 C-1.34 18.09 -0.68 9.18 0 0 Z " fill="#C9C7C5" transform="translate(481,717)"/>
<path d="M0 0 C0.66 0.33 1.32 0.66 2 1 C0.55079575 4.38147659 -1.37261655 6.45737085 -4 9 C-4.33 9.66 -4.66 10.32 -5 11 C-5.66 11 -6.32 11 -7 11 C-7 11.66 -7 12.32 -7 13 C-7.66 13 -8.32 13 -9 13 C-7.47987323 7.59510481 -3.72614782 4.01507372 0 0 Z " fill="#323332" transform="translate(780,691)"/>
<path d="M0 0 C0.66 0.33 1.32 0.66 2 1 C0.90033225 2.29549899 -0.20491801 3.58626071 -1.3125 4.875 C-1.92738281 5.59429687 -2.54226563 6.31359375 -3.17578125 7.0546875 C-5 9 -5 9 -8 11 C-8 8 -8 8 -6.25 5.95703125 C-5.5075 5.24933594 -4.765 4.54164063 -4 3.8125 C-2.88625 2.73935547 -2.88625 2.73935547 -1.75 1.64453125 C-1.1725 1.10183594 -0.595 0.55914062 0 0 Z " fill="#90A5C0" transform="translate(811,283)"/>
<path d="M0 0 C2 1 2 1 2 1 Z M0 1 C-1.38188453 4.21043882 -2.92421903 6.04936365 -5.625 8.25 C-6.57246094 9.03117187 -6.57246094 9.03117187 -7.5390625 9.828125 C-8.02117187 10.21484375 -8.50328125 10.6015625 -9 11 C-9 8 -9 8 -7.5390625 6.17578125 C-6.90742188 5.56089844 -6.27578125 4.94601562 -5.625 4.3125 C-4.68527344 3.37857422 -4.68527344 3.37857422 -3.7265625 2.42578125 C-2 1 -2 1 0 1 Z " fill="#8CA2BE" transform="translate(268,280)"/>
<path d="M0 0 C0 0.33 0 0.66 0 1 C-1.051875 1.226875 -2.10375 1.45375 -3.1875 1.6875 C-7.17404735 2.79308095 -9.20700276 4.96760299 -12 8 C-12.66 8 -13.32 8 -14 8 C-11.33342809 1.2123624 -7.01275254 -0.55001981 0 0 Z " fill="#99ACC6" transform="translate(176,646)"/>
<path d="M0 0 C2.31 0 4.62 0 7 0 C7.33 0.99 7.66 1.98 8 3 C3.545 3.495 3.545 3.495 -1 4 C-0.67 2.68 -0.34 1.36 0 0 Z " fill="#343434" transform="translate(587,769)"/>
<path d="M0 0 C0.33 0.99 0.66 1.98 1 3 C-2.28804981 5.91227269 -4.59885603 7.49701212 -9 8 C-6.14723863 5.06799526 -3.34920216 2.35684596 0 0 Z " fill="#EAE7E4" transform="translate(810,539)"/>
<path d="M0 0 C0 0.33 0 0.66 0 1 C-5.28 1.66 -10.56 2.32 -16 3 C-10.94248243 -2.05751757 -6.62940669 -1.01126543 0 0 Z " fill="#A0B1C7" transform="translate(583,351)"/>
<path d="M0 0 C7.625 0.875 7.625 0.875 11 2 C11 2.66 11 3.32 11 4 C8.36 3.67 5.72 3.34 3 3 C3 2.34 3 1.68 3 1 C2.01 0.67 1.02 0.34 0 0 Z " fill="#8DA1BA" transform="translate(702,356)"/>
<path d="M0 0 C2.31 0 4.62 0 7 0 C7.33 0.99 7.66 1.98 8 3 C5.36 3 2.72 3 0 3 C0 2.01 0 1.02 0 0 Z " fill="#39393A" transform="translate(658,769)"/>
<path d="M0 0 C0.66 0.99 1.32 1.98 2 3 C-0.3125 4.5625 -0.3125 4.5625 -3 6 C-3.99 5.67 -4.98 5.34 -6 5 C-4.02 3.35 -2.04 1.7 0 0 Z " fill="#8DA3BF" transform="translate(826,913)"/>
</svg>
