<?xml version="1.0" encoding="UTF-8"?>
<svg version="1.1" xmlns="http://www.w3.org/2000/svg" width="1254" height="1254">
<path d="M0 0 C413.82 0 827.64 0 1254 0 C1254 413.82 1254 827.64 1254 1254 C840.18 1254 426.36 1254 0 1254 C0 840.18 0 426.36 0 0 Z " fill="#F5F7F5" transform="translate(0,0)"/>
<path d="M0 0 C6.36469209 6.29769533 7.48500138 12.13413877 7.6875 20.9375 C7.61934529 28.41747921 5.82731126 32.7229817 1 38.3125 C-6.50421417 44.74468357 -11.9242987 45.72786018 -21.4375 45.625 C-24.139375 45.604375 -26.84125 45.58375 -29.625 45.5625 C-29.625 54.1425 -29.625 62.7225 -29.625 71.5625 C-26.655 71.5625 -23.685 71.5625 -20.625 71.5625 C2.21775546 72.74693917 25.54862729 78.98249058 47.375 85.5625 C48.6021875 85.92214844 49.829375 86.28179687 51.09375 86.65234375 C56.70171539 88.32589198 62.00795383 90.22051622 67.375 92.5625 C69.18549148 93.13143153 70.99827565 93.69308663 72.8125 94.25 C77.8083118 95.88420212 82.39339183 97.93285306 87.0625 100.3125 C87.72668945 100.65031494 88.39087891 100.98812988 89.07519531 101.33618164 C91.94183651 102.79988945 94.80534371 104.26966561 97.66796875 105.74121094 C99.95757093 106.90806431 102.25831567 108.04976685 104.5625 109.1875 C105.26914795 109.55456055 105.9757959 109.92162109 106.70385742 110.29980469 C109.65610331 111.74089616 111.67880305 112.68831873 114.96875 112.09375 C118.08710322 110.10934341 120.87704127 107.82465699 123.6875 105.4375 C153.98263277 80.55973269 192.68781326 57.25404702 231.375 48.5625 C232.138125 48.36011719 232.90125 48.15773438 233.6875 47.94921875 C247.42590396 44.62759806 261.1609879 45.78486409 273.75 52.3125 C290.07566185 66.30592444 293.38305959 87.27578289 295.13183594 107.70703125 C297.63020715 147.31976042 292.46262271 185.77748679 280.375 223.5625 C279.83041578 225.43665469 279.28836458 227.31154921 278.75 229.1875 C277.56522291 233.11910665 276.05042903 236.80953898 274.375 240.5625 C273.65480427 242.22407516 272.94723132 243.89115851 272.25 245.5625 C271.91742187 246.34625 271.58484375 247.13 271.2421875 247.9375 C269.60178845 252.90303227 268.77517765 256.13871115 270.859375 261.0859375 C271.60061994 262.37790387 272.35697711 263.6612704 273.125 264.9375 C293.18837564 300.76523978 305.0753036 341.16798654 311.375 381.5625 C311.54491455 382.62597656 311.54491455 382.62597656 311.71826172 383.7109375 C313.67542808 396.02902723 314.52235993 408.31573799 314.61328125 420.78125 C314.62810799 422.46780449 314.62810799 422.46780449 314.64323425 424.18843079 C315.10013101 489.7479007 304.51936926 551.05671375 273.43359375 609.56933594 C272.68969486 610.96997952 271.95337587 612.37466241 271.22265625 613.78222656 C261.1321943 633.18138145 249.1031952 651.53953795 235.375 668.5625 C234.40433594 669.81933594 234.40433594 669.81933594 233.4140625 671.1015625 C228.65336858 677.22245468 223.47091891 682.88081409 218.1796875 688.5390625 C216.03859081 690.8325906 213.96724788 693.16921519 211.9375 695.5625 C204.47431216 704.17809184 196.16032566 712.30570228 187.375 719.5625 C186.85164062 719.99965332 186.32828125 720.43680664 185.7890625 720.88720703 C164.99746007 738.22299999 143.11596018 753.56924081 119.31689453 766.49902344 C117.40673114 767.54512248 115.51372411 768.61788581 113.62109375 769.6953125 C78.66729259 789.25956645 39.58698885 800.63183052 0.375 807.5625 C-0.5732666 807.73201172 -1.5215332 807.90152344 -2.49853516 808.07617188 C-5.53641606 808.60271741 -8.57867038 809.08734804 -11.625 809.5625 C-12.72577881 809.74748047 -13.82655762 809.93246094 -14.96069336 810.12304688 C-27.15867916 811.94226482 -39.34693421 811.86550762 -51.65917969 811.82324219 C-55.35368415 811.81256162 -59.04769814 811.8231674 -62.7421875 811.8359375 C-82.92853442 811.8503244 -102.29933496 810.15624283 -122.125 806.4375 C-122.93860992 806.28632721 -123.75221985 806.13515442 -124.59048462 805.97940063 C-186.8456232 794.31455605 -245.18129194 766.25521477 -293.625 725.5625 C-294.26663086 725.0252832 -294.90826172 724.48806641 -295.56933594 723.93457031 C-301.6288119 718.84756485 -307.63218855 713.77541793 -313.12109375 708.06640625 C-314.71309411 706.47440589 -316.38802447 705.05657324 -318.125 703.625 C-321.40295138 700.87386223 -324.11721692 697.81194452 -326.8828125 694.5546875 C-328.51573643 692.68744265 -330.21429139 690.96987604 -332 689.25 C-336.12987992 685.17494149 -339.69663303 680.69393829 -343.31787109 676.16845703 C-344.67216009 674.50455845 -346.06012307 672.87433106 -347.45703125 671.24609375 C-362.6117312 653.3941442 -375.21402093 633.26016828 -386.42773438 612.74707031 C-387.51314962 610.76658589 -388.61877604 608.79952064 -389.734375 606.8359375 C-393.21640642 600.60101799 -396.04603664 594.34682869 -398.484375 587.6328125 C-399.751374 584.2223289 -401.19147708 580.90617401 -402.625 577.5625 C-403.59956003 575.04621795 -404.56046796 572.52914751 -405.5 570 C-405.7568457 569.30962646 -406.01369141 568.61925293 -406.27832031 567.90795898 C-406.80557466 566.48694025 -407.33162012 565.06547238 -407.85644531 563.64355469 C-408.35371187 562.29708068 -408.85293169 560.95132573 -409.35449219 559.60644531 C-411.66211488 553.41094505 -413.88245356 547.33478094 -415.12988281 540.83227539 C-415.63749073 538.50523852 -416.30375324 536.28557996 -417.0234375 534.015625 C-418.72117482 528.4248888 -419.96174255 522.78529873 -421.125 517.0625 C-421.34003174 516.00933594 -421.55506348 514.95617187 -421.77661133 513.87109375 C-422.40278832 510.77011646 -423.01736494 507.66715954 -423.625 504.5625 C-423.78532715 503.74652344 -423.9456543 502.93054688 -424.11083984 502.08984375 C-428.10574782 481.32535029 -428.96492207 460.30798267 -428.88574219 439.20654297 C-428.87496131 435.80027669 -428.88575128 432.3945324 -428.8984375 428.98828125 C-428.91122505 410.83094693 -427.54136948 393.20088191 -424.375 375.3125 C-424.05293579 373.47679443 -424.05293579 373.47679443 -423.72436523 371.60400391 C-417.34519748 336.32773194 -405.55100222 302.88151313 -389.52368164 270.86352539 C-388.78492798 269.36873657 -388.78492798 269.36873657 -388.03125 267.84375 C-387.59103516 266.96783203 -387.15082031 266.09191406 -386.69726562 265.18945312 C-384.57481114 259.98963294 -384.28040981 256.43848251 -386.46704102 251.21142578 C-386.74604248 250.58478027 -387.02504395 249.95813477 -387.3125 249.3125 C-387.592146 248.64847168 -387.87179199 247.98444336 -388.15991211 247.30029297 C-388.96869796 245.38184269 -389.79398953 243.47140775 -390.625 241.5625 C-398.2814028 223.73325432 -402.51699607 204.45931807 -406.625 185.5625 C-406.85670898 184.51416992 -407.08841797 183.46583984 -407.32714844 182.38574219 C-410.96721977 165.04913129 -411.01272449 147.63969686 -411.0625 130 C-411.07203201 128.2548259 -411.07203201 128.2548259 -411.08175659 126.47439575 C-411.16016185 103.36887513 -410.69753531 75.19655297 -394.88671875 56.5078125 C-386.15997094 48.0882173 -376.14308017 45.84124226 -364.38476562 46.04541016 C-317.22452549 48.03525672 -266.19018905 80.67411685 -231.73828125 111.33203125 C-229.69974144 112.80044768 -229.69974144 112.80044768 -227.34643555 112.30566406 C-224.3218978 111.47972947 -221.77006769 110.31113515 -218.96875 108.90234375 C-217.87369141 108.35956787 -216.77863281 107.81679199 -215.65039062 107.25756836 C-214.48701172 106.6775708 -213.32363281 106.09757324 -212.125 105.5 C-201.20557104 100.12378487 -190.17541512 95.40142547 -178.70605469 91.31005859 C-176.93374168 90.6734065 -175.17255898 90.00590764 -173.4140625 89.33203125 C-167.28314053 86.98574 -161.0414897 85.25955516 -154.6875 83.62890625 C-151.92124081 82.91518452 -149.17720139 82.14947362 -146.4375 81.33984375 C-135.42334435 78.10564649 -124.37362085 75.85257662 -113.05273438 73.96923828 C-110.96466613 73.61940706 -108.88033612 73.24739234 -106.796875 72.87109375 C-99.12491459 71.54610542 -92.64711953 71.5625 -84.625 71.5625 C-84.625 62.9825 -84.625 54.4025 -84.625 45.5625 C-90.51836107 45.71944191 -90.51836107 45.71944191 -96.41015625 45.92285156 C-104.46041039 46.02986609 -110.8267332 43.19970384 -116.625 37.5625 C-122.2197394 29.49171039 -122.62482627 21.10453125 -121.625 11.5625 C-119.11312031 4.45323165 -114.2224614 -0.84770482 -107.625 -4.4375 C-84.13950495 -14.31457736 -20.44337753 -16.82281514 0 0 Z " fill="#FBF5EE" transform="translate(684.625,218.4375)"/>
<path d="M0 0 C6.36469209 6.29769533 7.48500138 12.13413877 7.6875 20.9375 C7.61934529 28.41747921 5.82731126 32.7229817 1 38.3125 C-6.50421417 44.74468357 -11.9242987 45.72786018 -21.4375 45.625 C-24.139375 45.604375 -26.84125 45.58375 -29.625 45.5625 C-29.625 54.1425 -29.625 62.7225 -29.625 71.5625 C-26.655 71.5625 -23.685 71.5625 -20.625 71.5625 C2.21775546 72.74693917 25.54862729 78.98249058 47.375 85.5625 C48.6021875 85.92214844 49.829375 86.28179687 51.09375 86.65234375 C56.70171539 88.32589198 62.00795383 90.22051622 67.375 92.5625 C69.18549148 93.13143153 70.99827565 93.69308663 72.8125 94.25 C77.8083118 95.88420212 82.39339183 97.93285306 87.0625 100.3125 C87.72668945 100.65031494 88.39087891 100.98812988 89.07519531 101.33618164 C91.94183651 102.79988945 94.80534371 104.26966561 97.66796875 105.74121094 C99.95757093 106.90806431 102.25831567 108.04976685 104.5625 109.1875 C105.26914795 109.55456055 105.9757959 109.92162109 106.70385742 110.29980469 C109.65610331 111.74089616 111.67880305 112.68831873 114.96875 112.09375 C118.08710322 110.10934341 120.87704127 107.82465699 123.6875 105.4375 C153.98263277 80.55973269 192.68781326 57.25404702 231.375 48.5625 C232.138125 48.36011719 232.90125 48.15773438 233.6875 47.94921875 C247.42590396 44.62759806 261.1609879 45.78486409 273.75 52.3125 C290.07566185 66.30592444 293.38305959 87.27578289 295.13183594 107.70703125 C297.63020715 147.31976042 292.46262271 185.77748679 280.375 223.5625 C279.83041578 225.43665469 279.28836458 227.31154921 278.75 229.1875 C277.56522291 233.11910665 276.05042903 236.80953898 274.375 240.5625 C273.65480427 242.22407516 272.94723132 243.89115851 272.25 245.5625 C271.91742187 246.34625 271.58484375 247.13 271.2421875 247.9375 C269.60178845 252.90303227 268.77517765 256.13871115 270.859375 261.0859375 C271.60061994 262.37790387 272.35697711 263.6612704 273.125 264.9375 C293.18837564 300.76523978 305.0753036 341.16798654 311.375 381.5625 C311.54491455 382.62597656 311.54491455 382.62597656 311.71826172 383.7109375 C313.67542808 396.02902723 314.52235993 408.31573799 314.61328125 420.78125 C314.62810799 422.46780449 314.62810799 422.46780449 314.64323425 424.18843079 C315.10013101 489.7479007 304.51936926 551.05671375 273.43359375 609.56933594 C272.68969486 610.96997952 271.95337587 612.37466241 271.22265625 613.78222656 C261.1321943 633.18138145 249.1031952 651.53953795 235.375 668.5625 C234.40433594 669.81933594 234.40433594 669.81933594 233.4140625 671.1015625 C228.65336858 677.22245468 223.47091891 682.88081409 218.1796875 688.5390625 C216.03859081 690.8325906 213.96724788 693.16921519 211.9375 695.5625 C204.47431216 704.17809184 196.16032566 712.30570228 187.375 719.5625 C186.85164062 719.99965332 186.32828125 720.43680664 185.7890625 720.88720703 C164.99746007 738.22299999 143.11596018 753.56924081 119.31689453 766.49902344 C117.40673114 767.54512248 115.51372411 768.61788581 113.62109375 769.6953125 C78.66729259 789.25956645 39.58698885 800.63183052 0.375 807.5625 C-0.5732666 807.73201172 -1.5215332 807.90152344 -2.49853516 808.07617188 C-5.53641606 808.60271741 -8.57867038 809.08734804 -11.625 809.5625 C-12.72577881 809.74748047 -13.82655762 809.93246094 -14.96069336 810.12304688 C-27.15867916 811.94226482 -39.34693421 811.86550762 -51.65917969 811.82324219 C-55.35368415 811.81256162 -59.04769814 811.8231674 -62.7421875 811.8359375 C-82.92853442 811.8503244 -102.29933496 810.15624283 -122.125 806.4375 C-122.93860992 806.28632721 -123.75221985 806.13515442 -124.59048462 805.97940063 C-186.8456232 794.31455605 -245.18129194 766.25521477 -293.625 725.5625 C-294.26663086 725.0252832 -294.90826172 724.48806641 -295.56933594 723.93457031 C-301.6288119 718.84756485 -307.63218855 713.77541793 -313.12109375 708.06640625 C-314.71309411 706.47440589 -316.38802447 705.05657324 -318.125 703.625 C-321.40295138 700.87386223 -324.11721692 697.81194452 -326.8828125 694.5546875 C-328.51573643 692.68744265 -330.21429139 690.96987604 -332 689.25 C-336.12987992 685.17494149 -339.69663303 680.69393829 -343.31787109 676.16845703 C-344.67216009 674.50455845 -346.06012307 672.87433106 -347.45703125 671.24609375 C-362.6117312 653.3941442 -375.21402093 633.26016828 -386.42773438 612.74707031 C-387.51314962 610.76658589 -388.61877604 608.79952064 -389.734375 606.8359375 C-393.21640642 600.60101799 -396.04603664 594.34682869 -398.484375 587.6328125 C-399.751374 584.2223289 -401.19147708 580.90617401 -402.625 577.5625 C-403.59956003 575.04621795 -404.56046796 572.52914751 -405.5 570 C-405.7568457 569.30962646 -406.01369141 568.61925293 -406.27832031 567.90795898 C-406.80557466 566.48694025 -407.33162012 565.06547238 -407.85644531 563.64355469 C-408.35371187 562.29708068 -408.85293169 560.95132573 -409.35449219 559.60644531 C-411.66211488 553.41094505 -413.88245356 547.33478094 -415.12988281 540.83227539 C-415.63749073 538.50523852 -416.30375324 536.28557996 -417.0234375 534.015625 C-418.72117482 528.4248888 -419.96174255 522.78529873 -421.125 517.0625 C-421.34003174 516.00933594 -421.55506348 514.95617187 -421.77661133 513.87109375 C-422.40278832 510.77011646 -423.01736494 507.66715954 -423.625 504.5625 C-423.78532715 503.74652344 -423.9456543 502.93054688 -424.11083984 502.08984375 C-428.10574782 481.32535029 -428.96492207 460.30798267 -428.88574219 439.20654297 C-428.87496131 435.80027669 -428.88575128 432.3945324 -428.8984375 428.98828125 C-428.91122505 410.83094693 -427.54136948 393.20088191 -424.375 375.3125 C-424.05293579 373.47679443 -424.05293579 373.47679443 -423.72436523 371.60400391 C-417.34519748 336.32773194 -405.55100222 302.88151313 -389.52368164 270.86352539 C-388.78492798 269.36873657 -388.78492798 269.36873657 -388.03125 267.84375 C-387.59103516 266.96783203 -387.15082031 266.09191406 -386.69726562 265.18945312 C-384.57481114 259.98963294 -384.28040981 256.43848251 -386.46704102 251.21142578 C-386.74604248 250.58478027 -387.02504395 249.95813477 -387.3125 249.3125 C-387.592146 248.64847168 -387.87179199 247.98444336 -388.15991211 247.30029297 C-388.96869796 245.38184269 -389.79398953 243.47140775 -390.625 241.5625 C-398.2814028 223.73325432 -402.51699607 204.45931807 -406.625 185.5625 C-406.85670898 184.51416992 -407.08841797 183.46583984 -407.32714844 182.38574219 C-410.96721977 165.04913129 -411.01272449 147.63969686 -411.0625 130 C-411.07203201 128.2548259 -411.07203201 128.2548259 -411.08175659 126.47439575 C-411.16016185 103.36887513 -410.69753531 75.19655297 -394.88671875 56.5078125 C-386.15997094 48.0882173 -376.14308017 45.84124226 -364.38476562 46.04541016 C-317.22452549 48.03525672 -266.19018905 80.67411685 -231.73828125 111.33203125 C-229.69974144 112.80044768 -229.69974144 112.80044768 -227.34643555 112.30566406 C-224.3218978 111.47972947 -221.77006769 110.31113515 -218.96875 108.90234375 C-217.87369141 108.35956787 -216.77863281 107.81679199 -215.65039062 107.25756836 C-214.48701172 106.6775708 -213.32363281 106.09757324 -212.125 105.5 C-201.20557104 100.12378487 -190.17541512 95.40142547 -178.70605469 91.31005859 C-176.93374168 90.6734065 -175.17255898 90.00590764 -173.4140625 89.33203125 C-167.28314053 86.98574 -161.0414897 85.25955516 -154.6875 83.62890625 C-151.92124081 82.91518452 -149.17720139 82.14947362 -146.4375 81.33984375 C-135.42334435 78.10564649 -124.37362085 75.85257662 -113.05273438 73.96923828 C-110.96466613 73.61940706 -108.88033612 73.24739234 -106.796875 72.87109375 C-99.12491459 71.54610542 -92.64711953 71.5625 -84.625 71.5625 C-84.625 62.9825 -84.625 54.4025 -84.625 45.5625 C-90.51836107 45.71944191 -90.51836107 45.71944191 -96.41015625 45.92285156 C-104.46041039 46.02986609 -110.8267332 43.19970384 -116.625 37.5625 C-122.2197394 29.49171039 -122.62482627 21.10453125 -121.625 11.5625 C-119.11312031 4.45323165 -114.2224614 -0.84770482 -107.625 -4.4375 C-84.13950495 -14.31457736 -20.44337753 -16.82281514 0 0 Z M-148.52441406 138.86914062 C-150.80766733 139.62279466 -153.10158455 140.33579199 -155.3984375 141.046875 C-197.0748316 154.14848397 -235.14603251 177.10411815 -267.34765625 206.5078125 C-269.2987616 208.26815798 -271.28513544 209.95434323 -273.3125 211.625 C-276.46829449 214.30264381 -279.08598198 217.29645874 -281.7578125 220.44921875 C-283.70097814 222.648492 -285.75730789 224.656475 -287.875 226.6875 C-293.18004386 231.93868555 -297.66373711 237.7222026 -302.17041016 243.65478516 C-303.6354027 245.57614328 -305.11908397 247.48187961 -306.60546875 249.38671875 C-314.05048083 259.01399348 -320.47584846 269.06886594 -326.625 279.5625 C-327.32922238 280.74491361 -328.03363506 281.92721391 -328.73828125 283.109375 C-332.70709557 289.88578743 -336.34197284 296.80090968 -339.875 303.8125 C-340.28758057 304.62831543 -340.70016113 305.44413086 -341.12524414 306.28466797 C-346.57134787 317.23435409 -350.6369659 328.75769348 -354.78759766 340.24511719 C-355.30488271 341.6766244 -355.82483931 343.10717328 -356.34912109 344.53613281 C-365.68466459 370.11428368 -370.69736821 398.87877064 -370.828125 426.08984375 C-370.83504868 427.06882126 -370.84197235 428.04779877 -370.84910583 429.05644226 C-370.86631238 432.20433597 -370.87269445 435.35206146 -370.875 438.5 C-370.87633942 439.57264099 -370.87767883 440.64528198 -370.87905884 441.75042725 C-370.87459727 458.20867693 -370.37962685 474.30079237 -367.625 490.5625 C-367.50753418 491.25666016 -367.39006836 491.95082031 -367.26904297 492.66601562 C-366.55364372 496.67724983 -365.61076689 500.61055164 -364.625 504.5625 C-364.27040457 506.137341 -363.91911384 507.71292808 -363.5703125 509.2890625 C-361.4447587 518.7547671 -358.98815505 528.06101935 -356.0625 537.3125 C-355.64145996 538.65054688 -355.64145996 538.65054688 -355.21191406 540.015625 C-353.36339364 545.71791333 -351.13519025 551.12384917 -348.625 556.5625 C-347.83199224 558.34706091 -347.04040177 560.13225209 -346.25 561.91796875 C-337.53054587 581.3813633 -327.93438684 600.11395645 -315.625 617.5625 C-314.78235686 618.77590612 -313.93991096 619.98944923 -313.09765625 621.203125 C-307.92549743 628.60102421 -302.4538863 635.66514354 -296.625 642.5625 C-295.73530111 643.6390123 -294.84599587 644.71585002 -293.95703125 645.79296875 C-283.80580796 657.98245036 -272.81493355 669.62885792 -260.3125 679.43359375 C-257.82835476 681.40141229 -255.43665022 683.45084344 -253.05078125 685.53588867 C-236.75939481 699.68977026 -217.92431949 710.65851966 -199.0625 721 C-198.15870605 721.4962085 -197.25491211 721.99241699 -196.32373047 722.50366211 C-188.6949873 726.63548648 -181.02610241 730.18418612 -172.8125 733 C-168.45879653 734.52078247 -164.21820495 736.13850079 -160 738 C-141.1360833 745.94925948 -120.56993348 750.06849838 -100.4375 753.3125 C-99.72070068 753.42811279 -99.00390137 753.54372559 -98.26538086 753.6628418 C-86.23500566 755.48671703 -74.27799227 755.72152494 -62.13647461 755.69287109 C-59.46006514 755.68754491 -56.78382604 755.69282704 -54.10742188 755.69921875 C-38.94819257 755.70700016 -23.98104897 755.2744309 -9 752.75 C-7.92588867 752.57259277 -6.85177734 752.39518555 -5.74511719 752.21240234 C2.47778014 750.8096728 10.37188206 748.92516683 18.375 746.5625 C19.9391147 746.14729618 21.50429796 745.73610474 23.0703125 745.328125 C37.3131295 741.54577185 50.80167789 736.26741869 64.375 730.5625 C65.5403125 730.07910156 66.705625 729.59570312 67.90625 729.09765625 C90.55571986 719.07373547 111.78541239 706.71659385 131.375 691.5625 C132.29539062 690.85480469 133.21578125 690.14710938 134.1640625 689.41796875 C139.30660451 685.38194894 144.19301884 681.10668512 149.01953125 676.69921875 C151.04493971 674.86190792 153.10331255 673.08209312 155.1875 671.3125 C163.91844761 663.67733934 172.01359717 655.37997722 179.2109375 646.28515625 C181.47090563 643.44183895 183.8238946 640.69503964 186.1875 637.9375 C195.65307171 626.57587433 203.91763976 614.31890475 211.26416016 601.49462891 C212.40416792 599.51176706 213.56717479 597.54349224 214.73046875 595.57421875 C224.78904936 578.27829304 233.27809906 559.62917202 239.375 540.5625 C239.8678614 539.0883315 240.36140131 537.61438974 240.85546875 536.140625 C244.4015312 525.40692452 247.13749226 514.63844944 249.375 503.5625 C249.57867188 502.57378906 249.78234375 501.58507812 249.9921875 500.56640625 C250.30509052 499.02355365 250.61218849 497.47949427 250.90966797 495.93359375 C251.20626679 494.42227803 251.51535482 492.91332216 251.84082031 491.40795898 C263.52665033 436.56769357 255.56875977 376.02872178 234.375 324.5625 C234.05047852 323.76505371 233.72595703 322.96760742 233.39160156 322.14599609 C219.33614041 287.82597323 200.26479432 256.13526084 175.375 228.5625 C174.55563965 227.65056885 174.55563965 227.65056885 173.71972656 226.72021484 C161.85695323 213.5818381 149.2778876 201.56684904 135.14160156 190.89648438 C133.97049046 190.01216278 132.80310795 189.12288011 131.63964844 188.22851562 C91.95389719 157.73525751 43.28472022 136.30010442 -6.29785156 128.91191101 C-7.86516384 128.67658603 -9.43157386 128.43518091 -10.99707031 128.18806458 C-26.00097011 125.84223108 -40.73442863 125.0616042 -55.91259766 125.11645508 C-59.49049334 125.12497736 -63.06679099 125.09603438 -66.64453125 125.06445312 C-94.48897019 124.98028478 -122.12548589 130.01322867 -148.52441406 138.86914062 Z " fill="#96AC9B" transform="translate(684.625,218.4375)"/>
<path d="M0 0 C5.51442398 3.1654807 9.86583988 7.66472886 11.88780022 13.72055149 C12.78944403 17.40576526 13.05910423 20.48207256 13.05300903 24.2641449 C13.05471788 24.90716004 13.05642673 25.55017518 13.05818737 26.21267563 C13.06145674 28.34689734 13.05052133 30.48079795 13.03955078 32.61499023 C13.03898611 34.15294894 13.03930431 35.69090818 13.04043579 37.22886658 C13.04100813 41.38952401 13.02927302 45.55006544 13.01528788 49.71069598 C13.00276077 54.06420979 13.00160846 58.41772644 12.99923706 62.77125549 C12.99302811 71.00880193 12.97662521 79.2462951 12.95653808 87.48381811 C12.93416087 96.86468927 12.92318107 106.24556302 12.91314721 115.62645423 C12.89225846 134.91766632 12.85709387 154.20882887 12.8125 173.5 C13.34060776 173.11026505 13.86871552 172.72053009 14.41282654 172.31898499 C16.85694503 170.51562977 19.30151727 168.71289058 21.74609375 166.91015625 C22.57637085 166.29740845 23.40664795 165.68466064 24.26208496 165.05334473 C31.99571432 159.35141561 39.78060874 153.72228942 47.57861328 148.10888672 C51.32609769 145.40987882 55.06911201 142.70468506 58.8125 140 C63.29860379 136.75868547 67.78554831 133.51858046 72.27734375 130.28515625 C83.17926196 122.43305889 94.00803526 114.48552571 104.8125 106.5 C116.33050541 97.98709996 127.88366439 89.5283976 139.50830078 81.16162109 C141.9657654 79.38947613 144.41882913 77.61136409 146.87109375 75.83203125 C147.69794678 75.23269775 148.5247998 74.63336426 149.37670898 74.01586914 C150.96944968 72.86118402 152.56144121 71.70546465 154.15258789 70.54858398 C155.22174438 69.77430054 155.22174438 69.77430054 156.3125 68.984375 C157.25609375 68.29939941 157.25609375 68.29939941 158.21875 67.60058594 C162.9064541 64.36342753 168.31969966 65.01067902 173.8125 65.5 C180.48541218 67.40499124 184.37789117 71.48803897 187.921875 77.328125 C190.14970729 82.76090901 189.74735361 90.18021848 187.625 95.625 C184.02687121 101.69684234 177.47759091 105.51244987 171.8125 109.5 C170.47903779 110.4490377 169.14570745 111.3982607 167.8125 112.34765625 C164.97036308 114.36401906 162.12016895 116.36843557 159.265625 118.3671875 C154.77345841 121.51802554 150.31985683 124.72037609 145.875 127.9375 C145.12903564 128.47737549 144.38307129 129.01725098 143.61450195 129.57348633 C142.10236573 130.66838044 140.59040301 131.76351422 139.07861328 132.85888672 C135.32605186 135.57648184 131.56901207 138.28787009 127.8125 141 C127.06935547 141.53689453 126.32621094 142.07378906 125.56054688 142.62695312 C121.82496565 145.32577286 118.08786973 148.0224467 114.34765625 150.71484375 C106.6141366 156.28537746 98.91139364 161.89309983 91.25 167.5625 C84.61237919 172.47150339 77.91738808 177.28622151 71.16040039 182.02929688 C65.21312331 186.20632814 59.28919827 190.41553453 53.43286133 194.71948242 C49.84845052 197.3494109 46.25652297 199.88369754 42.484375 202.23828125 C34.06323117 207.5478319 34.06323117 207.5478319 29.67236328 216.15478516 C29.25800862 218.08764186 28.89988084 220.03227893 28.54296875 221.9765625 C26.80252361 230.37165084 20.71510775 236.73175122 13.8125 241.5 C3.17462902 248.03304033 -6.81075976 248.89579115 -19 246.875 C-29.15858517 244.13926049 -37.66475777 237.04291943 -43 228.125 C-48.09170514 218.1593271 -48.86304581 206.15277592 -46.1875 195.3125 C-43.88346106 188.67467354 -39.45855039 181.70146553 -33.59246922 177.75350571 C-30.93092104 175.69211258 -30.93092104 175.69211258 -30.56781673 172.53137589 C-30.57024663 171.36555859 -30.57267653 170.19974129 -30.57518005 168.99859619 C-30.56964664 168.34745464 -30.56411323 167.69631309 -30.55841213 167.02543998 C-30.54583742 164.84476604 -30.56881505 162.66592175 -30.59155273 160.48535156 C-30.5896488 158.92140285 -30.58549335 157.35745549 -30.57925415 155.79351807 C-30.57045887 152.42557798 -30.57722758 149.05815288 -30.59591484 145.69025421 C-30.62499645 140.36121873 -30.61721611 135.03262733 -30.60401917 129.70355225 C-30.58334336 119.34773335 -30.59895499 108.99212875 -30.61949158 98.63632202 C-30.64462033 85.46927554 -30.65745641 72.30234986 -30.62953526 59.13529944 C-30.61959754 53.84194305 -30.6296737 48.54911968 -30.65544307 43.2558217 C-30.66764779 39.95580087 -30.66339506 36.65594495 -30.65486526 33.35591888 C-30.65433189 31.83055768 -30.66062272 30.30517573 -30.67440605 28.77987671 C-30.75731604 19.13284568 -30.30600615 12.39768299 -23.875 4.75 C-16.47789604 -1.44292425 -9.3023599 -4.03823376 0 0 Z " fill="#252626" transform="translate(636.1875,445.5)"/>
<path d="M0 0 C6.36469209 6.29769533 7.48500138 12.13413877 7.6875 20.9375 C7.61934529 28.41747921 5.82731126 32.7229817 1 38.3125 C-6.50421417 44.74468357 -11.9242987 45.72786018 -21.4375 45.625 C-24.139375 45.604375 -26.84125 45.58375 -29.625 45.5625 C-29.625 53.8125 -29.625 62.0625 -29.625 70.5625 C-47.775 70.5625 -65.925 70.5625 -84.625 70.5625 C-84.625 62.3125 -84.625 54.0625 -84.625 45.5625 C-90.51836107 45.71944191 -90.51836107 45.71944191 -96.41015625 45.92285156 C-104.46041039 46.02986609 -110.8267332 43.19970384 -116.625 37.5625 C-122.2197394 29.49171039 -122.62482627 21.10453125 -121.625 11.5625 C-119.11312031 4.45323165 -114.2224614 -0.84770482 -107.625 -4.4375 C-84.13950495 -14.31457736 -20.44337753 -16.82281514 0 0 Z " fill="#96AB9B" transform="translate(684.625,218.4375)"/>
<path d="M0 0 C5.2639909 2.98506801 9.89039766 7.73369298 11.8125 13.5 C11.90450439 15.6560589 11.93443391 17.81492578 11.93275452 19.97294617 C11.93360894 20.63296137 11.93446337 21.29297658 11.93534368 21.97299224 C11.93699321 24.18864663 11.93148573 26.40422561 11.92602539 28.61987305 C11.92574338 30.20650226 11.92590153 31.7931316 11.9264679 33.37976074 C11.92675533 37.69144044 11.92086735 42.00309244 11.91389394 46.31476569 C11.90765138 50.81912073 11.90705588 55.32347638 11.90586853 59.82783508 C11.90275788 68.35944784 11.89454807 76.89104781 11.88451904 85.42265493 C11.87334965 95.13475078 11.86784537 104.84684724 11.86282361 114.55894792 C11.85236525 134.53930575 11.83477094 154.51965207 11.8125 174.5 C11.00425781 174.22285156 10.19601562 173.94570313 9.36328125 173.66015625 C8.29464844 173.29792969 7.22601562 172.93570313 6.125 172.5625 C5.06925781 172.20285156 4.01351562 171.84320312 2.92578125 171.47265625 C-6.21643086 168.61643189 -13.50565581 168.66189711 -22.53515625 172.0234375 C-23.49911316 172.3786145 -23.49911316 172.3786145 -24.48254395 172.7409668 C-26.05328997 173.32077728 -27.62074778 173.90948264 -29.1875 174.5 C-29.32778578 153.53335834 -29.43352772 132.56679428 -29.49837303 111.59977818 C-29.52928486 101.86396642 -29.57141416 92.12844661 -29.64013672 82.39282227 C-29.70002071 73.90525788 -29.73866858 65.41790497 -29.75203097 56.93013519 C-29.75983957 52.43759374 -29.77813516 47.9456572 -29.82188034 43.45331001 C-29.86276402 39.22031688 -29.87513759 34.9881748 -29.86614609 30.75500298 C-29.86778973 29.20584352 -29.87963145 27.65665408 -29.90273285 26.10766602 C-30.01527476 18.16864501 -29.88815634 11.75038058 -24.8910923 5.20909023 C-17.96792937 -1.73641553 -9.13534418 -3.93278331 0 0 Z " fill="#232425" transform="translate(636.1875,445.5)"/>
<path d="M0 0 C0.33 0 0.66 0 1 0 C1.33 52.14 1.66 104.28 2 158 C6.29 156.35 10.58 154.7 15 153 C24.0853827 152.10267825 32.8252113 153.91260565 41 158 C41.33 106.52 41.66 55.04 42 2 C42.33 2 42.66 2 43 2 C42.99777939 2.80783715 42.99555878 3.6156743 42.99327087 4.44799137 C42.9419668 24.11187699 42.93480059 43.77532632 42.97665405 63.43924046 C42.99583185 72.94865739 43.00011544 82.45764401 42.96923828 91.96704102 C42.94236089 100.25627794 42.94352865 108.54495745 42.97825909 116.83417362 C42.9956702 121.22277568 42.99911487 125.61037935 42.96896362 129.99893379 C42.94100982 134.13218412 42.95063493 138.2636653 42.98873711 142.39681816 C42.99613855 143.91129053 42.98996219 145.42590147 42.96898079 146.94024658 C42.65901633 155.12155578 42.65901633 155.12155578 45.77775574 162.41447258 C47.76937509 164.1620029 49.77299821 165.57499828 52 167 C56.53300137 172.32560868 59.4041756 178.21196434 61 185 C61.17789063 185.74636719 61.35578125 186.49273438 61.5390625 187.26171875 C63.10885749 196.57275768 60.20558324 207.05748988 55.25 215 C48.94234421 223.34238346 41.048961 228.91392564 31 232 C18.08995732 233.47804947 7.5327513 231.58078617 -3 224 C-10.89917216 217.58863308 -15.89191349 209.15745971 -17 199 C-17.94417853 184.63499808 -15.56594102 174.9675441 -6 164 C-4.71629249 163.13715078 -4.71629249 163.13715078 -3.4066515 162.25687027 C-0.74186181 160.18955207 -0.74186181 160.18955207 -0.36914349 157.00902939 C-0.36499542 155.24471762 -0.36499542 155.24471762 -0.36076355 153.44476318 C-0.34823004 152.45958407 -0.34823004 152.45958407 -0.33544332 151.45450234 C-0.31350777 149.25526032 -0.32711988 147.05768741 -0.34057617 144.85839844 C-0.33212372 143.28146089 -0.32147996 141.70453379 -0.30880737 140.12762451 C-0.28062411 135.84686098 -0.28313905 131.56659788 -0.29110122 127.28576946 C-0.29422289 122.81203989 -0.26920191 118.33847066 -0.24714661 113.86480713 C-0.20966845 105.39341235 -0.19755639 96.92217812 -0.1945222 88.45070863 C-0.18983546 78.8062237 -0.15692449 69.1619 -0.12162435 59.5174861 C-0.0496431 39.67834241 -0.01316561 19.83926415 0 0 Z " fill="#798E7C" transform="translate(606,461)"/>
<path d="M0 0 C7.4224071 4.62089119 10.78876994 11.32831106 13.4375 19.4375 C13.72947266 20.33082031 13.72947266 20.33082031 14.02734375 21.2421875 C16.47943205 34.36669821 14.72486683 50.08586184 7.28125 61.26953125 C3.11567258 66.16761487 -1.41594162 68.98799166 -7.81640625 69.90234375 C-15.12071804 70.11394027 -21.81177727 69.72517055 -27.4609375 64.7734375 C-37.24525462 54.41114384 -37.95750809 43.03423821 -37.76953125 29.4765625 C-37.41360153 17.72433083 -34.26552585 9.97179979 -25.85546875 1.7734375 C-18.97872827 -3.59012044 -7.77695887 -3.44643649 0 0 Z " fill="#262727" transform="translate(804.5625,694.5625)"/>
<path d="M0 0 C1.2684375 -0.00773438 2.536875 -0.01546875 3.84375 -0.0234375 C10.38808126 0.6897268 14.1726698 3.59216136 18.5 8.375 C19.551875 9.4578125 19.551875 9.4578125 20.625 10.5625 C25.45176143 17.80264215 25.96015723 25.96197506 25.8125 34.4375 C25.81572266 35.36626953 25.81894531 36.29503906 25.82226562 37.25195312 C25.74785441 46.89158799 24.49563273 57.05470351 17.63671875 64.359375 C10.94430837 70.45942514 5.75977879 71.86307894 -3.27734375 71.6796875 C-9.75645723 71.06711677 -13.73799283 68.44412118 -18.25 63.875 C-25.34466549 54.89708234 -25.87155562 45.8196439 -26 34.75 C-26.01861084 33.68918213 -26.03722168 32.62836426 -26.05639648 31.53540039 C-25.98273557 22.34638062 -24.0166311 14.32968052 -17.625 7.4375 C-16.66980469 6.37208984 -16.66980469 6.37208984 -15.6953125 5.28515625 C-10.74566786 0.97843698 -6.48718988 -0.03955604 0 0 Z " fill="#252627" transform="translate(457.5,692.625)"/>
<path d="M0 0 C4.2577139 3.38774832 6.6721385 6.95899382 7.44140625 12.3359375 C7.69742946 18.36487107 7.15886417 23.09635027 3.0625 27.6875 C-1.75231775 32.19340246 -6.691041 34.70945465 -12.9375 36.6875 C-13.50726562 36.87183594 -14.07703125 37.05617188 -14.6640625 37.24609375 C-24.90545536 39.23454288 -37.00749495 38.631705 -46.140625 33.43359375 C-51.85486357 29.55002791 -56.12510747 24.93550672 -57.44921875 18.01171875 C-57.83561405 11.80363431 -56.66535849 8.02172286 -52.58203125 3.3359375 C-39.05498301 -10.2232415 -15.65967459 -9.8937693 0 0 Z " fill="#CAD4C8" transform="translate(834.9375,787.3125)"/>
<path d="M0 0 C0.8559375 -0.020625 1.711875 -0.04125 2.59375 -0.0625 C12.45425563 -0.12226064 20.6893419 2.85368325 28.25 9.25 C31.79245419 13.0495678 32.50709834 16.69186835 32.6875 21.8125 C32.38449854 28.54280521 30.46329654 32.30160232 25.625 36.9375 C16.71064285 44.34704823 4.43165868 45.18963518 -6.75 44.25 C-15.24820582 42.60390646 -22.81655067 39.75422857 -28.75 33.25 C-31.9673529 28.18085877 -32.71318009 22.12758757 -31.75 16.25 C-28.31356343 9.2396694 -21.89058537 4.19937222 -14.75 1.25 C-9.89358426 -0.06031595 -4.99409292 0.02955085 0 0 Z " fill="#CCD5C9" transform="translate(442.75,780.75)"/>
<path d="M0 0 C2.75428165 1.14761735 3.68303262 2.28154061 4.87890625 4.9921875 C5.34103516 6.14074219 5.34103516 6.14074219 5.8125 7.3125 C8.4273297 13.59421979 12.4742558 16.54283988 18.25 19.875 C26.20583038 22.26174912 33.30569012 21.61891587 40.84765625 18.1875 C46.44343905 15.10017156 48.98344437 10.60302551 51.7890625 5.0859375 C53.02307714 2.96024776 54.06715461 1.51697645 56 0 C62.79245283 -0.75471698 62.79245283 -0.75471698 66.5 1.5625 C68.63176527 5.02661857 68.52898352 6.96650063 68 11 C64.74908685 21.52218634 58.17801516 28.79329616 48.94140625 34.4921875 C42.17367438 37.96143651 36.44661489 39.56165356 28.8125 39.5 C27.56847412 39.49141968 27.56847412 39.49141968 26.29931641 39.48266602 C15.00110666 39.15782881 5.00779924 35.0886861 -3 27 C-7.71220304 21.15893953 -11.54373167 14.84569025 -12.4375 7.3125 C-12 4 -12 4 -10.5 1.5625 C-6.96124822 -0.64921986 -4.06500845 -0.65510467 0 0 Z " fill="#262727" transform="translate(599,769)"/>
<path d="M0 0 C0.75445908 -0.00315216 1.50891815 -0.00630432 2.28623962 -0.009552 C3.47401756 -0.00651566 3.47401756 -0.00651566 4.68579102 -0.00341797 C5.52255875 -0.00437469 6.35932648 -0.00533142 7.22145081 -0.00631714 C8.9821073 -0.00699426 10.74276635 -0.00517282 12.50341797 -0.00097656 C15.17819915 0.00437154 17.85281192 -0.00093405 20.52758789 -0.00732422 C22.2469893 -0.00666322 23.9663906 -0.00538162 25.68579102 -0.00341797 C26.47561874 -0.0054422 27.26544647 -0.00746643 28.07920837 -0.009552 C29.21562523 -0.00482376 29.21562523 -0.00482376 30.375 0 C31.35592873 0.00119339 31.35592873 0.00119339 32.35667419 0.00241089 C35.83726521 0.18691261 39.29363487 0.69707423 42.75219727 1.12939453 C42.75219727 9.70939453 42.75219727 18.28939453 42.75219727 27.12939453 C24.93219727 27.12939453 7.11219727 27.12939453 -11.24780273 27.12939453 C-11.24780273 18.54939453 -11.24780273 9.96939453 -11.24780273 1.12939453 C-3.37078204 0.00410586 -3.37078204 0.00410586 0 0 Z " fill="#677B69" transform="translate(612.247802734375,261.87060546875)"/>
<path d="M0 0 C3.54071745 0.93192334 6.98111937 2.108701 10.4375 3.3125 C11.81131836 3.7755957 11.81131836 3.7755957 13.21289062 4.24804688 C17.09519651 5.57187695 20.88317429 6.94934217 24.6484375 8.58203125 C29.08668446 10.45975112 33.64605864 11.70854631 38.30273438 12.9296875 C43.01676095 14.29321184 45.50521466 15.73938423 48 20 C48.82865733 23.44377072 48.74309912 26.53976747 48 30 C46.25895839 32.76844072 45.0217487 33.35177344 42 35 C36.48593044 35.80204648 32.96066666 34.30927586 28 32 C26.71966995 31.53499774 25.4309876 31.09263366 24.13671875 30.66796875 C23.34652344 30.40830322 22.55632812 30.1486377 21.7421875 29.88110352 C18.61786614 28.877215 15.48671757 27.8961239 12.35546875 26.9140625 C9.96604991 26.15134212 7.57672882 25.38831541 5.1875 24.625 C3.97384766 24.25117187 2.76019531 23.87734375 1.50976562 23.4921875 C0.34509766 23.11578125 -0.81957031 22.739375 -2.01953125 22.3515625 C-3.07245361 22.01979004 -4.12537598 21.68801758 -5.21020508 21.34619141 C-8.53811643 19.74033657 -9.98245104 18.06788781 -12 15 C-13.28734461 10.5747529 -13.42286659 8.80042605 -11.25 4.6875 C-7.64400112 0.38033467 -5.4924907 -0.52633789 0 0 Z " fill="#758977" transform="translate(1027,702)"/>
<path d="M0 0 C2.34875474 3.75800759 2.85872996 6.67158816 1.875 11 C0.77743908 13.87054394 -0.24942928 15.52841546 -2.99072266 17.00488281 C-5.36544889 17.97222918 -7.75455665 18.81526129 -10.1875 19.625 C-11.47479004 20.07601074 -11.47479004 20.07601074 -12.78808594 20.53613281 C-17.86264594 22.29693008 -22.96829029 23.92668326 -28.13671875 25.390625 C-31.2378352 26.3410654 -34.15490393 27.70395808 -37.125 29 C-42.48809809 31.10110641 -47.28571235 32.78605795 -53.125 32 C-56.51439556 29.86320715 -57.85082557 28.8225233 -59.125 25 C-59.79150549 19.91789563 -59.79150549 19.91789563 -59.125 17 C-55.02757198 11.82891384 -49.36022304 9.53741054 -43.26171875 7.5703125 C-42.42969437 7.2902536 -41.59766998 7.0101947 -40.74043274 6.72164917 C-38.99084128 6.13742404 -37.23850361 5.56136476 -35.48364258 4.99316406 C-32.82246503 4.12823879 -30.17414357 3.23028814 -27.52539062 2.328125 C-25.81316615 1.76100566 -24.1002943 1.19583635 -22.38671875 0.6328125 C-21.60721359 0.3672757 -20.82770844 0.10173889 -20.02458191 -0.17184448 C-13.39232733 -2.28117541 -6.1154121 -3.91386374 0 0 Z " fill="#768A78" transform="translate(238.125,707)"/>
<path d="M0 0 C5.30158049 0.07070345 10.28216059 1.252484 15.42578125 2.453125 C17.46068637 2.91646886 19.49584737 3.37869028 21.53125 3.83984375 C23.05371338 4.18668213 23.05371338 4.18668213 24.60693359 4.54052734 C27.45251059 5.16769122 30.30186332 5.73950928 33.1640625 6.28515625 C34.02217529 6.45176758 34.88028809 6.61837891 35.7644043 6.79003906 C37.3692628 7.09856214 38.97616035 7.39672845 40.58520508 7.68261719 C45.23854915 8.59680573 48.21882084 9.86718977 51.61328125 13.203125 C53.21414752 16.40485754 53.11245214 19.72889559 52.61328125 23.203125 C50.81964214 26.0131596 49.5944719 27.71252968 46.61328125 29.203125 C40.31244697 29.73792224 34.31520397 28.81244355 28.16015625 27.55859375 C27.29690735 27.38814041 26.43365845 27.21768707 25.54425049 27.04206848 C23.73502415 26.68230963 21.92665508 26.31821445 20.11914062 25.94995117 C17.35930465 25.38981791 14.59609306 24.8493919 11.83203125 24.31054688 C10.06617049 23.95690439 8.30053674 23.60212601 6.53515625 23.24609375 C5.714245 23.08658737 4.89333374 22.92708099 4.04754639 22.76274109 C-0.88716187 21.73959989 -5.45321839 20.68905404 -8.69921875 16.515625 C-9.73367958 13.03607494 -10.10557072 9.75509942 -9.38671875 6.203125 C-6.94921875 3.265625 -6.94921875 3.265625 -4.38671875 1.203125 C-3.38671875 0.203125 -3.38671875 0.203125 0 0 Z " fill="#758A78" transform="translate(186.38671875,640.796875)"/>
<path d="M0 0 C2.62067695 2.47233674 3.08429741 4.56928526 3.3125 8.125 C3.359375 10.625 3.359375 10.625 2.5625 13.125 C-2.14001257 17.9185889 -6.18943095 19.19252365 -12.703125 20.328125 C-13.57773376 20.49624695 -14.45234253 20.6643689 -15.35345459 20.83758545 C-18.12851279 21.36750509 -20.90745099 21.8719894 -23.6875 22.375 C-26.4805833 22.89768225 -29.27264554 23.42548949 -32.06439209 23.95526123 C-33.79732666 24.28222321 -35.53124058 24.60404464 -37.26617432 24.92022705 C-41.47270959 25.63092579 -41.47270959 25.63092579 -45.4375 27.125 C-49.61894011 27.51947548 -51.74696048 27.57535186 -55.3125 25.25 C-58.15691408 22.40558592 -58.64104172 20.7362568 -58.8125 16.8125 C-58.86148438 16.05324219 -58.91046875 15.29398438 -58.9609375 14.51171875 C-58.16075449 10.86312307 -56.30350752 9.43717093 -53.4375 7.125 C-50.3984375 5.9375 -50.3984375 5.9375 -46.8125 5.125 C-46.14806885 4.97256836 -45.4836377 4.82013672 -44.79907227 4.66308594 C-42.3508767 4.11874187 -39.89657354 3.617955 -37.4375 3.125 C-36.35742676 2.90779297 -35.27735352 2.69058594 -34.16455078 2.46679688 C-30.57082299 1.75410621 -26.97412382 1.05990248 -23.375 0.375 C-22.20952637 0.15199219 -21.04405273 -0.07101562 -19.84326172 -0.30078125 C-5.41453317 -2.95338173 -5.41453317 -2.95338173 0 0 Z " fill="#758977" transform="translate(1074.4375,642.875)"/>
<path d="M0 0 C0.99 0.66 1.98 1.32 3 2 C-1.39042858 5.42453429 -4.2902045 7.58221009 -10 8 C-6.97727468 4.74475735 -3.74281699 2.38179263 0 0 Z " fill="#2C2D2D" transform="translate(771,530)"/>
<path d="M0 0 C0.33 0 0.66 0 1 0 C1.24858198 2.77034137 1.47452879 5.53939069 1.6875 8.3125 C1.76033203 9.09818359 1.83316406 9.88386719 1.90820312 10.69335938 C1.96298828 11.45068359 2.01777344 12.20800781 2.07421875 12.98828125 C2.13182373 13.68477783 2.18942871 14.38127441 2.2487793 15.09887695 C2 17 2 17 -1 20 C-0.67 13.4 -0.34 6.8 0 0 Z " fill="#B1AFAB" transform="translate(483,722)"/>
<path d="M0 0 C0.33 0.99 0.66 1.98 1 3 C0.236875 3.45375 -0.52625 3.9075 -1.3125 4.375 C-3.23632814 5.53824492 -5.12941224 6.7529415 -7 8 C-7.99 7.67 -8.98 7.34 -10 7 C-6.7 4.69 -3.4 2.38 0 0 Z " fill="#E8E6E4" transform="translate(816,548)"/>
<path d="M0 0 C3.63 0 7.26 0 11 0 C11 0.66 11 1.32 11 2 C7.95699684 3.52150158 5.345915 3.23899393 2 3 C1.34 2.01 0.68 1.02 0 0 Z " fill="#E0DCD8" transform="translate(622,808)"/>
<path d="M0 0 C-0.54226981 3.79588866 -2.20127563 5.47211993 -5 8 C-5.75 6.25 -5.75 6.25 -6 4 C-2.77777778 0 -2.77777778 0 0 0 Z " fill="#363737" transform="translate(593,769)"/>
<path d="M0 0 C0.33 0.99 0.66 1.98 1 3 C-0.98 4.32 -2.96 5.64 -5 7 C-5.66 6.34 -6.32 5.68 -7 5 C-4.69 3.35 -2.38 1.7 0 0 Z " fill="#EBE9E6" transform="translate(759,589)"/>
<path d="M0 0 C-1.04874998 2.62187494 -1.64931313 3.79371361 -4.125 5.25 C-4.74375 5.4975 -5.3625 5.745 -6 6 C-6 5.01 -6 4.02 -6 3 C-2.66666667 0 -2.66666667 0 0 0 Z " fill="#EEEAE6" transform="translate(783,573)"/>
<path d="M0 0 C0.99 0.66 1.98 1.32 3 2 C0.64031256 4.09749995 -0.54616994 4.96905704 -3.75 5.1875 C-4.86375 5.0946875 -4.86375 5.0946875 -6 5 C-5.195625 4.360625 -4.39125 3.72125 -3.5625 3.0625 C-1.7249496 1.59396498 -1.7249496 1.59396498 0 0 Z " fill="#2F3030" transform="translate(778,525)"/>
<path d="M0 0 C1.8871875 0.061875 1.8871875 0.061875 3.8125 0.125 C3.8125 0.455 3.8125 0.785 3.8125 1.125 C2.74 1.228125 1.6675 1.33125 0.5625 1.4375 C-3.04570872 2.09900493 -4.55145023 2.69983421 -7.1875 5.125 C-7.1875 4.135 -7.1875 3.145 -7.1875 2.125 C-4.09861478 0.06574319 -3.47814073 -0.1140374 0 0 Z " fill="#91A293" transform="translate(187.1875,640.875)"/>
<path d="M0 0 C0.99 0.66 1.98 1.32 3 2 C0.1875 3.5625 0.1875 3.5625 -3 5 C-3.99 4.67 -4.98 4.34 -6 4 C-4.02 2.68 -2.04 1.36 0 0 Z " fill="#323334" transform="translate(618,446)"/>
<path d="M0 0 C0 0.33 0 0.66 0 1 C-1.41199578 1.39222105 -2.82992764 1.76311059 -4.25 2.125 C-5.03890625 2.33382813 -5.8278125 2.54265625 -6.640625 2.7578125 C-9.4203071 3.04314411 -10.65887549 2.44977894 -13 1 C-8.59085217 -0.10228696 -4.51617599 -0.07654536 0 0 Z " fill="#DAE0D6" transform="translate(590,346)"/>
</svg>
