<?xml version="1.0" encoding="UTF-8"?>
<svg version="1.1" xmlns="http://www.w3.org/2000/svg" width="1254" height="1254">
<path d="M0 0 C413.82 0 827.64 0 1254 0 C1254 413.82 1254 827.64 1254 1254 C840.18 1254 426.36 1254 0 1254 C0 840.18 0 426.36 0 0 Z " fill="#FEFDFD" transform="translate(0,0)"/>
<path d="M0 0 C0.72344604 0.00093658 1.44689209 0.00187317 2.19226074 0.00283813 C43.74845562 0.11916981 43.74845562 0.11916981 55.703125 11.71875 C61.50847377 18.29348234 61.41508686 26.07723951 61.34375 34.50390625 C60.70528864 41.34560012 58.38318135 48.43226555 53.25 53.25 C44.25951884 58.60970992 38.25589853 58.1875 27 58.1875 C27 67.4275 27 76.6675 27 86.1875 C30.3 86.1875 33.6 86.1875 37 86.1875 C40.81354543 86.47173373 44.58572261 86.98814197 48.375 87.5 C49.32632812 87.61794922 50.27765625 87.73589844 51.2578125 87.85742188 C58.33121405 88.78939032 65.10559854 90.37855632 72 92.1875 C74.01070769 92.67992817 76.02243399 93.16821565 78.03515625 93.65234375 C80.04427083 94.14322917 82.05338542 94.63411458 84.0625 95.125 C85.06087891 95.36412109 86.05925781 95.60324219 87.08789062 95.84960938 C93.10244549 97.32885421 98.87456574 99.11603348 104.66552734 101.31640625 C107.73096882 102.4602564 110.84438225 103.32687698 114 104.1875 C119.79457806 105.78901655 125.26106216 107.62528054 130.71875 110.15234375 C133.11973072 111.24182986 135.54666566 112.22206751 138 113.1875 C141.20181493 114.45241454 144.36146124 115.77294732 147.5 117.1875 C152.27273529 119.33226381 157.0883055 121.38060721 162 123.1875 C162.68320312 123.45949219 163.36640625 123.73148437 164.0703125 124.01171875 C166.10903502 124.41651976 166.10903502 124.41651976 167.75390625 122.8515625 C168.35074219 122.17867188 168.94757812 121.50578125 169.5625 120.8125 C173.47467265 116.6472293 177.65051634 113.09471262 182.10546875 109.5234375 C184.97047101 107.21133041 187.76408665 104.82950478 190.5625 102.4375 C220.40513162 77.56864031 254.55953537 57.8293812 292 47.1875 C292.80050781 46.94128906 293.60101562 46.69507813 294.42578125 46.44140625 C306.55288666 43.12986146 319.25651622 44.36618181 330.203125 50.40234375 C340.27649436 57.03461938 345.05752486 68.88315262 347.43701172 80.28076172 C355.02261038 119.53986121 351.26515707 162.86751538 340.7109375 201.359375 C340.10037353 203.7882119 339.6329136 206.18292004 339.18359375 208.64453125 C337.87179316 215.29864593 335.77783967 221.68122566 333.6875 228.125 C333.30916016 229.32318359 332.93082031 230.52136719 332.54101562 231.75585938 C330.15569616 239.16205433 327.3458001 246.16829785 324 253.1875 C321.71439651 258.22497671 320.60128521 261.69971949 322 267.1875 C323.24943569 269.57537367 324.53444938 271.83305464 325.9375 274.125 C333.94342543 287.79011803 340.22880417 302.59962071 344.8671875 317.73828125 C345.76909317 320.48442851 346.76893513 323.06632616 347.8828125 325.7265625 C350.4567667 332.08732576 352.23854213 338.62551678 354 345.25 C354.26046112 346.22353424 354.26046112 346.22353424 354.52618408 347.21673584 C357.69968895 359.15668766 359.90427343 371.13116839 361.59326172 383.37255859 C362.02591726 386.36686736 362.52233843 389.34587493 363.03125 392.328125 C367.82398634 420.85938093 368.31950934 452.35154191 364.29882812 481.02734375 C364.00075396 483.18204982 363.75518836 485.33808673 363.515625 487.5 C360.5319704 512.26487269 354.25235447 537.16574113 345.875 560.625 C345.63355255 561.30258362 345.3921051 561.98016724 345.14334106 562.67828369 C330.86427521 602.37293255 310.52153513 640.32385865 284 673.1875 C282.99453125 674.47914063 282.99453125 674.47914063 281.96875 675.796875 C277.7380225 681.20280458 273.24975239 686.31172786 268.58984375 691.3515625 C266.59371713 693.53736631 264.65048402 695.74676423 262.71875 697.98828125 C258.84657299 702.42708003 254.73759291 706.59745484 250.5625 710.75 C249.85029297 711.46607422 249.13808594 712.18214844 248.40429688 712.91992188 C243.76682563 717.54896901 238.97381856 721.9241328 234 726.1875 C233.01257813 727.05632813 232.02515625 727.92515625 231.0078125 728.8203125 C222.08428059 736.53469374 212.67551643 743.44766491 203 750.1875 C202.26620117 750.69958008 201.53240234 751.21166016 200.77636719 751.73925781 C155.82220523 782.90453728 102.64273458 806.0382784 48.25 813.75 C47.12078125 813.91918945 47.12078125 813.91918945 45.96875 814.09179688 C44.3016857 814.33559141 42.63287247 814.56759287 40.96289062 814.79052734 C38.81304139 815.07856746 36.6661737 815.38914668 34.52148438 815.71337891 C22.23051396 817.466577 9.97719714 817.49244475 -2.41992188 817.44824219 C-5.99366214 817.43751902 -9.56689989 817.4481952 -13.140625 817.4609375 C-25.59091559 817.46898479 -37.68676632 817.03120152 -50 815.1875 C-52.27593642 814.88852066 -54.55197358 814.59030685 -56.828125 814.29296875 C-74.91578117 811.7553429 -92.43945224 808.3487025 -109.69921875 802.3125 C-113.53848559 801.00396882 -117.40680554 799.94579585 -121.33984375 798.9609375 C-124.97161514 797.90500397 -128.47768906 796.55653305 -132 795.1875 C-132.75901611 794.89294922 -133.51803223 794.59839844 -134.30004883 794.29492188 C-170.94240654 779.92101146 -204.43876445 761.30124859 -235.1640625 736.65332031 C-236.70039315 735.42670738 -238.25441553 734.22229694 -239.8125 733.0234375 C-246.35173383 727.96843766 -252.30828041 722.32824862 -258.30859375 716.65625 C-261.49077347 713.65081238 -264.73257088 710.72487149 -268 707.8125 C-271.62581459 704.52743744 -274.93030701 701.16996254 -278.07421875 697.42578125 C-280.054054 695.12467456 -282.11879851 692.9164647 -284.20166016 690.70874023 C-290.9420855 683.54212275 -297.07208546 676.03421509 -303 668.1875 C-303.44166504 667.60806641 -303.88333008 667.02863281 -304.33837891 666.43164062 C-324.42216758 640.00521698 -341.36696191 610.89025109 -353.796875 580.09375 C-354.78261855 577.71260323 -355.82600743 575.38132478 -356.8984375 573.0390625 C-359.22485817 567.82086195 -361.07933622 562.48293429 -362.875 557.0625 C-363.21942139 556.02641602 -363.56384277 554.99033203 -363.91870117 553.92285156 C-367.15111279 544.02419934 -369.83872982 534.01011171 -372.3269043 523.90161133 C-372.7939194 522.01847499 -373.27279144 520.13825504 -373.76098633 518.26049805 C-394.06576654 439.59619893 -378.52433177 357.9672015 -344.625 285.6875 C-344.30370117 285.00034912 -343.98240234 284.31319824 -343.65136719 283.60522461 C-342.31619527 280.79142381 -340.95016065 278.1096471 -339.26953125 275.484375 C-337.14212881 271.63541304 -337.99941329 268.33278778 -339 264.1875 C-340.13744644 261.08893902 -341.56538628 258.15782438 -343 255.1875 C-353.50345883 232.03054548 -359.07428004 206.47639186 -363.39453125 181.51171875 C-363.8609055 178.9511737 -364.39110836 176.44369723 -364.9765625 173.91015625 C-366.09402113 168.9514009 -366.85596968 163.96919215 -367.5625 158.9375 C-367.68818359 158.08542969 -367.81386719 157.23335937 -367.94335938 156.35546875 C-369.70335742 143.98940921 -370.18657017 131.69421366 -370.18530273 119.22265625 C-370.18749067 116.82273639 -370.20573038 114.42327678 -370.22460938 112.0234375 C-370.29518369 92.83523007 -369.00905937 73.7260169 -355.05078125 59.15234375 C-347.71213856 52.36157616 -339.99205297 48.74667603 -329.95703125 48.84375 C-309.56128124 50.6155427 -289.14947497 58.01352972 -271 67.1875 C-269.72165283 67.82582764 -269.72165283 67.82582764 -268.41748047 68.47705078 C-241.71323714 81.86414395 -216.01524804 98.15867498 -193.6796875 118.12890625 C-193.1439209 118.60046143 -192.6081543 119.0720166 -192.05615234 119.55786133 C-190.59685361 120.85163245 -189.15704065 122.16728862 -187.71875 123.484375 C-185.09573075 125.48504992 -185.09573075 125.48504992 -181.8984375 125.0546875 C-179.51825508 124.34255745 -177.36055169 123.62925703 -175.125 122.5625 C-170.79153368 120.55341409 -166.43760577 118.6038517 -162.0625 116.6875 C-161.41877441 116.40310059 -160.77504883 116.11870117 -160.11181641 115.82568359 C-151.34031499 111.97429881 -142.48511773 108.58845204 -133.375 105.625 C-126.17482674 103.28473952 -126.17482674 103.28473952 -119.07421875 100.6640625 C-113.98225802 98.72276854 -108.71474535 97.45708711 -103.4375 96.125 C-101.43601194 95.61400916 -99.43470521 95.10230745 -97.43359375 94.58984375 C-96.02037842 94.22995361 -96.02037842 94.22995361 -94.57861328 93.86279297 C-92.44394166 93.30376043 -90.32318821 92.6918821 -88.20703125 92.06640625 C-84.88378045 91.15564933 -81.66582297 90.62825135 -78.25 90.1875 C-72.99920871 89.47883848 -67.80079871 88.65009373 -62.59765625 87.65234375 C-54.29453247 86.1665216 -46.4325201 86.11287593 -38 86.1875 C-38 76.9475 -38 67.7075 -38 58.1875 C-40.475 58.249375 -42.95 58.31125 -45.5 58.375 C-52.83363054 58.40590013 -58.39108307 58.30339549 -64.14453125 53.3359375 C-71.14356264 46.19818657 -73.08226933 39.32899529 -73.375 29.5 C-73.1583751 21.80078991 -71.15051565 16.54609728 -65.84204102 10.85717773 C-59.26758139 4.8979028 -50.12264472 4.11248152 -41.6875 3 C-39.96756836 2.7534668 -39.96756836 2.7534668 -38.21289062 2.50195312 C-25.45750633 0.71894242 -12.87262834 -0.02155139 0 0 Z " fill="#FCF7F0" transform="translate(640,207.8125)"/>
<path d="M0 0 C0.72344604 0.00093658 1.44689209 0.00187317 2.19226074 0.00283813 C43.74845562 0.11916981 43.74845562 0.11916981 55.703125 11.71875 C61.50847377 18.29348234 61.41508686 26.07723951 61.34375 34.50390625 C60.70528864 41.34560012 58.38318135 48.43226555 53.25 53.25 C44.25951884 58.60970992 38.25589853 58.1875 27 58.1875 C27 67.4275 27 76.6675 27 86.1875 C30.3 86.1875 33.6 86.1875 37 86.1875 C40.81354543 86.47173373 44.58572261 86.98814197 48.375 87.5 C49.32632812 87.61794922 50.27765625 87.73589844 51.2578125 87.85742188 C58.33121405 88.78939032 65.10559854 90.37855632 72 92.1875 C74.01070769 92.67992817 76.02243399 93.16821565 78.03515625 93.65234375 C80.04427083 94.14322917 82.05338542 94.63411458 84.0625 95.125 C85.06087891 95.36412109 86.05925781 95.60324219 87.08789062 95.84960938 C93.10244549 97.32885421 98.87456574 99.11603348 104.66552734 101.31640625 C107.73096882 102.4602564 110.84438225 103.32687698 114 104.1875 C119.79457806 105.78901655 125.26106216 107.62528054 130.71875 110.15234375 C133.11973072 111.24182986 135.54666566 112.22206751 138 113.1875 C141.20181493 114.45241454 144.36146124 115.77294732 147.5 117.1875 C152.27273529 119.33226381 157.0883055 121.38060721 162 123.1875 C162.68320312 123.45949219 163.36640625 123.73148437 164.0703125 124.01171875 C166.10903502 124.41651976 166.10903502 124.41651976 167.75390625 122.8515625 C168.35074219 122.17867188 168.94757812 121.50578125 169.5625 120.8125 C173.47467265 116.6472293 177.65051634 113.09471262 182.10546875 109.5234375 C184.97047101 107.21133041 187.76408665 104.82950478 190.5625 102.4375 C220.40513162 77.56864031 254.55953537 57.8293812 292 47.1875 C292.80050781 46.94128906 293.60101562 46.69507813 294.42578125 46.44140625 C306.55288666 43.12986146 319.25651622 44.36618181 330.203125 50.40234375 C340.27649436 57.03461938 345.05752486 68.88315262 347.43701172 80.28076172 C355.02261038 119.53986121 351.26515707 162.86751538 340.7109375 201.359375 C340.10037353 203.7882119 339.6329136 206.18292004 339.18359375 208.64453125 C337.87179316 215.29864593 335.77783967 221.68122566 333.6875 228.125 C333.30916016 229.32318359 332.93082031 230.52136719 332.54101562 231.75585938 C330.15569616 239.16205433 327.3458001 246.16829785 324 253.1875 C321.71439651 258.22497671 320.60128521 261.69971949 322 267.1875 C323.24943569 269.57537367 324.53444938 271.83305464 325.9375 274.125 C333.94342543 287.79011803 340.22880417 302.59962071 344.8671875 317.73828125 C345.76909317 320.48442851 346.76893513 323.06632616 347.8828125 325.7265625 C350.4567667 332.08732576 352.23854213 338.62551678 354 345.25 C354.26046112 346.22353424 354.26046112 346.22353424 354.52618408 347.21673584 C357.69968895 359.15668766 359.90427343 371.13116839 361.59326172 383.37255859 C362.02591726 386.36686736 362.52233843 389.34587493 363.03125 392.328125 C367.82398634 420.85938093 368.31950934 452.35154191 364.29882812 481.02734375 C364.00075396 483.18204982 363.75518836 485.33808673 363.515625 487.5 C360.5319704 512.26487269 354.25235447 537.16574113 345.875 560.625 C345.63355255 561.30258362 345.3921051 561.98016724 345.14334106 562.67828369 C330.86427521 602.37293255 310.52153513 640.32385865 284 673.1875 C282.99453125 674.47914063 282.99453125 674.47914063 281.96875 675.796875 C277.7380225 681.20280458 273.24975239 686.31172786 268.58984375 691.3515625 C266.59371713 693.53736631 264.65048402 695.74676423 262.71875 697.98828125 C258.84657299 702.42708003 254.73759291 706.59745484 250.5625 710.75 C249.85029297 711.46607422 249.13808594 712.18214844 248.40429688 712.91992188 C243.76682563 717.54896901 238.97381856 721.9241328 234 726.1875 C233.01257813 727.05632813 232.02515625 727.92515625 231.0078125 728.8203125 C222.08428059 736.53469374 212.67551643 743.44766491 203 750.1875 C202.26620117 750.69958008 201.53240234 751.21166016 200.77636719 751.73925781 C155.82220523 782.90453728 102.64273458 806.0382784 48.25 813.75 C47.12078125 813.91918945 47.12078125 813.91918945 45.96875 814.09179688 C44.3016857 814.33559141 42.63287247 814.56759287 40.96289062 814.79052734 C38.81304139 815.07856746 36.6661737 815.38914668 34.52148438 815.71337891 C22.23051396 817.466577 9.97719714 817.49244475 -2.41992188 817.44824219 C-5.99366214 817.43751902 -9.56689989 817.4481952 -13.140625 817.4609375 C-25.59091559 817.46898479 -37.68676632 817.03120152 -50 815.1875 C-52.27593642 814.88852066 -54.55197358 814.59030685 -56.828125 814.29296875 C-74.91578117 811.7553429 -92.43945224 808.3487025 -109.69921875 802.3125 C-113.53848559 801.00396882 -117.40680554 799.94579585 -121.33984375 798.9609375 C-124.97161514 797.90500397 -128.47768906 796.55653305 -132 795.1875 C-132.75901611 794.89294922 -133.51803223 794.59839844 -134.30004883 794.29492188 C-170.94240654 779.92101146 -204.43876445 761.30124859 -235.1640625 736.65332031 C-236.70039315 735.42670738 -238.25441553 734.22229694 -239.8125 733.0234375 C-246.35173383 727.96843766 -252.30828041 722.32824862 -258.30859375 716.65625 C-261.49077347 713.65081238 -264.73257088 710.72487149 -268 707.8125 C-271.62581459 704.52743744 -274.93030701 701.16996254 -278.07421875 697.42578125 C-280.054054 695.12467456 -282.11879851 692.9164647 -284.20166016 690.70874023 C-290.9420855 683.54212275 -297.07208546 676.03421509 -303 668.1875 C-303.44166504 667.60806641 -303.88333008 667.02863281 -304.33837891 666.43164062 C-324.42216758 640.00521698 -341.36696191 610.89025109 -353.796875 580.09375 C-354.78261855 577.71260323 -355.82600743 575.38132478 -356.8984375 573.0390625 C-359.22485817 567.82086195 -361.07933622 562.48293429 -362.875 557.0625 C-363.21942139 556.02641602 -363.56384277 554.99033203 -363.91870117 553.92285156 C-367.15111279 544.02419934 -369.83872982 534.01011171 -372.3269043 523.90161133 C-372.7939194 522.01847499 -373.27279144 520.13825504 -373.76098633 518.26049805 C-394.06576654 439.59619893 -378.52433177 357.9672015 -344.625 285.6875 C-344.30370117 285.00034912 -343.98240234 284.31319824 -343.65136719 283.60522461 C-342.31619527 280.79142381 -340.95016065 278.1096471 -339.26953125 275.484375 C-337.14212881 271.63541304 -337.99941329 268.33278778 -339 264.1875 C-340.13744644 261.08893902 -341.56538628 258.15782438 -343 255.1875 C-353.50345883 232.03054548 -359.07428004 206.47639186 -363.39453125 181.51171875 C-363.8609055 178.9511737 -364.39110836 176.44369723 -364.9765625 173.91015625 C-366.09402113 168.9514009 -366.85596968 163.96919215 -367.5625 158.9375 C-367.68818359 158.08542969 -367.81386719 157.23335937 -367.94335938 156.35546875 C-369.70335742 143.98940921 -370.18657017 131.69421366 -370.18530273 119.22265625 C-370.18749067 116.82273639 -370.20573038 114.42327678 -370.22460938 112.0234375 C-370.29518369 92.83523007 -369.00905937 73.7260169 -355.05078125 59.15234375 C-347.71213856 52.36157616 -339.99205297 48.74667603 -329.95703125 48.84375 C-309.56128124 50.6155427 -289.14947497 58.01352972 -271 67.1875 C-269.72165283 67.82582764 -269.72165283 67.82582764 -268.41748047 68.47705078 C-241.71323714 81.86414395 -216.01524804 98.15867498 -193.6796875 118.12890625 C-193.1439209 118.60046143 -192.6081543 119.0720166 -192.05615234 119.55786133 C-190.59685361 120.85163245 -189.15704065 122.16728862 -187.71875 123.484375 C-185.09573075 125.48504992 -185.09573075 125.48504992 -181.8984375 125.0546875 C-179.51825508 124.34255745 -177.36055169 123.62925703 -175.125 122.5625 C-170.79153368 120.55341409 -166.43760577 118.6038517 -162.0625 116.6875 C-161.41877441 116.40310059 -160.77504883 116.11870117 -160.11181641 115.82568359 C-151.34031499 111.97429881 -142.48511773 108.58845204 -133.375 105.625 C-126.17482674 103.28473952 -126.17482674 103.28473952 -119.07421875 100.6640625 C-113.98225802 98.72276854 -108.71474535 97.45708711 -103.4375 96.125 C-101.43601194 95.61400916 -99.43470521 95.10230745 -97.43359375 94.58984375 C-96.02037842 94.22995361 -96.02037842 94.22995361 -94.57861328 93.86279297 C-92.44394166 93.30376043 -90.32318821 92.6918821 -88.20703125 92.06640625 C-84.88378045 91.15564933 -81.66582297 90.62825135 -78.25 90.1875 C-72.99920871 89.47883848 -67.80079871 88.65009373 -62.59765625 87.65234375 C-54.29453247 86.1665216 -46.4325201 86.11287593 -38 86.1875 C-38 76.9475 -38 67.7075 -38 58.1875 C-40.475 58.249375 -42.95 58.31125 -45.5 58.375 C-52.83363054 58.40590013 -58.39108307 58.30339549 -64.14453125 53.3359375 C-71.14356264 46.19818657 -73.08226933 39.32899529 -73.375 29.5 C-73.1583751 21.80078991 -71.15051565 16.54609728 -65.84204102 10.85717773 C-59.26758139 4.8979028 -50.12264472 4.11248152 -41.6875 3 C-39.96756836 2.7534668 -39.96756836 2.7534668 -38.21289062 2.50195312 C-25.45750633 0.71894242 -12.87262834 -0.02155139 0 0 Z M-61 141.1875 C-60.61012443 147.54862766 -60.14090598 153.79796107 -58.9375 160.0625 C-57.3855179 168.83761681 -56.46349255 178.82848238 -60 187.1875 C-63.9327869 189.73224447 -68.45667086 189.73233012 -73 189.1875 C-75.75 188.3125 -75.75 188.3125 -78 186.1875 C-81.42219893 179.3006852 -83.28957971 171.86658214 -85.125 164.4375 C-87.28281164 155.7313771 -87.28281164 155.7313771 -90 147.1875 C-96.63533433 147.77297068 -102.5583451 149.42775489 -108.875 151.5 C-109.80441406 151.79583984 -110.73382812 152.09167969 -111.69140625 152.39648438 C-117.90960335 154.40417284 -123.95569833 156.71075745 -130 159.1875 C-131.28297226 159.6897586 -132.56676985 160.18991648 -133.8515625 160.6875 C-170.22364051 175.0195281 -202.80400039 196.37522492 -232 222.1875 C-232.55187988 222.67476563 -233.10375977 223.16203125 -233.67236328 223.6640625 C-269.67087785 255.6532385 -298.43219648 298.68980548 -314.30273438 344.21142578 C-314.99411698 346.17082733 -315.72117124 348.1140366 -316.453125 350.05859375 C-320.02928079 359.8387665 -322.44446426 369.84745405 -324.6875 380 C-324.97294678 381.27939453 -325.25839355 382.55878906 -325.55249023 383.87695312 C-326.42991913 387.97110772 -327.24249729 392.06973168 -328 396.1875 C-328.14159546 396.95149109 -328.28319092 397.71548218 -328.42907715 398.50262451 C-330.97479971 412.71089805 -331.46826067 426.70200616 -331.39111328 441.11669922 C-331.37501734 444.68365704 -331.39106608 448.24948224 -331.41015625 451.81640625 C-331.42321252 465.87194064 -330.46317993 479.35211136 -328 493.1875 C-327.70996094 494.92894287 -327.70996094 494.92894287 -327.4140625 496.70556641 C-323.30142726 520.58899982 -316.76236578 543.99645144 -307 566.1875 C-306.59410645 567.12513184 -306.18821289 568.06276367 -305.77001953 569.02880859 C-285.92789124 614.65002114 -255.20349529 659.80830114 -215.78125 690.9609375 C-213.31728355 692.93349491 -210.94194518 694.97996552 -208.57324219 697.06494141 C-171.21998232 729.65339997 -121.38969027 753.03232418 -73 763.1875 C-71.8346875 763.43371094 -70.669375 763.67992187 -69.46875 763.93359375 C-48.01977176 768.21009458 -26.35129261 770.23636309 -4.5 770.3125 C-3.39615967 770.31725342 -2.29231934 770.32200684 -1.1550293 770.3269043 C12.26562432 770.30018767 25.33842332 769.22495509 38.5625 766.9375 C40.51240845 766.60371338 40.51240845 766.60371338 42.50170898 766.26318359 C97.66382826 756.69529476 149.38942699 733.39858764 193 698.1875 C194.5159375 696.97900391 194.5159375 696.97900391 196.0625 695.74609375 C204.27879084 689.03461809 211.79823677 681.59981339 219.3125 674.125 C219.8244693 673.61829773 220.3364386 673.11159546 220.86392212 672.58953857 C227.71494832 665.79304585 233.99679767 658.7587198 240 651.1875 C241.0003351 649.97880638 242.00376423 648.77265949 243.01171875 647.5703125 C256.06629927 631.77771052 266.81814315 614.46661321 276.6953125 596.55029297 C277.88742086 594.39138116 279.09742338 592.24368974 280.3125 590.09765625 C284.44094986 582.70819809 287.68057025 575.20813126 290.51171875 567.2421875 C291.46666843 564.57546344 292.49991612 561.97371393 293.64453125 559.3828125 C304.20169214 535.45264678 309.75939518 509.32117036 313.75 483.5625 C313.86577393 482.81806641 313.98154785 482.07363281 314.10083008 481.30664062 C320.59850483 436.36150789 315.43459026 387.53248031 299 345.1875 C298.65195312 344.24390625 298.30390625 343.3003125 297.9453125 342.328125 C294.9885354 334.40473538 291.6129132 326.73819525 287.93701172 319.12890625 C287.31458331 317.83928907 286.69638158 316.54762298 286.08251953 315.25390625 C273.81175504 289.42618809 257.19630928 266.3410519 238.44433594 244.85522461 C237.43407074 243.68870642 236.43281862 242.51434899 235.43847656 241.33422852 C232.8615127 238.27881212 230.34973126 235.41924844 227.25 232.875 C224.05598688 230.16584655 221.11180762 227.31095805 218.1875 224.3125 C213.09031776 219.18456553 207.70816027 214.61478179 202 210.1875 C201.30648437 209.64464355 200.61296875 209.10178711 199.8984375 208.54248047 C188.20563396 199.42853466 176.16890683 191.22378649 163.43164062 183.63964844 C161.78867934 182.65849043 160.15206182 181.66664278 158.52148438 180.66503906 C136.76219814 167.35257504 98.27908518 146.1875 72 146.1875 C71.62875 148.105625 71.62875 148.105625 71.25 150.0625 C70.83686802 152.10488485 70.41952922 154.14641962 70 156.1875 C69.79068848 157.21665527 69.79068848 157.21665527 69.57714844 158.26660156 C64.8230014 181.43171292 64.8230014 181.43171292 59.375 186.75 C55.26524318 189.23748439 51.79215409 190.00612133 47 189.1875 C43.31434926 186.38320053 41.10087623 183.69108459 40 179.1875 C39.53129935 172.06541471 40.498026 165.50405551 42 158.5625 C43.34215905 152.30513688 44.23912235 146.59896799 44 140.1875 C31.2500611 138.19884802 18.91936986 136.6877536 6 137.1875 C5.98018066 137.93209473 5.96036133 138.67668945 5.93994141 139.44384766 C4.97343714 173.97635088 4.97343714 173.97635088 1 184.1875 C-3.05563018 186.89125345 -8.28157312 186.88969783 -13 186.1875 C-16.63012795 184.02487058 -18.37024999 182.02123988 -20 178.1875 C-20.35440063 176.14996338 -20.35440063 176.14996338 -20.50244141 173.96972656 C-20.5923082 172.7389035 -20.5923082 172.7389035 -20.68399048 171.48321533 C-20.73928925 170.60703552 -20.79458801 169.73085571 -20.8515625 168.828125 C-20.91532074 167.92374695 -20.97907898 167.0193689 -21.04476929 166.08758545 C-21.2461702 163.20470991 -21.435732 160.321195 -21.625 157.4375 C-21.75963658 155.48041493 -21.89504417 153.52338273 -22.03125 151.56640625 C-22.36310979 146.77400472 -22.68435545 141.98099572 -23 137.1875 C-25.82687395 137.16364452 -28.65354153 137.1464055 -31.48046875 137.1328125 C-32.26933472 137.12548096 -33.05820068 137.11814941 -33.87097168 137.1105957 C-42.990606 137.07785016 -52.57639168 137.42611392 -61 141.1875 Z " fill="#E9C79D" transform="translate(640,207.8125)"/>
<path d="M0 0 C1.08516907 0.00140488 1.08516907 0.00140488 2.19226074 0.00283813 C43.74845562 0.11916981 43.74845562 0.11916981 55.703125 11.71875 C61.50847377 18.29348234 61.41508686 26.07723951 61.34375 34.50390625 C60.70528864 41.34560012 58.38318135 48.43226555 53.25 53.25 C44.25380993 58.61311331 36.28454143 58.46546058 26 58.1875 C26 67.0975 26 76.0075 26 85.1875 C4.88 85.1875 -16.24 85.1875 -38 85.1875 C-38 76.2775 -38 67.3675 -38 58.1875 C-41.7125 58.2803125 -41.7125 58.2803125 -45.5 58.375 C-52.83363054 58.40590013 -58.39108307 58.30339549 -64.14453125 53.3359375 C-71.14356264 46.19818657 -73.08226933 39.32899529 -73.375 29.5 C-73.1583751 21.80078991 -71.15051565 16.54609728 -65.84204102 10.85717773 C-59.26758139 4.8979028 -50.12264472 4.11248152 -41.6875 3 C-40.54087891 2.83564453 -39.39425781 2.67128906 -38.21289062 2.50195312 C-25.45750633 0.71894242 -12.87262834 -0.02155139 0 0 Z " fill="#DEB88B" transform="translate(640,207.8125)"/>
<path d="M0 0 C0.70640625 -0.00515625 1.4128125 -0.0103125 2.140625 -0.015625 C9.54068941 0.73767497 16.11243767 3.44129596 22.875 6.375 C23.80151367 6.77678467 24.72802734 7.17856934 25.68261719 7.5925293 C45.0503387 16.13701332 61.92389357 28.30298272 77.75 42.25 C78.74773437 43.09046875 79.74546875 43.9309375 80.7734375 44.796875 C82.15402344 45.98023438 82.15402344 45.98023438 83.5625 47.1875 C84.37332031 47.87714844 85.18414062 48.56679688 86.01953125 49.27734375 C87.75 51.25 87.75 51.25 87.75 55.25 C85.8359375 57.0390625 85.8359375 57.0390625 83.125 58.875 C82.11953125 59.57238281 81.1140625 60.26976562 80.078125 60.98828125 C79.53607422 61.35646973 78.99402344 61.7246582 78.43554688 62.10400391 C68.3787127 68.94160234 58.86408219 76.19677038 49.75 84.25 C48.81027344 85.07757813 47.87054688 85.90515625 46.90234375 86.7578125 C34.01428728 98.35174501 21.28910296 110.45138066 10.75 124.25 C9.27656627 126.15029237 7.79753334 128.0462586 6.3125 129.9375 C5.67441406 130.76636719 5.03632813 131.59523438 4.37890625 132.44921875 C3.84136719 133.04347656 3.30382812 133.63773438 2.75 134.25 C2.09 134.25 1.43 134.25 0.75 134.25 C-9.18200427 113.9281331 -12.68179852 91.39352406 -16.25 69.25 C-16.45133545 68.08887695 -16.45133545 68.08887695 -16.65673828 66.90429688 C-18.35709977 57.04172192 -18.49413319 47.10313763 -18.59945679 37.12139893 C-18.61627396 35.60126307 -18.63876992 34.08117773 -18.66738892 32.56121826 C-18.83867174 22.3269633 -18.67808025 12.62086767 -11.25 4.75 C-7.49616911 1.62180759 -4.92403556 -0.03542472 0 0 Z " fill="#D1A878" transform="translate(327.25,303.75)"/>
<path d="M0 0 C6.49128136 5.7364812 8.51233505 14.39549419 9.40161133 22.79199219 C9.5748651 26.93262909 9.61069286 31.04476358 9.5625 35.1875 C9.55990173 35.93124878 9.55730347 36.67499756 9.55462646 37.44128418 C9.45337289 56.6143346 7.44139726 76.56916303 2 95 C1.52428844 96.82077765 1.05643537 98.64363235 0.59765625 100.46875 C0.34693359 101.45230469 0.09621094 102.43585938 -0.16210938 103.44921875 C-0.67880028 105.48214365 -1.19182613 107.51600361 -1.70117188 109.55078125 C-3.0862347 114.95642287 -4.66215644 119.93467229 -7 125 C-7.68836513 126.99263591 -8.36281399 128.99041337 -9 131 C-9.66 131 -10.32 131 -11 131 C-12.48828125 129.33984375 -12.48828125 129.33984375 -14.3125 126.9375 C-28.0841216 109.37190751 -43.30407704 92.67982697 -61 79 C-62.16013486 78.05393966 -63.31750077 77.1044776 -64.47265625 76.15234375 C-71.89905667 70.05871264 -79.49573037 64.47073256 -87.5625 59.25390625 C-91.12528207 56.94815415 -94.56150488 54.48676879 -98 52 C-96.4030442 48.07260288 -93.71483116 45.37040514 -90.75 42.4375 C-90.22422363 41.91518799 -89.69844727 41.39287598 -89.15673828 40.85473633 C-83.18357223 35.04014215 -76.68751952 29.96064697 -70 25 C-69.14792969 24.36449219 -68.29585937 23.72898437 -67.41796875 23.07421875 C-19.68752763 -11.35818902 -19.68752763 -11.35818902 0 0 Z " fill="#D1A879" transform="translate(942,303)"/>
<path d="M0 0 C1.07636719 0.0103125 2.15273438 0.020625 3.26171875 0.03125 C6.6332275 0.54927951 8.53419982 1.56331915 11.3125 3.5 C12.17875 4.098125 13.045 4.69625 13.9375 5.3125 C17.59725902 8.68333068 19.13791231 11.9937533 19.7109375 16.9375 C19.70320312 18.113125 19.69546875 19.28875 19.6875 20.5 C19.69523438 21.675625 19.70296875 22.85125 19.7109375 24.0625 C18.73572102 32.47613238 13.55792175 36.50702487 7.3125 41.5 C4.102511 43.96396128 0.85890128 46.38217313 -2.39257812 48.79101562 C-7.13324534 52.30800086 -11.78094827 55.91880896 -16.375 59.625 C-21.48618552 63.74735312 -26.63993846 67.80115426 -31.85546875 71.79052734 C-36.30272155 75.19494805 -40.70912476 78.64899886 -45.10791016 82.11572266 C-49.92938547 85.91241987 -54.7756988 89.67643995 -59.625 93.4375 C-65.91368318 98.31731593 -72.15234134 103.25367916 -78.35522461 108.24194336 C-82.26239731 111.37784635 -86.20616652 114.45892335 -90.1875 117.5 C-94.88225628 121.08633226 -99.51794514 124.739187 -104.125 128.4375 C-109.17821528 132.49094076 -114.23287234 136.54216961 -119.3125 140.5625 C-119.88025146 141.0155249 -120.44800293 141.4685498 -121.03295898 141.93530273 C-124.12962381 144.37935507 -127.2551964 146.55417733 -130.6875 148.5 C-130.83445312 147.76136719 -130.98140625 147.02273438 -131.1328125 146.26171875 C-133.99369633 133.32197409 -139.58638538 123.04875794 -150.6875 115.5 C-149.35966283 112.47040152 -148.0297999 110.674303 -145.44921875 108.6171875 C-144.80065918 108.09495605 -144.15209961 107.57272461 -143.48388672 107.03466797 C-142.7879541 106.48697754 -142.09202148 105.93928711 -141.375 105.375 C-140.65586426 104.80023926 -139.93672852 104.22547852 -139.19580078 103.63330078 C-133.80957526 99.34314416 -128.36355517 95.13196331 -122.890625 90.953125 C-113.91882112 84.10012351 -105.10329149 77.04494935 -96.2956543 69.9831543 C-89.22422703 64.31813805 -82.09136938 58.73216648 -74.95800781 53.14550781 C-73.22152511 51.78511612 -71.48557698 50.424047 -69.75 49.0625 C-69.17282227 48.60979736 -68.59564453 48.15709473 -68.00097656 47.69067383 C-64.3933016 44.85571437 -60.80745394 41.99512285 -57.23242188 39.11914062 C-50.60419595 33.78728696 -43.89373335 28.58192754 -37.11425781 23.44384766 C-31.36590775 19.0675912 -25.75406362 14.53898706 -20.21508789 9.90063477 C-7.96958442 -0.23072379 -7.96958442 -0.23072379 0 0 Z " fill="#272726" transform="translate(803.6875,506.5)"/>
<path d="M0 0 C4.65038438 3.21097969 8.07298063 6.76212598 10.625 11.8125 C10.99414349 14.75472736 10.99414349 14.75472736 10.98576355 18.07038879 C10.98988754 19.33097107 10.99401154 20.59155334 10.9982605 21.89033508 C10.98764446 23.27951266 10.97674005 24.66868805 10.96557617 26.05786133 C10.96472959 27.52656029 10.96520565 28.99526052 10.96690369 30.46395874 C10.96776385 34.4450522 10.95013483 38.42587407 10.92918181 42.40690446 C10.91041845 46.56957002 10.90866484 50.73224191 10.90510559 54.89494324 C10.89578412 62.77488944 10.87116897 70.65471067 10.84105712 78.53460187 C10.80751628 87.50671811 10.7910279 96.47884034 10.77597082 105.45100367 C10.74461949 123.90490661 10.69185701 142.35869326 10.625 160.8125 C5.875 159.87939453 5.875 159.87939453 3.625 159.27734375 C-6.06833527 156.72148386 -15.30291313 156.62631175 -24.44921875 160.9375 C-26.375 161.8125 -26.375 161.8125 -28.375 161.8125 C-28.46851745 142.65390687 -28.5390155 123.49536018 -28.58224869 104.336586 C-28.60285782 95.4404588 -28.63094681 86.54447357 -28.67675781 77.6484375 C-28.71667616 69.89298579 -28.7424448 62.13763692 -28.75135398 54.38208532 C-28.7565603 50.27703969 -28.76876238 46.17228822 -28.79792023 42.06733704 C-28.82516852 38.19970735 -28.83342615 34.33249165 -28.82743073 30.46477509 C-28.82852678 29.04906206 -28.83642479 27.63333449 -28.8518219 26.21770477 C-28.94395078 17.30651022 -28.67299697 10.68356323 -22.55859375 3.75390625 C-21.98238281 3.29886719 -21.40617188 2.84382813 -20.8125 2.375 C-20.23371094 1.90191406 -19.65492188 1.42882812 -19.05859375 0.94140625 C-13.69101704 -2.65773452 -5.83942081 -2.05461102 0 0 Z " fill="#262626" transform="translate(640.375,459.1875)"/>
<path d="M0 0 C0.33 0 0.66 0 1 0 C1.00054477 0.74268222 1.00108953 1.48536444 1.00165081 2.25055218 C1.01661664 20.31979841 1.05905533 38.3887888 1.13209057 56.45789623 C1.16674709 65.19599894 1.19209695 73.9339438 1.19555664 82.67211914 C1.19859563 90.28813566 1.21907709 97.90387109 1.26052457 105.51977903 C1.28186248 109.5526139 1.2944513 113.58504907 1.28615379 117.6179409 C1.27861838 121.41436426 1.2944143 125.20997743 1.32806015 129.00625229 C1.33629977 130.39898987 1.33603572 131.79180792 1.32659721 133.18453789 C0.87970093 141.36069055 0.87970093 141.36069055 4.43037415 148.27192688 C5.27835068 148.84219101 6.12632721 149.41245514 7 150 C14.67780089 156.61237918 20.72240003 165.93394125 22 176.1875 C22.0417203 177.79112406 22.04158516 179.39637243 22 181 C22.020625 181.84691406 22.04125 182.69382812 22.0625 183.56640625 C21.81861053 194.03841016 16.67559557 203.62974505 9.5625 211.125 C5.69163716 214.67383859 1.84741099 217.05030333 -3 219 C-4.07378906 219.52078125 -5.14757812 220.0415625 -6.25390625 220.578125 C-14.14200482 223.94765567 -25.64504408 223.03569665 -33.62890625 220.16796875 C-41.64743038 216.21815209 -48.52030206 210.78484094 -53 203 C-53.4846875 202.16210938 -53.969375 201.32421875 -54.46875 200.4609375 C-59.3029545 190.71195843 -59.92947466 178.42575635 -56.875 167.9375 C-51.46926778 155.02941979 -42.59705593 147.48819103 -30 142 C-20.22223718 138.74074573 -9.26412355 141.29435058 0 145 C0 97.15 0 49.3 0 0 Z " fill="#D3AC7F" transform="translate(651,475)"/>
<path d="M0 0 C7.86584996 4.71624614 13.05609841 12.43017255 15.28759766 21.27783203 C17.66861797 34.5086299 17.24571713 49.53988297 10.6875 61.5 C8.47353311 64.54475686 6.3192043 67.06682465 3.25 69.25 C2.69441406 69.65734375 2.13882813 70.0646875 1.56640625 70.484375 C-3.96510882 73.47438314 -11.2384983 73.27154193 -17.3125 72.5 C-24.96844037 69.69460646 -29.80452129 64.74616853 -33.3125 57.5 C-38.63197329 45.58105517 -39.47796419 31.17969526 -35.5625 18.6875 C-32.2527429 10.41310726 -27.08289981 3.34748487 -18.921875 -0.6796875 C-12.9089267 -2.56998562 -5.81257495 -2.56570691 0 0 Z " fill="#282827" transform="translate(474.3125,692.5)"/>
<path d="M0 0 C7.82005979 4.4309488 12.23488801 12.2010472 14.6875 20.66796875 C15.71923375 24.92217034 15.9341971 28.94897106 15.875 33.3125 C15.86267334 34.4255249 15.86267334 34.4255249 15.85009766 35.56103516 C15.62278376 46.81185093 13.809583 56.91791815 6.14453125 65.6953125 C0.24406195 70.97884265 -5.9646086 72.55381567 -13.671875 72.26953125 C-21.40345452 71.49860786 -25.63841509 68.5850754 -30.61328125 62.61328125 C-33.46548502 58.38240692 -35.01252752 53.88796623 -36.375 49 C-36.5493457 48.37770508 -36.72369141 47.75541016 -36.90332031 47.11425781 C-39.59394595 35.05379298 -38.08648863 20.30959955 -32.01953125 9.609375 C-24.50466982 -1.27004906 -12.41788306 -5.61537049 0 0 Z " fill="#282827" transform="translate(809.375,693)"/>
<path d="M0 0 C8.35623576 6.68849963 8.35623576 6.68849963 9.43359375 12.68359375 C9.5967981 17.62474607 9.35361653 21.40094987 7.296875 25.92578125 C-1.24140257 34.90191921 -8.95816568 38.50030558 -21.43896484 38.83178711 C-32.9039653 38.96241642 -42.35451589 38.19561906 -51.203125 30.11328125 C-55.38327764 25.36078497 -57.44742389 20.94164022 -57.203125 14.55078125 C-56.29218745 8.17421839 -53.20463663 4.10872772 -48.38671875 -0.01171875 C-34.86045338 -9.49987149 -13.50359203 -9.45809442 0 0 Z " fill="#FDD4AF" transform="translate(472.140625,787.51171875)"/>
<path d="M0 0 C4.09785404 3.13151612 6.56337594 6.76434657 8.203125 11.68359375 C8.80151096 17.56772232 8.15099603 20.93421495 4.75 25.796875 C-0.88072123 32.66464862 -7.14005316 35.80812306 -15.796875 37.68359375 C-28.06803685 38.65306548 -40.81706775 38.80669268 -50.796875 30.68359375 C-55.35861708 26.08373126 -57.8128032 21.8499867 -58.234375 15.37109375 C-58.06056886 9.21631155 -55.36072722 5.14712132 -51 0.95703125 C-36.30281068 -10.97708647 -15.38419884 -9.69978575 0 0 Z " fill="#FDD4AF" transform="translate(841.796875,788.31640625)"/>
<path d="M0 0 C2.0902436 0.00534962 4.18027073 0.00001905 6.27050781 -0.00634766 C15.79609461 -0.01052738 25.22079079 0.45845297 34.72363281 1.13037109 C34.72363281 10.37037109 34.72363281 19.61037109 34.72363281 29.13037109 C13.93363281 29.13037109 -6.85636719 29.13037109 -28.27636719 29.13037109 C-28.27636719 19.89037109 -28.27636719 10.65037109 -28.27636719 1.13037109 C-18.82690371 0.35217998 -9.4767985 -0.02869082 0 0 Z " fill="#BF9360" transform="translate(631.2763671875,263.86962890625)"/>
<path d="M0 0 C3.46307646 0.84330405 4.85979477 2.6802472 6.95703125 5.4765625 C7.60394163 6.77840282 8.22799581 8.09178324 8.83203125 9.4140625 C11.28839697 14.67486197 15.0999505 18.07912937 20.2890625 20.6171875 C26.90350721 22.74775534 34.56983795 22.44862139 40.95703125 19.7265625 C47.39472147 16.36622969 51.34176068 12.71664775 53.95703125 5.8515625 C55.5886102 1.9765625 55.5886102 1.9765625 57.95703125 0.4765625 C64.70703125 -0.2734375 64.70703125 -0.2734375 68.45703125 1.9765625 C70.58644479 5.52558507 70.62626675 8.5104616 69.95703125 12.4765625 C67.34608169 22.07309895 60.19532661 29.74684936 51.89453125 34.9140625 C50.26164832 35.79273274 48.61664343 36.64948604 46.95703125 37.4765625 C46.35890625 37.81558594 45.76078125 38.15460937 45.14453125 38.50390625 C36.86516357 42.51422497 24.51496063 41.73639342 15.95703125 38.8515625 C3.89329975 33.62394551 -3.7551478 26.11737887 -9.1953125 14.1875 C-10.55773135 9.83027105 -10.66408693 6.66703901 -8.54296875 2.6015625 C-5.67826967 0.16656828 -3.75198358 -0.26451832 0 0 Z " fill="#272827" transform="translate(602.04296875,769.5234375)"/>
<path d="M0 0 C8.91 0 17.82 0 27 0 C27.06915205 5.2658008 27.12879947 10.53000412 27.16479492 15.79589844 C27.17981184 17.58436443 27.20023158 19.37279403 27.22631836 21.16113281 C27.26301615 23.74293031 27.27979745 26.32423779 27.29296875 28.90625 C27.30845261 29.69616333 27.32393646 30.48607666 27.33988953 31.29992676 C27.34181318 37.75348348 26.22848296 43.36633832 21.9375 48.4375 C18.4385534 51.25923113 15.7141594 51.39397739 11.32421875 51.3515625 C7.34720698 50.74999769 5.71646835 48.91523432 3 46 C-2.15660347 37.37422502 -0.12236348 24.58831842 -0.0625 14.8125 C-0.05747088 13.36914219 -0.05291049 11.92578267 -0.04882812 10.48242188 C-0.03880455 6.98820292 -0.01921078 3.49422804 0 0 Z " fill="#D7AF81" transform="translate(618,344)"/>
<path d="M0 0 C8.71624869 0.36900907 16.68549452 1.30202781 25 4 C27.12924942 10.65390445 25.77556264 17.20382989 24.25 23.8125 C24.06808105 24.60422607 23.88616211 25.39595215 23.69873047 26.21166992 C19.7657324 42.76657165 19.7657324 42.76657165 12 48 C8.78690798 49.60654601 5.48527466 49.46917159 2 49 C-1.90278359 46.83178689 -3.93591193 44.22276106 -5.50537109 40.01928711 C-7.52215841 31.78589723 -5.28976299 23.1468521 -3.5625 15.0625 C-3.33240234 13.94037109 -3.10230469 12.81824219 -2.86523438 11.66210938 C-1.1860119 3.55803571 -1.1860119 3.55803571 0 0 Z " fill="#D8B082" transform="translate(685,349)"/>
<path d="M0 0 C4.35184271 11.82565955 8.60552661 31.41783102 3.61328125 43.30078125 C1.68830062 46.52151155 0.48107089 47.60757164 -3 49 C-7.61106608 49.51234068 -9.99106922 49.42685533 -14.25 47.625 C-20.54780583 41.61345807 -22.13877477 31.51504089 -24.25 23.3125 C-24.6521875 21.82266602 -24.6521875 21.82266602 -25.0625 20.30273438 C-26.42997613 15.05260281 -27.33389316 10.42576391 -27 5 C-18.23538223 1.75384527 -9.39164804 -0.41740658 0 0 Z " fill="#D9B183" transform="translate(578,349)"/>
<path d="M0 0 C5.44797376 1.72631267 10.7185049 3.82370554 16 6 C17.74954004 6.70946865 19.4994619 7.41799754 21.25 8.125 C22.013125 8.44082031 22.77625 8.75664063 23.5625 9.08203125 C26.08030774 10.06654689 26.08030774 10.06654689 29.0625 10.88671875 C34.99405804 12.60948745 39.3691228 14.07135678 43.0703125 19.20703125 C44.55782295 22.07580141 44.67060909 23.84813728 44 27 C42.49987532 29.5647293 41.10816535 31.89183465 39 34 C28.20910119 35.13588409 17.95235131 30.52662946 8.01977539 26.7565918 C5.97464263 25.99050133 3.91966633 25.25939602 1.859375 24.53515625 C0.48958333 24.04427083 -0.88020833 23.55338542 -2.25 23.0625 C-3.29027344 22.70381836 -3.29027344 22.70381836 -4.3515625 22.33789062 C-8.41978506 20.86101673 -11.36674656 19.48922417 -14 16 C-15.37370703 11.80381294 -15.47748378 8.12208689 -13.75 4.0625 C-9.78856077 -0.6063391 -5.74513061 -0.89095608 0 0 Z " fill="#D5AD7F" transform="translate(1037,709)"/>
<path d="M0 0 C2.37276312 0.65641649 4.70955928 1.38577799 7.05078125 2.14697266 C8.80705474 2.69980924 10.56357296 3.25186882 12.3203125 3.80322266 C13.21830566 4.08810547 14.11629883 4.37298828 15.04150391 4.66650391 C17.80892876 5.52449866 20.5867704 6.32818125 23.375 7.11572266 C24.27379883 7.37272949 25.17259766 7.62973633 26.09863281 7.89453125 C27.81834574 8.38474169 29.54028275 8.86723631 31.26464844 9.34082031 C35.8992193 10.68471252 39.26127035 12.07250802 42.80078125 15.52197266 C44.35554815 18.63150645 44.08722562 21.08464026 43.80078125 24.52197266 C40.72385817 30.06043419 40.72385817 30.06043419 37.80078125 31.52197266 C30.52823893 31.99767909 24.74783678 30.6466939 17.86328125 28.39697266 C16.86707764 28.07929932 15.87087402 27.76162598 14.84448242 27.43432617 C12.8106747 26.78365702 10.77850683 26.1278389 8.74804688 25.46679688 C5.98924548 24.58238987 3.22088368 23.74879559 0.44140625 22.93212891 C-1.1682015 22.44200723 -2.77759004 21.95116482 -4.38671875 21.45947266 C-5.12204834 21.25112793 -5.85737793 21.0427832 -6.61499023 20.828125 C-10.3683914 19.63957016 -12.13226569 18.60398214 -14.6484375 15.52197266 C-16.46917826 11.9997336 -16.99440797 10.41839985 -16.19921875 6.52197266 C-12.26851808 -0.57911066 -7.76111469 -1.68697408 0 0 Z " fill="#D4AD7F" transform="translate(193.19921875,638.47802734375)"/>
<path d="M0 0 C2.87029869 1.79393668 4.49131638 2.98263276 6 6 C6.70114489 13.12830636 6.70114489 13.12830636 3.6875 16.875 C-0.17111275 19.92599613 -3.2387502 21.47406824 -7.9375 22.8125 C-12.43761484 24.15455199 -16.74674548 25.64957755 -21.0625 27.5 C-39.18732903 35.23357963 -39.18732903 35.23357963 -47 34 C-50.60906934 31.08202904 -52.78377478 28.90278195 -53.3125 24.25 C-52.91102978 20.0747097 -51.61700608 18.26165195 -49 15 C-45.9609375 13.3125 -45.9609375 13.3125 -42.375 12 C-41.72982422 11.75854248 -41.08464844 11.51708496 -40.41992188 11.26831055 C-34.42127532 9.05734413 -28.34198923 7.04608192 -22.25537109 5.09179688 C-18.83745469 3.98929301 -15.53250368 2.83066798 -12.2578125 1.3515625 C-8.00282233 -0.41369721 -4.52911861 -0.78877908 0 0 Z " fill="#D3AC7E" transform="translate(236,709)"/>
<path d="M0 0 C2.625 2.125 2.625 2.125 3.625 4.125 C3.98298483 9.58426863 4.07264003 12.63128116 0.625 17.125 C-1.78125 18.42578125 -1.78125 18.42578125 -4.875 19.4375 C-6.70611328 20.04271484 -6.70611328 20.04271484 -8.57421875 20.66015625 C-16.1559197 23.00346875 -23.77119438 25.24297515 -31.39453125 27.4465332 C-33.1115625 27.94479614 -33.1115625 27.94479614 -34.86328125 28.453125 C-36.41849487 28.90026855 -36.41849487 28.90026855 -38.00512695 29.35644531 C-40.30559488 29.90409878 -40.30559488 29.90409878 -41.375 31.125 C-46.36535504 31.50887346 -49.37316167 31.21213243 -53.375 28.125 C-55.38971597 25.10292605 -55.71219034 24.20773301 -55.8125 20.75 C-55.87244141 19.62464844 -55.87244141 19.62464844 -55.93359375 18.4765625 C-55.06633471 14.8255839 -53.28037754 13.4485464 -50.375 11.125 C-47.61883646 9.82261743 -44.79243067 8.93346189 -41.875 8.0625 C-41.07908447 7.81137451 -40.28316895 7.56024902 -39.46313477 7.30151367 C-37.10477148 6.56092357 -34.74093838 5.84096063 -32.375 5.125 C-31.13621094 4.74085938 -29.89742187 4.35671875 -28.62109375 3.9609375 C-26.48559903 3.30037125 -24.34771501 2.64745772 -22.20703125 2.00390625 C-19.60705634 1.19701749 -17.05967789 0.29992562 -14.5 -0.625 C-9.07197266 -2.42111142 -5.14665323 -2.85925179 0 0 Z " fill="#D3AC7E" transform="translate(1082.375,639.875)"/>
<path d="M0 0 C1.06863281 0.01804687 2.13726562 0.03609375 3.23828125 0.0546875 C4.04652344 0.07789063 4.85476563 0.10109375 5.6875 0.125 C5.6875 0.455 5.6875 0.785 5.6875 1.125 C1.0675 1.455 -3.5525 1.785 -8.3125 2.125 C-8.3125 2.785 -8.3125 3.445 -8.3125 4.125 C-10.2925 4.455 -12.2725 4.785 -14.3125 5.125 C-10.31674314 0.49833416 -5.91004784 -0.12989116 0 0 Z " fill="#575755" transform="translate(464.3125,690.875)"/>
<path d="M0 0 C0.86625 0.3403125 0.86625 0.3403125 1.75 0.6875 C0.1 1.3475 -1.55 2.0075 -3.25 2.6875 C-3.25 3.3475 -3.25 4.0075 -3.25 4.6875 C-5.23 5.6775 -5.23 5.6775 -7.25 6.6875 C-6.87492618 3.96821483 -6.40781339 2.84531339 -4.4375 0.875 C-2.25 -0.3125 -2.25 -0.3125 0 0 Z " fill="#EBE9E7" transform="translate(743.25,601.3125)"/>
<path d="M0 0 C0.66 0 1.32 0 2 0 C2 0.66 2 1.32 2 2 C1.34 2 0.68 2 0 2 C-0.66 3.32 -1.32 4.64 -2 6 C-3.32 6 -4.64 6 -6 6 C-4 4 -2 2 0 0 Z " fill="#EBE9E6" transform="translate(796,558)"/>
<path d="M0 0 C1.32 0 2.64 0 4 0 C4 0.66 4 1.32 4 2 C1.69 3.32 -0.62 4.64 -3 6 C-1.125 1.125 -1.125 1.125 0 0 Z " fill="#ECEBE8" transform="translate(768,525)"/>
<path d="M0 0 C-1.36983503 3.16115776 -1.9890638 3.9927092 -5 6 C-5.99 5.67 -6.98 5.34 -8 5 C-2.25 0 -2.25 0 0 0 Z " fill="#E9E7E4" transform="translate(752,594)"/>
<path d="M0 0 C0.66 1.32 1.32 2.64 2 4 C0.35 5.65 -1.3 7.3 -3 9 C-3.66 8.67 -4.32 8.34 -5 8 C-4.360625 7.236875 -3.72125 6.47375 -3.0625 5.6875 C-0.85767219 3.11753287 -0.85767219 3.11753287 0 0 Z " fill="#E6E3DE" transform="translate(822,534)"/>
</svg>
