<?xml version="1.0" encoding="UTF-8"?>
<svg version="1.1" xmlns="http://www.w3.org/2000/svg" width="1254" height="1254">
<path d="M0 0 C413.82 0 827.64 0 1254 0 C1254 413.82 1254 827.64 1254 1254 C840.18 1254 426.36 1254 0 1254 C0 840.18 0 426.36 0 0 Z " fill="#111724" transform="translate(0,0)"/>
<path d="M0 0 C0.774077 -0.00701431 1.54815399 -0.01402863 2.34568787 -0.02125549 C4.85812164 -0.0388039 7.37031952 -0.0451167 9.8828125 -0.046875 C10.74127777 -0.04754974 11.59974304 -0.04822449 12.48422241 -0.04891968 C26.2158041 -0.03176742 39.47868813 0.71704532 53.0078125 3.203125 C53.99426758 3.37473145 54.98072266 3.54633789 55.99707031 3.72314453 C71.66112798 6.47307872 86.87390563 10.32687299 102.0078125 15.203125 C102.905 15.48994141 103.8021875 15.77675781 104.7265625 16.07226562 C138.51681833 27.07894455 170.3296871 45.03125797 198.0078125 67.203125 C198.93851563 67.94046875 199.86921875 68.6778125 200.828125 69.4375 C217.97727076 83.21544617 234.53890197 98.7800389 248.0078125 116.203125 C248.95387284 117.36325986 249.9033349 118.52062577 250.85546875 119.67578125 C272.92339526 146.55180348 289.85830074 177.6879342 302.0078125 210.203125 C302.27932129 210.91742676 302.55083008 211.63172852 302.83056641 212.36767578 C309.62257117 230.31887306 314.3280934 248.80872085 317.57421875 267.7109375 C317.98781047 270.08815839 318.43226488 272.45767626 318.8828125 274.828125 C321.33403514 288.2307314 321.78094213 301.60321356 322.0078125 315.203125 C322.03515228 316.57503588 322.06266411 317.94694335 322.09033203 319.31884766 C322.98438677 366.61728168 315.31541226 411.84369309 296.2578125 455.390625 C295.82025635 456.3916626 295.3827002 457.3927002 294.93188477 458.42407227 C280.41891005 491.34954209 261.26304031 520.59790972 237.0078125 547.203125 C235.46583221 548.932012 233.92416349 550.66117694 232.3828125 552.390625 C227.02061902 558.33829194 221.47946851 563.92726736 215.40234375 569.14453125 C213.59427632 570.69893832 211.80279942 572.27267255 210.01953125 573.85546875 C196.68847403 585.61248803 182.21407002 596.00260542 167.0078125 605.203125 C166.26257324 605.65510254 165.51733398 606.10708008 164.74951172 606.57275391 C147.70548267 616.8169576 129.83856516 625.96673802 110.91015625 632.203125 C107.93989882 633.17343796 107.93989882 633.17343796 104.93359375 634.61328125 C99.58588386 636.94371535 93.89684506 638.21090586 88.2578125 639.640625 C87.05568115 639.94701904 85.8535498 640.25341309 84.61499023 640.5690918 C59.62089833 646.87641753 35.94341425 649.62348086 10.1328125 649.578125 C9.01662537 649.57791351 7.90043823 649.57770203 6.75042725 649.57748413 C-11.13814144 649.54375383 -28.39926057 648.6794348 -45.9921875 645.203125 C-46.93433105 645.02120605 -47.87647461 644.83928711 -48.84716797 644.65185547 C-66.96316074 641.03253822 -84.95518349 635.32021046 -101.9921875 628.203125 C-102.69448486 627.91026611 -103.39678223 627.61740723 -104.12036133 627.31567383 C-139.12323282 612.50403785 -169.97853151 591.80836713 -197.9921875 566.203125 C-199.41337891 564.93855469 -199.41337891 564.93855469 -200.86328125 563.6484375 C-208.39372621 556.91962851 -215.29857708 549.76108228 -221.9921875 542.203125 C-222.44948242 541.69056152 -222.90677734 541.17799805 -223.37792969 540.64990234 C-236.59844783 525.74945515 -247.73651531 509.2466463 -257.9921875 492.203125 C-258.63534912 491.13771484 -258.63534912 491.13771484 -259.29150391 490.05078125 C-272.91186485 467.22086684 -282.26012655 442.53748245 -289.9921875 417.203125 C-290.26643555 416.3069043 -290.54068359 415.41068359 -290.82324219 414.48730469 C-293.79124499 404.57393502 -295.80279668 394.49890915 -297.6796875 384.328125 C-297.98386597 382.69883057 -297.98386597 382.69883057 -298.29418945 381.03662109 C-301.46678278 362.99191703 -302.37113578 344.93496755 -302.3046875 326.640625 C-302.30352936 325.64475372 -302.30237122 324.64888245 -302.30117798 323.62283325 C-302.25606892 303.92120648 -301.35159996 284.64614139 -296.73510742 265.4152832 C-296.03240729 262.37702306 -295.43623187 259.34268177 -294.88671875 256.2734375 C-292.41160558 242.55994181 -288.77135754 229.81251468 -283.90161133 216.76611328 C-282.69067413 213.35338343 -281.6808555 209.89525983 -280.70141602 206.40991211 C-279.76854243 203.50724625 -278.43522662 200.92144603 -277.01171875 198.234375 C-275.93832386 196.09581047 -275.0887603 193.94076234 -274.2421875 191.703125 C-271.32887404 184.29563032 -267.67204629 177.2515793 -263.9921875 170.203125 C-263.61819824 169.48560059 -263.24420898 168.76807617 -262.85888672 168.02880859 C-256.42804867 155.80776281 -249.02467018 144.4281057 -240.9921875 133.203125 C-240.35966064 132.31753906 -240.35966064 132.31753906 -239.71435547 131.4140625 C-225.30612189 111.38885495 -207.95096897 92.01737427 -188.9921875 76.203125 C-188.45384277 75.75098633 -187.91549805 75.29884766 -187.36083984 74.83300781 C-140.79696059 35.8533496 -80.39810169 4.68482822 -18.82617188 1.59765625 C-14.7618116 1.3750151 -14.7618116 1.3750151 -10.75561523 0.69824219 C-7.16869361 0.05558143 -3.63192698 0.0217995 0 0 Z " fill="#F2E8DB" transform="translate(617.9921875,347.796875)"/>
<path d="M0 0 C3.05791044 0.01606608 6.11449268 0.00005342 9.17236328 -0.01904297 C19.29473128 -0.0303038 29.22247227 0.4092858 39.26220703 1.75048828 C40.60845657 1.92954208 40.60845657 1.92954208 41.98190308 2.11221313 C50.07092548 3.31034773 57.48325185 5.30134527 63.16845703 11.57080078 C69.39599991 20.33658388 70.15859303 29.23544566 68.91455078 39.73095703 C67.34611669 47.27437815 63.40506063 53.06107592 57.13330078 57.38330078 C51.32480154 60.39857806 46.20387406 60.6475039 39.81689453 60.51611328 C35.54751953 60.45423828 35.54751953 60.45423828 31.19189453 60.39111328 C31.19189453 70.29111328 31.19189453 80.19111328 31.19189453 90.39111328 C33.58439453 90.45298828 35.97689453 90.51486328 38.44189453 90.57861328 C57.82653765 91.47586319 77.11952893 95.76843802 95.58837891 101.57324219 C98.38319097 102.45120734 101.18550363 103.30227242 103.98876953 104.15283203 C112.46514075 106.75421087 120.82522857 109.33053369 128.80908203 113.23486328 C131.31533859 114.45101401 133.85459521 115.48414204 136.44189453 116.51611328 C140.7026283 118.24633189 144.8093011 120.17197878 148.92626953 122.22314453 C149.95461914 122.73151855 150.98296875 123.23989258 152.04248047 123.76367188 C154.12541277 124.79867932 156.20178303 125.8470099 158.27099609 126.90917969 C159.71684082 127.62533447 159.71684082 127.62533447 161.19189453 128.35595703 C162.05814453 128.79544678 162.92439453 129.23493652 163.81689453 129.68774414 C166.1719423 130.63571114 166.1719423 130.63571114 168.38110352 129.63378906 C170.63647084 128.08601777 172.37664488 126.31867693 174.25439453 124.32861328 C178.43253944 120.0475584 182.86233697 116.29074938 187.53173828 112.55908203 C189.86249774 110.65956441 192.05779044 108.69156368 194.25439453 106.64111328 C227.00676978 77.32104734 274.52214378 50.05934449 319.49365234 52.12158203 C327.58207447 52.92954602 334.2939638 57.46426782 339.67236328 63.41845703 C352.46575468 80.02684432 355.51399141 101.14371333 358.19189453 121.39111328 C358.28978271 122.08906006 358.3876709 122.78700684 358.48852539 123.50610352 C363.64064802 165.90425808 357.74361684 213.01404604 344.19189453 253.39111328 C343.66909912 254.96022461 343.66909912 254.96022461 343.13574219 256.56103516 C331.58655798 290.99644983 331.58655798 290.99644983 329.19189453 293.39111328 C329.49467389 300.11648509 332.32269963 305.55092667 335.12939453 311.57861328 C339.38232181 320.96544635 343.18864301 330.42685774 346.62939453 340.14111328 C347.02956787 341.26928467 347.42974121 342.39745605 347.84204102 343.55981445 C351.49957966 354.02831441 354.9926109 364.52403775 357.25439453 375.39111328 C357.58705976 376.94594388 357.92039634 378.50063098 358.25439453 380.05517578 C358.41294922 380.79799805 358.57150391 381.54082031 358.73486328 382.30615234 C359.35586493 385.13914063 360.05952696 387.95045196 360.75439453 390.76611328 C362.29751303 397.34333965 363.25256107 403.9923308 364.19018555 410.67773438 C364.30676514 411.50354004 364.42334473 412.3293457 364.54345703 413.18017578 C364.64480957 413.91961426 364.74616211 414.65905273 364.85058594 415.42089844 C365.17647102 417.59426675 365.17647102 417.59426675 366.19189453 420.39111328 C368.63553231 436.55572548 368.55814932 453.02589509 368.50439453 469.32861328 C368.50190704 470.53755249 368.49941956 471.7464917 368.49685669 472.99206543 C368.38237826 509.03165761 364.40552721 543.92438659 353.78961182 578.44696045 C353.23847127 580.23961641 352.69691479 582.03521147 352.15625 583.83105469 C348.55050951 595.74895651 344.78004011 607.21798238 339.1796875 618.35888672 C337.58061709 621.64871917 336.12774662 625.00255134 334.64819336 628.34741211 C313.08055747 676.89845545 276.84344857 725.64151228 234.76611328 758.37548828 C232.35228651 760.26552563 230.03654102 762.24191582 227.72607422 764.25610352 C187.80024511 798.88901308 138.46794059 821.64701608 87.88818359 835.64404297 C86.11656389 836.13491188 84.34754603 836.63528889 82.58154297 837.14599609 C69.54237235 840.85429582 56.26631223 843.05061336 42.81689453 844.57861328 C42.05843231 844.66482941 41.29997009 844.75104553 40.51852417 844.83987427 C11.45153018 848.04252319 -17.86059036 847.40299179 -46.80810547 843.39111328 C-48.37407471 843.19026123 -48.37407471 843.19026123 -49.97167969 842.98535156 C-111.19112935 835.06531926 -172.06976147 807.44975837 -219.80810547 768.39111328 C-220.70400391 767.67310547 -221.59990234 766.95509766 -222.52294922 766.21533203 C-225.30700868 763.96651499 -228.05784533 761.68109475 -230.80810547 759.39111328 C-232.2525 758.22708984 -232.2525 758.22708984 -233.72607422 757.03955078 C-242.16710907 750.12906216 -249.89702821 742.51799916 -257.62060547 734.82861328 C-258.15631165 734.2980835 -258.69201782 733.76755371 -259.24395752 733.22094727 C-266.24040528 726.27781342 -272.65985399 719.11017237 -278.80810547 711.39111328 C-279.74290627 710.28930316 -280.68426971 709.19297533 -281.63623047 708.10595703 C-302.12044825 684.61518471 -318.42620801 657.46908257 -331.80810547 629.39111328 C-332.13133789 628.71419434 -332.45457031 628.03727539 -332.78759766 627.33984375 C-338.65647739 614.91592172 -343.33645349 602.1136084 -347.84326172 589.14208984 C-348.629867 586.8993094 -349.44096497 584.67046364 -350.27685547 582.44580078 C-354.49312231 570.79701227 -356.72572831 558.63294521 -359.17089844 546.51464844 C-359.67288865 544.05393475 -360.19784937 541.60266066 -360.74951172 539.15283203 C-365.4731783 516.91944848 -366.08841695 494.09332428 -366.05810547 471.45361328 C-366.05733002 470.48123718 -366.05655457 469.50886108 -366.05575562 468.50701904 C-366.01666858 451.61749233 -365.45358926 434.99296026 -362.93310547 418.26611328 C-362.66203979 416.43487915 -362.66203979 416.43487915 -362.38549805 414.56665039 C-361.11300885 406.108805 -359.74288828 397.72556229 -357.80810547 389.39111328 C-357.56688965 388.34310547 -357.32567383 387.29509766 -357.07714844 386.21533203 C-352.37053053 365.90342869 -346.8414027 346.46181549 -339.18310547 327.07861328 C-338.84480713 326.22066162 -338.50650879 325.36270996 -338.15795898 324.47875977 C-335.29193947 317.33426178 -332.04854243 310.41012972 -328.51464844 303.5715332 C-326.37473398 299.36862294 -326.37473398 299.36862294 -325.89013672 294.76611328 C-327.05421749 291.75436389 -328.25381804 288.78342938 -329.55810547 285.82861328 C-340.89061419 260.03224474 -347.68440122 233.99771946 -352.80810547 206.39111328 C-352.9953418 205.38790039 -353.18257813 204.3846875 -353.37548828 203.35107422 C-356.23512492 187.18718633 -357.18362054 171.22492178 -357.12060547 154.82861328 C-357.11911499 153.86610657 -357.11762451 152.90359985 -357.11608887 151.91192627 C-357.07435287 136.88790345 -356.49127951 122.21013749 -353.80810547 107.39111328 C-353.59130127 106.15385498 -353.59130127 106.15385498 -353.37011719 104.89160156 C-350.16430259 87.19394292 -344.99626183 70.28099273 -331.19091797 57.96142578 C-323.66379995 53.00093161 -317.13795045 51.72557352 -308.18310547 51.89111328 C-307.11914551 51.90464844 -306.05518555 51.91818359 -304.95898438 51.93212891 C-297.13414631 52.13663767 -290.2540876 53.02571855 -282.83886719 55.66796875 C-280.4983533 56.50141455 -278.14035861 57.27354006 -275.78076172 58.05126953 C-240.5150745 69.98545347 -209.35787883 90.62633517 -181.80810547 115.39111328 C-180.83873047 116.24962891 -179.86935547 117.10814453 -178.87060547 117.99267578 C-175.24585194 121.2182749 -171.75410185 124.42024732 -168.49560547 128.01611328 C-166.12706427 130.66823281 -166.12706427 130.66823281 -163.58544922 130.27392578 C-160.03883488 129.14659127 -156.91395758 127.45189222 -153.68310547 125.64111328 C-144.12650839 120.42958389 -134.5554347 116.21344032 -124.26123047 112.63720703 C-121.15228016 111.51531207 -118.14776987 110.27694073 -115.12060547 108.95361328 C-93.11302668 99.66734657 -69.30752531 95.0288819 -45.80810547 91.39111328 C-45.1295752 91.2821875 -44.45104492 91.17326172 -43.75195312 91.06103516 C-37.9686436 90.22164083 -32.83329255 90.39111328 -26.80810547 90.39111328 C-26.80810547 80.49111328 -26.80810547 70.59111328 -26.80810547 60.39111328 C-30.76810547 60.48392578 -30.76810547 60.48392578 -34.80810547 60.57861328 C-42.56203703 60.64237434 -47.72515233 59.85987564 -54.49560547 55.76611328 C-60.83631198 49.25403633 -63.82378613 40.94476571 -64.12060547 31.95361328 C-63.93675089 23.00602364 -60.52431728 16.10732509 -54.18310547 9.76611328 C-39.75606018 -1.26633311 -17.20273087 -0.10698557 0 0 Z M-21.80810547 144.39111328 C-24.05734902 144.49283786 -26.3075782 144.57350087 -28.55810547 144.64111328 C-45.1800499 145.44018803 -61.87837557 149.76744168 -77.80810547 154.39111328 C-79.28702291 154.79047487 -80.76620616 155.18885297 -82.24560547 155.58642578 C-117.00346573 165.18371897 -150.11516442 182.67615967 -178.80810547 204.39111328 C-179.39140625 204.83165039 -179.97470703 205.2721875 -180.57568359 205.72607422 C-187.81022694 211.22417107 -194.7107485 216.95167127 -201.37060547 223.13720703 C-203.43654733 225.04754109 -205.53761126 226.88441298 -207.68310547 228.70361328 C-216.35224836 236.24666133 -224.40718704 244.61063769 -231.80810547 253.39111328 C-232.60216797 254.28443359 -233.39623047 255.17775391 -234.21435547 256.09814453 C-241.69218235 264.58352462 -248.02710807 273.70387906 -254.28417969 283.11328125 C-255.65969561 285.16928311 -257.05702118 287.20720348 -258.46826172 289.23876953 C-269.9807296 305.91991678 -279.61775575 324.12190081 -286.88623047 343.04736328 C-287.63158767 344.94233922 -288.44079318 346.81212312 -289.26904297 348.67236328 C-290.91527846 352.49310386 -292.06539445 356.38919662 -293.18310547 360.39111328 C-294.79736206 366.05929179 -296.55254632 371.6402214 -298.49560547 377.20361328 C-300.32330704 382.58962135 -301.59482735 387.78009608 -302.35107422 393.41455078 C-302.97133575 397.4542028 -303.9007659 401.40765133 -304.80810547 405.39111328 C-305.49643604 408.47011883 -306.15814419 411.55379719 -306.80810547 414.64111328 C-306.97310547 415.37845703 -307.13810547 416.11580078 -307.30810547 416.87548828 C-310.69321753 433.16634006 -311.14112739 449.89523966 -311.06884766 466.47509766 C-311.05810949 469.39002256 -311.06883546 472.30433154 -311.08154297 475.21923828 C-311.0960746 492.84064983 -309.73133302 510.18433782 -306.49560547 527.51611328 C-306.16532349 529.305896 -306.16532349 529.305896 -305.82836914 531.13183594 C-300.66319242 558.44480395 -292.04241832 585.41600729 -279.80810547 610.39111328 C-279.47069336 611.09333008 -279.13328125 611.79554688 -278.78564453 612.51904297 C-271.80777234 627.0398248 -264.14968134 641.24262561 -254.80810547 654.39111328 C-254.31181641 655.09107422 -253.81552734 655.79103516 -253.30419922 656.51220703 C-245.35624679 667.65437202 -237.02332553 678.27228531 -227.80810547 688.39111328 C-227.20321289 689.05771973 -226.59832031 689.72432617 -225.97509766 690.41113281 C-193.11142423 726.4696502 -151.78243762 756.41627509 -105.80810547 773.39111328 C-104.93186523 773.71563477 -104.055625 774.04015625 -103.15283203 774.37451172 C-86.58405295 780.44878012 -70.03773468 785.35364427 -52.68310547 788.57861328 C-51.849646 788.73362305 -51.01618652 788.88863281 -50.1574707 789.04833984 C-47.37940951 789.53769227 -44.59783048 789.97315528 -41.80810547 790.39111328 C-40.62869385 790.57206543 -39.44928223 790.75301758 -38.23413086 790.93945312 C-26.45157695 792.60835841 -14.71851893 792.69720351 -2.8347168 792.65185547 C0.48879376 792.64116347 3.81175995 792.65179547 7.13525391 792.66455078 C25.02876679 792.67809275 42.44455647 791.65127951 59.94189453 787.70361328 C61.11365234 787.44523682 62.28541016 787.18686035 63.49267578 786.9206543 C71.45836623 785.11988838 79.34398484 783.0869732 87.19189453 780.82861328 C88.5952002 780.42606323 88.5952002 780.42606323 90.02685547 780.01538086 C96.96214871 777.9413731 103.5516352 775.26039416 110.19189453 772.39111328 C111.17158203 771.97756592 112.15126953 771.56401855 113.16064453 771.13793945 C146.95397758 756.85636556 177.92642612 738.06813561 205.19189453 713.39111328 C205.82691895 712.81780273 206.46194336 712.24449219 207.11621094 711.65380859 C220.8651551 699.16940504 233.62565565 686.02815222 244.82226562 671.19335938 C246.23538218 669.33388942 247.67437192 667.49675531 249.11767578 665.66064453 C256.49741145 656.17773224 262.79898365 646.23705317 268.78662109 635.82568359 C270.08729373 633.57232927 271.41350887 631.33632718 272.74658203 629.10205078 C302.73569787 577.96478168 314.41470768 519.04790707 313.23223877 460.41558838 C313.19371001 458.48221413 313.16116024 456.54872349 313.12890625 454.61523438 C312.86965578 440.62915148 311.88134799 427.12033942 309.19189453 413.39111328 C308.93666016 412.03566406 308.93666016 412.03566406 308.67626953 410.65283203 C298.61700332 357.55427683 277.43137634 306.54772439 243.19189453 264.39111328 C242.40556641 263.39466797 241.61923828 262.39822266 240.80908203 261.37158203 C226.90931747 243.95951137 210.86508971 226.95865297 193.19189453 213.39111328 C191.89197819 212.34248443 190.59396104 211.29149894 189.29736328 210.23876953 C157.16696774 184.3716019 119.7472266 165.83403968 80.19189453 154.39111328 C79.38445801 154.15553711 78.57702148 153.91996094 77.74511719 153.67724609 C68.6288526 151.05227116 59.45565417 148.93920666 50.12939453 147.20361328 C48.89189453 146.97121948 48.89189453 146.97121948 47.62939453 146.73413086 C33.07020138 144.15851088 18.64713471 143.07299293 3.87329102 143.18530273 C1.33551274 143.20393547 -1.20190548 143.20580887 -3.73974609 143.20556641 C-5.37321278 143.21047087 -7.00667703 143.21629445 -8.64013672 143.22314453 C-9.38906693 143.22425735 -10.13799713 143.22537018 -10.90962219 143.22651672 C-14.67439601 143.26071617 -18.14034035 143.55423138 -21.80810547 144.39111328 Z " fill="#344064" transform="translate(626.80810546875,204.60888671875)"/>
<path d="M0 0 C6.10296608 2.71110235 10.98411834 7.59787613 13.88152122 13.61484051 C14.95738004 16.83157874 15.0704834 19.44315195 15.08706665 22.83442688 C15.09823013 24.13707993 15.10939362 25.43973297 15.12089539 26.78186035 C15.12326014 28.21826143 15.12543582 29.65466283 15.12744141 31.09106445 C15.13674312 32.60902946 15.14691216 34.12698937 15.15788269 35.64494324 C15.1851694 39.76020757 15.20032815 43.87543769 15.21331072 47.99076867 C15.22894706 52.29362423 15.25573569 56.59641 15.28134155 60.8992157 C15.32812041 69.0446954 15.36486885 77.19018825 15.39801443 85.33573359 C15.43624211 94.61020231 15.48565059 103.88460092 15.53599858 113.15901053 C15.63930516 132.23486195 15.72856972 151.31075617 15.80859375 170.38671875 C16.25596893 170.02236725 16.70334412 169.65801575 17.16427612 169.28262329 C19.23016974 167.60063294 21.2967218 165.91945344 23.36328125 164.23828125 C24.06670654 163.66537354 24.77013184 163.09246582 25.49487305 162.50219727 C32.76268353 156.59160327 40.13336178 150.81664267 47.51757812 145.05273438 C54.3580856 139.70980664 61.14842462 134.31495997 67.87109375 128.82421875 C73.66231938 124.09423418 79.53371427 119.50205175 85.48046875 114.96875 C89.2356383 112.08024473 92.89445103 109.07676162 96.55859375 106.07421875 C102.03914547 101.58521639 107.59617375 97.22288451 113.24609375 92.94921875 C119.15464188 88.47860064 124.92410504 83.87388524 130.62109375 79.13671875 C151.32677647 61.93609551 151.32677647 61.93609551 164.28515625 62.04296875 C170.66921243 62.6658035 174.46315593 65.71457629 178.68359375 70.32421875 C182.59801615 75.9655922 183.86210994 81.61731686 182.80859375 88.38671875 C178.94234645 99.42241493 168.42173503 105.80188643 159.51171875 112.56640625 C155.35544177 115.72310087 151.23808716 118.92905159 147.12109375 122.13671875 C145.57553219 123.33985834 144.02995916 124.54298319 142.484375 125.74609375 C141.7104541 126.34873047 140.9365332 126.95136719 140.13916016 127.57226562 C136.36342107 130.51185214 132.58591631 133.44916747 128.80859375 136.38671875 C128.06939697 136.96172119 127.3302002 137.53672363 126.56860352 138.12915039 C122.76923477 141.08458234 118.96919057 144.03913923 115.16796875 146.9921875 C108.3692999 152.27493694 101.57393977 157.56133087 94.80859375 162.88671875 C84.27404254 171.17827111 73.69547867 179.41432625 63.05859375 187.57421875 C58.47765354 191.09265952 53.91606504 194.63442946 49.37109375 198.19921875 C48.80358398 198.64354248 48.23607422 199.08786621 47.65136719 199.5456543 C46.56363748 200.40068961 45.47985353 201.26077219 44.40039062 202.1262207 C43.32391188 202.97865319 42.23063534 203.81022564 41.12304688 204.62182617 C37.37709132 207.4690454 36.00825496 209.46473186 35.18359375 214.07421875 C32.45364038 226.81920106 27.54259457 236.84489147 16.43359375 244.32421875 C5.59114024 250.61313843 -5.96374426 252.24393173 -18.27734375 249.765625 C-28.85734228 246.35516702 -37.2498413 239.8719071 -42.75390625 230.2265625 C-48.34492319 219.18126546 -50.28231428 208.32162898 -47.06640625 196.07421875 C-43.89246898 187.17243189 -37.95489857 176.76846491 -29.19140625 172.38671875 C-29.18920641 171.19180691 -29.18920641 171.19180691 -29.18696213 169.97275543 C-29.14988537 150.57559403 -29.0908591 131.17861259 -29.00750351 111.78159332 C-28.96772051 102.40126769 -28.93532426 93.02102586 -28.92041016 83.640625 C-28.90738981 75.46317646 -28.88041537 67.28591237 -28.83679318 59.10856771 C-28.81418695 54.78003181 -28.79849506 50.45172334 -28.7995224 46.12312317 C-28.80026951 42.04527302 -28.78229852 37.96792546 -28.75023842 33.89020538 C-28.74174998 32.39713586 -28.73998234 30.90400989 -28.74560356 29.41092682 C-28.77686038 19.82915409 -28.26656283 13.0888225 -21.75390625 5.57421875 C-15.09061108 -0.11396006 -8.6692634 -2.42615749 0 0 Z " fill="#181C24" transform="translate(634.19140625,448.61328125)"/>
<path d="M0 0 C10.84401967 10.05055482 12.97447812 21.8951721 13.78491211 36.33886719 C13.92664469 40.55931299 13.94851521 44.77750356 13.9375 49 C13.93728851 49.7555719 13.93707703 50.5111438 13.93685913 51.28961182 C13.85532951 80.76623958 9.36528118 114.86276419 -4.4375 141.375 C-5.0975 141.375 -5.7575 141.375 -6.4375 141.375 C-8.32568435 139.01401187 -10.1106496 136.63874125 -11.875 134.1875 C-16.63579274 127.70035296 -21.59942133 121.49084538 -26.8515625 115.3984375 C-29.29665949 112.53966852 -31.65325425 109.62710783 -34 106.6875 C-37.76671393 102.05154439 -41.84022019 97.86757999 -46.11328125 93.69921875 C-48.11200864 91.70049136 -49.94021962 89.66726786 -51.75 87.5 C-56.3327108 82.14990131 -61.62422547 77.52734608 -66.84472656 72.81494141 C-68.2855262 71.5123914 -69.71751712 70.20011397 -71.1484375 68.88671875 C-76.1062331 64.35901582 -81.18640637 60.17311025 -86.6015625 56.19921875 C-87.20742188 55.59722656 -87.81328125 54.99523437 -88.4375 54.375 C-88.4375 50.375 -88.4375 50.375 -86.82373047 48.25952148 C-85.7005542 47.13912476 -85.7005542 47.13912476 -84.5546875 45.99609375 C-83.30884888 44.74578369 -83.30884888 44.74578369 -82.0378418 43.47021484 C-81.138479 42.59316895 -80.23911621 41.71612305 -79.3125 40.8125 C-78.39831299 39.91225098 -77.48412598 39.01200195 -76.54223633 38.08447266 C-69.5463265 31.27714341 -62.40532207 25.00651407 -54.4375 19.375 C-53.84694824 18.9507373 -53.25639648 18.52647461 -52.64794922 18.08935547 C-16.41144059 -7.75813555 -16.41144059 -7.75813555 0 0 Z " fill="#6C75A6" transform="translate(930.4375,316.625)"/>
<path d="M0 0 C12.09192365 4.56663074 23.50913115 10.34783205 33.9375 18 C34.99453125 18.77214844 36.0515625 19.54429687 37.140625 20.33984375 C49.80147053 29.75648866 60.88196115 40.78397752 71.9375 52 C70.36158384 56.32865284 67.01203381 58.73507434 63.5625 61.5625 C52.96519001 70.33648529 42.99604769 79.75458609 33.27270508 89.47949219 C31.74512584 91.00486713 30.20966418 92.52200672 28.67382812 94.0390625 C22.30924842 100.36795345 16.53377017 106.97110171 10.9375 114 C9.97872119 115.13646463 9.01377191 116.26779366 8.0390625 117.390625 C2.48484848 123.80337683 -2.66892587 130.37319904 -7.53466797 137.32714844 C-8.66479513 138.9183204 -9.85812389 140.46426115 -11.0625 142 C-11.7225 142 -12.3825 142 -13.0625 142 C-19.61324683 124.75356477 -24.30112044 107.04371935 -28.0625 89 C-28.27777344 88.06027344 -28.49304688 87.12054688 -28.71484375 86.15234375 C-31.34634025 74.33942152 -31.29309934 61.9822286 -31.35766602 49.92407227 C-31.36918113 48.43829827 -31.38962596 46.95256549 -31.41918945 45.46704102 C-31.67855832 32.32037225 -31.36937515 15.32023119 -22.0625 5 C-15.48115323 -1.41884438 -8.86874133 -2.70219462 0 0 Z " fill="#6C75A6" transform="translate(343.0625,316)"/>
<path d="M0 0 C5.95307323 2.6445159 10.89056218 7.55065562 13.80859375 13.38671875 C13.90281224 15.46457002 13.93049643 17.54553315 13.92884827 19.6255188 C13.92970269 20.27242892 13.93055712 20.91933904 13.93143743 21.5858525 C13.93309037 23.76315471 13.92757391 25.94038062 13.92211914 28.11767578 C13.9218372 29.67460122 13.92199513 31.23152679 13.92256165 32.78845215 C13.92284936 37.02374741 13.91695677 41.25901453 13.90998769 45.49430323 C13.90374988 49.91725174 13.90315001 54.34020084 13.90196228 58.76315308 C13.89885023 67.14251058 13.89063853 75.52185508 13.88061279 83.90120685 C13.86944775 93.43915946 13.86394022 102.97711268 13.85891736 112.5150702 C13.84845582 132.13896031 13.8308588 151.76283871 13.80859375 171.38671875 C12.99418823 171.10413208 12.17978271 170.82154541 11.34069824 170.53039551 C9.73055847 169.98071106 9.73055847 169.98071106 8.08789062 169.41992188 C6.49503235 168.87229187 6.49503235 168.87229187 4.86999512 168.31359863 C0.92431155 167.11899058 -2.59722943 166.79019592 -6.69140625 166.88671875 C-7.34753906 166.87125 -8.00367188 166.85578125 -8.6796875 166.83984375 C-13.27380238 166.87498038 -17.12782671 167.92682643 -21.47070312 169.41992188 C-22.54412964 169.78637817 -23.61755615 170.15283447 -24.72351074 170.53039551 C-25.94511902 170.95427551 -25.94511902 170.95427551 -27.19140625 171.38671875 C-27.33170136 150.94160802 -27.43743846 130.49659527 -27.50227928 110.05110264 C-27.53318917 100.5574234 -27.57531467 91.06404364 -27.64404297 81.57055664 C-27.70393302 73.29394305 -27.74257624 65.01754639 -27.75593722 56.74072212 C-27.76374482 52.35995652 -27.78203381 47.97981139 -27.82578659 43.59924507 C-27.86667997 39.47130556 -27.87904197 35.34423879 -27.87005234 31.21611595 C-27.87169556 29.70565667 -27.88353162 28.19516653 -27.9066391 26.68488312 C-28.02140576 18.7930731 -27.79553533 12.55455114 -22.84617043 6.05378628 C-20.21351349 3.40155525 -17.58209077 1.95165007 -14.19140625 0.38671875 C-9.96023605 -1.72886635 -4.46886949 -1.25064618 0 0 Z " fill="#171B23" transform="translate(634.19140625,448.61328125)"/>
<path d="M0 0 C0.69140625 2.30078125 0.69140625 2.30078125 1 5 C-0.22265625 6.66796875 -0.22265625 6.66796875 -2.0625 8.1875 C-10.63389814 16.11006721 -15.72229033 27.23070692 -16.34765625 38.859375 C-16.59373415 47.54275755 -16.61456271 55.95137858 -13 64 C-12.67128906 64.81210937 -12.34257812 65.62421875 -12.00390625 66.4609375 C-7.41275272 76.78706136 0.24606286 84.46115712 10 90 C10.680625 90.38929688 11.36125 90.77859375 12.0625 91.1796875 C19.76924697 95.30400131 27.38396798 96.30735827 36 96.625 C36.87011719 96.66367187 37.74023438 96.70234375 38.63671875 96.7421875 C40.75750486 96.83540887 42.87872185 96.91874136 45 97 C45.5949707 98.86572266 45.5949707 98.86572266 46 101 C38.58412432 111.48517127 24.61780236 118.81792634 12.296875 121.61328125 C-6.55960329 123.82511934 -22.57873216 121.86251372 -38 110 C-50.29254606 99.77758464 -59.54989876 84.08766583 -61.20898438 67.96972656 C-62.06012892 49.30792969 -57.49267163 33.21795322 -45.125 19 C-32.76788096 6.24487559 -17.87475444 -0.93349781 0 0 Z " fill="#EFDAAB" transform="translate(161,329)"/>
<path d="M0 0 C0.33 0 0.66 0 1 0 C1.33 50.82 1.66 101.64 2 154 C7.445 152.02 7.445 152.02 13 150 C16.00612843 149.63755898 18.53170734 149.43136896 21.5 149.5 C22.50353516 149.47679687 22.50353516 149.47679687 23.52734375 149.453125 C30.34168731 149.50465123 33.9818977 151.4479628 41 154 C41.495 77.77 41.495 77.77 42 0 C42.33 0 42.66 0 43 0 C42.9959358 0.7956861 42.9918716 1.5913722 42.98768425 2.41117001 C42.89213655 21.79200796 42.85195499 41.17224157 42.87302971 60.55331326 C42.88189307 69.92604255 42.87217206 79.29805799 42.81835938 88.6706543 C42.77149098 96.84203616 42.75983979 105.01258894 42.7900821 113.18406254 C42.80487002 117.50925916 42.80229198 121.83284146 42.75750351 126.15786552 C42.71585019 130.23396196 42.72149664 134.30732913 42.76252174 138.38340569 C42.76935747 139.87448831 42.75930599 141.36576509 42.73056984 142.85658646 C42.51742209 151.34833144 42.51742209 151.34833144 46.18732071 158.78550911 C48.79004687 161.18612394 48.79004687 161.18612394 51.51994514 163.12506199 C57.56209705 167.69296913 60.93541671 174.85439681 63 182 C63.23976563 182.75925781 63.47953125 183.51851562 63.7265625 184.30078125 C65.62544431 191.47306373 64.29205043 197.05941356 62 204 C61.73058594 204.86882812 61.46117187 205.73765625 61.18359375 206.6328125 C57.21947152 217.97411288 49.60753518 225.61394546 39 231 C29.49108692 235.40081928 17.12410409 235.70306006 7.1875 232.5 C-5.64198543 226.96306418 -13.0123427 218.42753771 -18.4375 205.75 C-22.1152878 194.66907899 -20.83379421 182.79896455 -15.74609375 172.44921875 C-12.27774707 166.22131559 -7.54600052 159.27300026 -1 156 C-0.67 104.52 -0.34 53.04 0 0 Z " fill="#384467" transform="translate(606,465)"/>
<path d="M0 0 C6.84604266 3.83727232 10.6614549 8.94099794 13.83984375 16.03125 C14.16082031 16.72347656 14.48179687 17.41570313 14.8125 18.12890625 C19.18339953 29.65588316 18.37908716 45.71261709 13.83984375 57.03125 C13.57300781 57.753125 13.30617188 58.475 13.03125 59.21875 C9.78283463 66.84169807 3.37310641 71.8816463 -4.16015625 75.03125 C-12.60226321 76.24128533 -20.01897682 75.88544926 -27.078125 70.8515625 C-35.12148521 63.81928134 -38.4809657 54.44546064 -40.16015625 44.03125 C-40.93922384 30.37039042 -39.60267034 16.56070327 -30.234375 5.82421875 C-21.69870145 -2.04848986 -10.90635325 -4.81753027 0 0 Z " fill="#191D25" transform="translate(808.16015625,699.96875)"/>
<path d="M0 0 C0.87785156 0.47566406 0.87785156 0.47566406 1.7734375 0.9609375 C9.09744356 5.47047835 13.36779568 13.75856944 15.53125 21.91015625 C17.71035779 36.27410842 16.78802388 51.38051898 8.73828125 63.8046875 C4.69407322 68.91220416 -0.55247864 72.73578013 -7 74 C-15.64624018 74.73273222 -22.01755592 73.73304986 -29.1875 68.8125 C-38.14859253 59.85140747 -41.36357602 48.34091798 -41.4375 35.875 C-41.34510673 28.90549217 -40.55467869 22.54085838 -38 16 C-37.7215625 15.27554688 -37.443125 14.55109375 -37.15625 13.8046875 C-34.14313767 6.97323456 -28.78532429 1.21410098 -22 -2 C-14.60617246 -4.32377437 -6.74352523 -3.68985343 0 0 Z " fill="#191D25" transform="translate(467,701)"/>
<path d="M0 0 C5.00594654 3.9370235 8.28915195 8.24411352 9.234375 14.59765625 C9.59509469 21.48339428 8.84148512 26.22945858 4.5546875 31.7109375 C-2.62267005 39.28439646 -11.40246051 42.10697378 -21.66015625 42.81640625 C-33.0594666 43.04632865 -41.89252568 41.78947383 -50.77734375 34.265625 C-55.85943682 29.27326391 -57.90423658 25.83950029 -58.58984375 18.640625 C-58.23473091 11.2826869 -55.55933635 6.08557195 -50.16796875 1.11328125 C-36.14632949 -9.90772721 -14.5904134 -9.36668515 0 0 Z " fill="#878EB8" transform="translate(840.21484375,796.421875)"/>
<path d="M0 0 C4.0255169 3.22322857 6.93629894 7.19291038 9.234375 11.7890625 C9.93164157 19.21895213 9.84672147 25.68488884 5.234375 31.7890625 C-1.19886985 39.12671578 -10.56967662 42.348044 -20.11328125 43.02734375 C-31.35693446 43.25198035 -41.20795528 41.70986196 -50.14453125 34.37109375 C-54.93645524 29.6946378 -56.91844572 24.84108552 -57.203125 18.1640625 C-57.12313404 11.54081069 -55.3440156 7.53702312 -50.765625 2.7890625 C-36.81738064 -9.12179785 -15.33417394 -9.91349462 0 0 Z " fill="#868DB8" transform="translate(463.765625,796.2109375)"/>
<path d="M0 0 C3.50468664 3.04354366 4.76655022 6.60663757 6.09375 10.9375 C8.87351853 17.26386976 13.62986736 19.98743435 19.640625 22.82421875 C26.66970491 25.28439672 33.8688669 25.1696168 40.8125 22.4375 C48.7823294 18.23282898 53.09521868 13.72860581 56.09375 5.25 C57.43864534 1.9109495 58.73684876 0.52280391 62 -1 C66.63307817 -1.38193834 69.9102659 -0.87710305 73.5625 2.0625 C75.45985162 5.93969679 75.89296657 8.83740199 75 13 C69.90386434 26.65169188 61.4004754 35.10565863 48.41015625 41.21875 C36.7246552 46.0233613 23.79493653 46.39413457 12.00390625 41.84375 C1.6967488 37.11690072 -6.83183269 30.21028176 -12 20 C-12.598125 18.845 -13.19625 17.69 -13.8125 16.5 C-15.28330487 12.16499617 -15.51475771 9.55928257 -15 5 C-10.90262683 -1.41921797 -7.06857233 -1.80501043 0 0 Z " fill="#1A1E25" transform="translate(598,782)"/>
<path d="M0 0 C7.07499509 7.07499509 1 19.99444599 1 30 C-18.14 30 -37.28 30 -57 30 C-57 20.43 -57 10.86 -57 1 C-62.61 1 -68.22 1 -74 1 C-74 0.67 -74 0.34 -74 0 C-17.06032936 -1.98546936 -17.06032936 -1.98546936 0 0 Z " fill="#222C49" transform="translate(657,264)"/>
<path d="M0 0 C3.61932815 2.61823738 4.82190418 4.02047301 5.625 8.4375 C4.86941979 12.7443072 3.20013557 15.15149373 0 18 C-2.86432574 19.67414924 -5.85717153 20.86112677 -8.94921875 22.05078125 C-9.80304642 22.39505661 -10.65687408 22.73933197 -11.53657532 23.09403992 C-14.24741932 24.18302469 -16.96691679 25.24811246 -19.6875 26.3125 C-21.52732701 27.04593689 -23.36652755 27.78094735 -25.20507812 28.51757812 C-29.2351638 30.13074285 -33.27098572 31.72850596 -37.31254578 33.31269836 C-39.07353113 34.00477074 -39.07353113 34.00477074 -41 35 C-44.01107177 35.34553283 -46.09312777 35.57248153 -49 35 C-52.09459236 32.42117303 -53.55423234 30.87441649 -54.4765625 26.99609375 C-54.72889731 23.49660835 -54.16530552 21.26326435 -52.3125 18.3125 C-48.73345978 15.31839987 -44.27642065 14.01156021 -39.94140625 12.453125 C-35.32510369 10.78834629 -30.8265191 8.85907383 -26.3125 6.9375 C-24.67840023 6.2499648 -23.04428607 5.56246379 -21.41015625 4.875 C-18.86124976 3.79837635 -16.33185317 2.69904769 -13.80859375 1.5625 C-8.83830235 -0.62291057 -5.39969096 -1.79989699 0 0 Z " fill="#666FA1" transform="translate(234,739)"/>
<path d="M0 0 C2.90014648 1.09716797 2.90014648 1.09716797 5.93359375 2.6171875 C10.72875148 4.93744708 15.52682465 7.09261891 20.47265625 9.0703125 C21.40783585 9.44793732 21.40783585 9.44793732 22.36190796 9.83319092 C24.91260482 10.86274179 27.46471763 11.88832972 30.0222168 12.90087891 C31.92617695 13.65655848 33.82462201 14.42489177 35.72265625 15.1953125 C37.38953491 15.86071045 37.38953491 15.86071045 39.09008789 16.53955078 C42.06163267 18.03093268 43.87699071 19.4597172 46 22 C46.73319402 25.06216325 46.57904219 27.91177501 46 31 C44.12379387 33.50160818 42.76108697 34.61945652 40 36 C32.85613788 36.9318081 27.41877145 33.85199311 21 31 C18.1737722 29.81589146 15.33645361 28.65935039 12.5 27.5 C11.04814174 26.8985228 9.59631837 26.29696139 8.14453125 25.6953125 C5.56911537 24.632857 2.98959224 23.61331422 0.38671875 22.6171875 C-0.66902344 22.20726562 -1.72476562 21.79734375 -2.8125 21.375 C-3.72644531 21.03210938 -4.64039063 20.68921875 -5.58203125 20.3359375 C-8.61305598 18.6612841 -10.11620362 16.89220674 -12 14 C-12.82352972 10.87700419 -12.74942383 8.13963165 -12 5 C-8.94866624 0.47524823 -5.24526979 -0.47253222 0 0 Z " fill="#646E9F" transform="translate(1030,738)"/>
<path d="M0 0 C4.27876075 2.45632562 4.27876075 2.45632562 6 5 C6.80664033 8.16363193 6.9590334 10.87108655 6 14 C1.74297775 20.23591014 -5.16355011 21.22710472 -12.125 23.125 C-13.29804687 23.45886719 -14.47109375 23.79273438 -15.6796875 24.13671875 C-19.11484602 25.11001367 -22.55659135 26.05637964 -26 27 C-27.03809814 27.29422852 -28.07619629 27.58845703 -29.14575195 27.89160156 C-30.10698975 28.16198242 -31.06822754 28.43236328 -32.05859375 28.7109375 C-33.31627563 29.06744385 -33.31627563 29.06744385 -34.59936523 29.43115234 C-38.42745461 30.33824563 -42.12504541 30.83608979 -46 30 C-48.71195062 27.88335562 -49.70009046 26.43033781 -50.40625 23.0625 C-50.70365599 19.13674095 -50.51639535 17.65805244 -47.9921875 14.44140625 C-44.33926773 11.46089077 -41.02685602 10.27685403 -36.5625 8.9375 C-35.77061279 8.68709961 -34.97872559 8.43669922 -34.1628418 8.17871094 C-31.78077023 7.43250253 -29.39277176 6.71107855 -27 6 C-25.96456055 5.6918335 -25.96456055 5.6918335 -24.90820312 5.37744141 C-20.95002344 4.20995634 -16.97788682 3.09803651 -13 2 C-11.77796875 1.64292969 -10.5559375 1.28585937 -9.296875 0.91796875 C-5.8621577 -0.03838026 -3.52999065 -0.52574329 0 0 Z " fill="#646E9F" transform="translate(1070,663)"/>
<path d="M0 0 C0.90741943 0.26804443 1.81483887 0.53608887 2.74975586 0.81225586 C4.5945488 1.35907108 6.43839593 1.90908803 8.28125 2.46240234 C10.75384011 3.19554349 13.2332382 3.89422653 15.71875 4.58203125 C17.14605524 4.9914146 18.57315225 5.40152494 20 5.8125 C21.87365234 6.34037109 21.87365234 6.34037109 23.78515625 6.87890625 C27.42047076 8.46006535 28.87356524 9.89421366 30.9375 13.25 C31.97347263 17.2720114 31.27027916 20.52393638 29.5625 24.25 C26.17870361 26.82813059 24.1893444 26.95369927 20.00390625 26.734375 C15.00309805 25.94443842 10.30788069 24.3605831 5.52734375 22.74609375 C2.17093627 21.62084569 -1.20259744 20.64218663 -4.62109375 19.72265625 C-5.5649292 19.46693848 -6.50876465 19.2112207 -7.48120117 18.94775391 C-9.33686665 18.44947484 -11.19506568 17.96051639 -13.0559082 17.48193359 C-17.71740127 16.21121772 -21.04564155 15.28058777 -24.0625 11.25 C-25.61274464 8.14951072 -25.35242015 5.67105782 -25.0625 2.25 C-18.86520811 -7.25251424 -9.31374543 -2.78864547 0 0 Z " fill="#646E9F" transform="translate(205.0625,666.75)"/>
<path d="M0 0 C3.75103517 1.69689686 4.2472401 4.14538179 5.7578125 7.83984375 C6.4393635 9.68494353 7.04654689 11.5575274 7.625 13.4375 C10.54864986 17.45751855 14.37458905 18.29977555 19.0078125 19.81640625 C21.625 21.1875 21.625 21.1875 22.4921875 23.83984375 C22.53601562 24.61457031 22.57984375 25.38929688 22.625 26.1875 C21.60019531 26.60257813 20.57539062 27.01765625 19.51953125 27.4453125 C11.11442767 30.92906273 11.11442767 30.92906273 5.69140625 37.80078125 C4.82032151 40.29863673 4.25805631 42.71144239 3.6796875 45.30859375 C3.33164063 46.25863281 2.98359375 47.20867188 2.625 48.1875 C0.0078125 49.09765625 0.0078125 49.09765625 -2.375 49.1875 C-5.07496151 46.08109267 -5.64115852 43.96951234 -6.125 39.9375 C-7.10961255 35.79322684 -8.36764749 33.90719937 -11.90234375 31.69140625 C-15.62821857 29.62979115 -19.46370524 27.86651829 -23.375 26.1875 C-22.5625 22.375 -22.5625 22.375 -20.875 20.6875 C-18.375 19.1875 -18.375 19.1875 -16.28515625 18.5703125 C-11.9866219 17.18276564 -9.92052193 16.22084443 -7.75 12.109375 C-6.89130223 9.78884649 -6.08779573 7.44695592 -5.34765625 5.0859375 C-4.21554334 1.71233196 -3.67512079 0.29014111 0 0 Z " fill="#EBD6A8" transform="translate(1106.375,577.8125)"/>
<path d="M0 0 C1.98046875 0.1640625 1.98046875 0.1640625 4 1 C4.80078125 2.9609375 4.80078125 2.9609375 5.3125 5.375 C6.25061656 8.84288052 6.25061656 8.84288052 8.7421875 11.26171875 C10.88070995 12.18542846 10.88070995 12.18542846 14 13 C14 14.32 14 15.64 14 17 C13.45730469 17.18433594 12.91460937 17.36867188 12.35546875 17.55859375 C8.92262251 18.95028817 6.57992107 19.90249466 4.80078125 23.26953125 C4.07971048 25.50309193 3.47148374 27.70151677 3 30 C1.078125 29.734375 1.078125 29.734375 -1 29 C-1.65690911 27.02927268 -2.31125861 25.05757182 -2.94140625 23.078125 C-4.83453206 19.36173043 -8.37031898 17.79328658 -12 16 C-11.18359375 14.04296875 -11.18359375 14.04296875 -10 12 C-9.030625 11.773125 -8.06125 11.54625 -7.0625 11.3125 C-3.88866793 10.34599966 -3.88866793 10.34599966 -2.9765625 7.9140625 C-2.45819097 6.28709442 -1.97882944 4.64708122 -1.54296875 2.99609375 C-1 1 -1 1 0 0 Z " fill="#E8D3A6" transform="translate(196,530)"/>
<path d="M0 0 C4.55555556 0.55555556 4.55555556 0.55555556 6 2 C6.1875 4.4375 6.1875 4.4375 6 7 C5.34 7.66 4.68 8.32 4 9 C-0.55555556 8.44444444 -0.55555556 8.44444444 -2 7 C-2.1875 4.5625 -2.1875 4.5625 -2 2 C-1.34 1.34 -0.68 0.68 0 0 Z " fill="#DAC8A2" transform="translate(1063,518)"/>
<path d="M0 0 C0.99 0.66 1.98 1.32 3 2 C2.67 4.64 2.34 7.28 2 10 C1.01 10.33 0.02 10.66 -1 11 C-1 16.28 -1 21.56 -1 27 C-1.33 27 -1.66 27 -2 27 C-2.38297872 8.65957447 -2.38297872 8.65957447 0 0 Z " fill="#BDB08F" transform="translate(102,372)"/>
<path d="M0 0 C1.0625 1.875 1.0625 1.875 2 4 C1.67 4.66 1.34 5.32 1 6 C0.76827173 8.54615009 0.58105471 11.07396225 0.4375 13.625 C0.39431641 14.33140625 0.35113281 15.0378125 0.30664062 15.765625 C0.20055249 17.51018537 0.09977111 19.25506697 0 21 C-0.66 20.67 -1.32 20.34 -2 20 C-2.3690205 6.3667426 -2.3690205 6.3667426 0 0 Z " fill="#2D3037" transform="translate(770,724)"/>
<path d="M0 0 C0 0.99 0 1.98 0 3 C-4.92984325 5.03993514 -8.57960425 6.40652968 -14 6 C-11.74402173 3.74402173 -9.95396133 3.03425808 -7 1.875 C-6.113125 1.52179687 -5.22625 1.16859375 -4.3125 0.8046875 C-2 0 -2 0 0 0 Z " fill="#434E6E" transform="translate(749,972)"/>
<path d="M0 0 C0.78890625 0.13921875 1.5778125 0.2784375 2.390625 0.421875 C3.18984375 0.55078125 3.9890625 0.6796875 4.8125 0.8125 C5.41578125 0.93109375 6.0190625 1.0496875 6.640625 1.171875 C6.310625 1.831875 5.980625 2.491875 5.640625 3.171875 C2.91796875 3.5859375 2.91796875 3.5859375 -0.421875 3.796875 C-1.52660156 3.87164063 -2.63132812 3.94640625 -3.76953125 4.0234375 C-4.62417969 4.07242188 -5.47882812 4.12140625 -6.359375 4.171875 C-3.02020651 0.22001504 -3.02020651 0.22001504 0 0 Z " fill="#292E34" transform="translate(591.359375,780.828125)"/>
<path d="M0 0 C0.33 0 0.66 0 1 0 C1.82810601 6.81508864 2.50413785 12.51870203 0 19 C-0.33 19 -0.66 19 -1 19 C-0.67 12.73 -0.34 6.46 0 0 Z " fill="#505975" transform="translate(939,698)"/>
<path d="M0 0 C1.18771723 3.42943519 0.80226223 5.37784675 -0.4375 8.75 C-0.72496094 9.54921875 -1.01242187 10.3484375 -1.30859375 11.171875 C-1.53675781 11.77515625 -1.76492188 12.3784375 -2 13 C-2.99 13 -3.98 13 -5 13 C-3.58192622 8.52761347 -1.88695626 4.28853694 0 0 Z " fill="#E6E0D6" transform="translate(350,525)"/>
<path d="M0 0 C0.66 0.66 1.32 1.32 2 2 C1.07767578 1.98259766 1.07767578 1.98259766 0.13671875 1.96484375 C-1.07564453 1.95130859 -1.07564453 1.95130859 -2.3125 1.9375 C-3.11300781 1.92589844 -3.91351563 1.91429687 -4.73828125 1.90234375 C-7.16861334 1.90342145 -7.16861334 1.90342145 -10 3 C-10.66 2.34 -11.32 1.68 -12 1 C-7.68024478 -1.22532845 -4.70081591 -1.06433568 0 0 Z " fill="#5A628B" transform="translate(234,739)"/>
<path d="M0 0 C0 0.99 0 1.98 0 3 C-2.97 3.66 -5.94 4.32 -9 5 C-9.33 4.01 -9.66 3.02 -10 2 C-3.375 0 -3.375 0 0 0 Z " fill="#E1CFA1" transform="translate(149,330)"/>
<path d="M0 0 C-1.5830577 4.2742558 -4.50568404 6.26531794 -8 9 C-7.53918323 4.85264908 -4.48412936 0 0 0 Z " fill="#404C6C" transform="translate(839,912)"/>
<path d="M0 0 C1.4835001 0.42257276 2.96176424 0.86356322 4.4375 1.3125 C5.67306641 1.67794922 5.67306641 1.67794922 6.93359375 2.05078125 C7.95646484 2.52064453 7.95646484 2.52064453 9 3 C9.33 3.99 9.66 4.98 10 6 C8.53932801 5.54917531 7.08151968 5.08906463 5.625 4.625 C4.81289063 4.36976563 4.00078125 4.11453125 3.1640625 3.8515625 C1 3 1 3 -1 1 C-0.67 0.67 -0.34 0.34 0 0 Z " fill="#D3CFC9" transform="translate(505,969)"/>
<path d="M0 0 C2.3125 0.1875 2.3125 0.1875 4 1 C0.25 4 0.25 4 -2 4 C-2 4.66 -2 5.32 -2 6 C-2.99 5.67 -3.98 5.34 -5 5 C-2.75 2.4375 -2.75 2.4375 0 0 Z " fill="#22252C" transform="translate(782,702)"/>
<path d="M0 0 C0.33 0.99 0.66 1.98 1 3 C-1.8125 5.0625 -1.8125 5.0625 -5 7 C-5.99 6.67 -6.98 6.34 -8 6 C-5.36 4.02 -2.72 2.04 0 0 Z " fill="#23272E" transform="translate(766,527)"/>
<path d="M0 0 C1.45945288 0.08708669 2.91765868 0.19526907 4.375 0.3125 C5.59316406 0.39951172 5.59316406 0.39951172 6.8359375 0.48828125 C9 1 9 1 11 4 C8 4 8 4 5 3 C5 2.34 5 1.68 5 1 C3.35 1 1.7 1 0 1 C0 0.67 0 0.34 0 0 Z " fill="#2C3035" transform="translate(660,781)"/>
<path d="M0 0 C1.32 0.33 2.64 0.66 4 1 C4.33 2.98 4.66 4.96 5 7 C4.34 7 3.68 7 3 7 C0 2.61538462 0 2.61538462 0 0 Z " fill="#DBCDA9" transform="translate(196,530)"/>
<path d="M0 0 C2.69082872 0.17635452 5.32851446 0.61835921 8 1 C8 1.33 8 1.66 8 2 C3.59085217 3.10228696 -0.48382401 3.07654536 -5 3 C-4.360625 2.690625 -3.72125 2.38125 -3.0625 2.0625 C-1.06389179 1.1654837 -1.06389179 1.1654837 0 0 Z " fill="#606780" transform="translate(602,347)"/>
<path d="M0 0 C0.66 0.66 1.32 1.32 2 2 C-0.31 3.65 -2.62 5.3 -5 7 C-5 6.01 -5 5.02 -5 4 C-2.5 1.8125 -2.5 1.8125 0 0 Z " fill="#252A30" transform="translate(666,606)"/>
<path d="M0 0 C2.22050056 2.22050056 2.57774742 2.9597814 3 6 C2.72949547 8.00946222 2.40632091 10.01354224 2 12 C1.67 12 1.34 12 1 12 C0.67 8.04 0.34 4.08 0 0 Z " fill="#5C6279" transform="translate(668,651)"/>
</svg>
