<?xml version="1.0" encoding="UTF-8"?>
<svg version="1.1" xmlns="http://www.w3.org/2000/svg" width="1254" height="1254">
<path d="M0 0 C413.82 0 827.64 0 1254 0 C1254 413.82 1254 827.64 1254 1254 C840.18 1254 426.36 1254 0 1254 C0 840.18 0 426.36 0 0 Z " fill="#FEFDFD" transform="translate(0,0)"/>
<path d="M0 0 C1.26485733 -0.00101212 1.26485733 -0.00101212 2.55526733 -0.00204468 C13.58811417 0.01187566 24.51774829 0.29847269 35.5 1.4375 C36.55227783 1.53836914 37.60455566 1.63923828 38.6887207 1.74316406 C48.9404681 2.98661262 57.03063846 6.74786674 63.625 14.8046875 C66.20041548 18.83521272 66.86916763 22.53037654 67.1875 27.25 C67.26742188 28.21164063 67.34734375 29.17328125 67.4296875 30.1640625 C67.83722023 39.44142528 65.83318019 47.38872887 59.9375 54.6875 C55.01161387 59.83489279 49.31584243 62.69091432 42.1875 63.25 C38.5575 63.25 34.9275 63.25 31.1875 63.25 C31.1875 72.82 31.1875 82.39 31.1875 92.25 C35.8075 92.25 40.4275 92.25 45.1875 92.25 C49.24695982 92.82102376 53.17924626 93.45367584 57.1875 94.25 C59.19248676 94.61060913 61.19769893 94.96996702 63.203125 95.328125 C87.64898398 99.8748327 112.48658952 105.01152405 135.23364258 115.36621094 C137.39887126 116.34560964 139.59142132 117.21815735 141.8125 118.0625 C144.94085712 119.28044751 147.97057283 120.6115873 150.98046875 122.09375 C151.6441748 122.41754639 152.30788086 122.74134277 152.99169922 123.07495117 C154.30780976 123.72212685 155.61835004 124.38078457 156.92236328 125.05200195 C159.65334143 126.39005852 161.77580812 127.25545689 164.83984375 127.21484375 C167.86849518 125.97012344 169.60580925 124.30198768 171.9375 122 C178.51478529 115.73836951 185.6748782 110.33000509 192.95361328 104.91455078 C194.4092442 103.82990689 195.86095951 102.73998197 197.30810547 101.64404297 C214.98377492 88.26262569 234.03936806 76.533647 254.1875 67.25 C254.90454102 66.91419922 255.62158203 66.57839844 256.36035156 66.23242188 C266.4375289 61.52945042 276.49804731 57.37563601 287.1875 54.25 C287.83477051 54.05390137 288.48204102 53.85780273 289.14892578 53.65576172 C303.80021267 49.30554957 321.11764036 46.95151877 335.3984375 53.59375 C348.0756405 61.12194898 355.60568039 73.42494555 359.30957031 87.51782227 C362.88515958 102.71805395 363.66501414 117.54126503 363.57861328 133.11889648 C363.56256892 136.5477709 363.57853223 139.9754585 363.59765625 143.40429688 C363.61174842 157.60149229 362.51423573 171.25204038 360.1875 185.25 C359.95905321 186.6889024 359.73145953 188.12794061 359.50488281 189.56713867 C358.9060567 193.27935309 358.27332727 196.98364927 357.625 200.6875 C357.41681641 201.91275391 357.20863281 203.13800781 356.99414062 204.40039062 C356.00061135 210.13420691 354.88642663 215.67669191 353.1875 221.25 C352.73395295 223.21471035 352.28084482 225.17956757 351.84350586 227.14794922 C350.11682415 234.89507245 347.94353752 242.32969594 345.33984375 249.82421875 C344.32302617 252.84709677 343.46989137 255.84771714 342.6875 258.9375 C340.87475 265.83004659 338.1060525 272.38282364 334.94140625 278.76171875 C334.38259766 279.90060547 334.38259766 279.90060547 333.8125 281.0625 C333.47476563 281.70832031 333.13703125 282.35414063 332.7890625 283.01953125 C330.78223859 290.4604173 335.36979353 297.15702923 338.625 303.5625 C358.31521967 343.45628938 369.11558445 386.21202523 374.1875 430.25 C374.27411896 430.89217972 374.36073792 431.53435944 374.44998169 432.19599915 C375.30387775 438.90870111 375.36636747 445.57943779 375.390625 452.33984375 C375.39632507 453.5972084 375.40202515 454.85457306 375.40789795 456.15003967 C375.41731794 458.81189565 375.42422817 461.47363989 375.42773438 464.13549805 C375.43419469 468.11589037 375.46833397 472.09590089 375.5 476.07617188 C375.59510602 499.06579317 373.39174861 521.29477968 368.69482422 543.79150391 C368.19251267 546.22570856 367.72007769 548.66411163 367.25390625 551.10546875 C364.88525322 563.25688156 361.35349837 574.86490095 357.40014648 586.58398438 C355.96104239 590.86674381 354.62022996 595.15591009 353.375 599.5 C351.64276384 605.15428029 349.42863919 610.37365654 346.87109375 615.69921875 C345.66992198 618.23254853 344.51877942 620.75923406 343.41015625 623.33203125 C331.56458705 650.80721374 316.42834199 676.53098306 298.1875 700.25 C297.55521484 701.08168701 297.55521484 701.08168701 296.91015625 701.93017578 C290.93368929 709.78426422 284.65174191 717.1890889 277.8828125 724.37109375 C275.79381811 726.60238196 273.78396357 728.85443633 271.8125 731.1875 C264.01826631 740.18821213 255.30762536 748.60695709 246.1875 756.25 C244.86685547 757.40435547 244.86685547 757.40435547 243.51953125 758.58203125 C207.60858709 789.81454 165.99619245 813.58427905 121.1184082 829.21972656 C118.25490094 830.22630721 115.41107497 831.27747941 112.56640625 832.3359375 C107.35742684 834.23360128 102.10133101 835.80767206 96.75 837.25 C95.8105957 837.50491211 94.87119141 837.75982422 93.90332031 838.02246094 C85.17627397 840.34090239 76.3793964 842.1615676 67.50463867 843.81079102 C65.02018508 844.28171421 62.54378843 844.78623681 60.06640625 845.29296875 C56.01636269 846.10611399 51.97159943 846.770236 47.875 847.3125 C46.14830078 847.54646484 46.14830078 847.54646484 44.38671875 847.78515625 C34.56862518 848.94574555 24.75204217 849.41159623 14.87109375 849.453125 C13.74417618 849.46018463 12.61725861 849.46724426 11.45619202 849.47451782 C-35.49428641 849.70200419 -35.49428641 849.70200419 -55.8125 846.25 C-57.66391602 845.94400879 -57.66391602 845.94400879 -59.55273438 845.63183594 C-76.99262174 842.70552122 -93.96282029 838.63253657 -110.8125 833.25 C-111.78703125 832.94868164 -112.7615625 832.64736328 -113.765625 832.33691406 C-166.77222301 815.94580309 -215.29582742 786.67878785 -255.85546875 748.984375 C-257.79801405 747.17943999 -259.75867624 745.40614723 -261.73828125 743.640625 C-273.48224739 733.1254977 -284.00355431 721.58368301 -293.8125 709.25 C-294.69454619 708.19228212 -295.57878057 707.13638633 -296.46484375 706.08203125 C-309.99448869 689.82150511 -321.62119314 671.7722651 -331.8125 653.25 C-332.30282715 652.3636084 -332.7931543 651.4772168 -333.29833984 650.56396484 C-363.93794985 594.70059965 -379.02438055 532.72897595 -379.0625 469.125 C-379.06350708 467.96149017 -379.06451416 466.79798035 -379.06555176 465.59921265 C-379.0561895 449.62018175 -378.77009851 433.9379335 -376.265625 418.12304688 C-375.79087141 415.11286353 -375.37719545 412.09797402 -374.96875 409.078125 C-369.3905509 369.52222144 -356.97758799 326.7025514 -336.02734375 292.3203125 C-333.93137765 287.023112 -335.23856789 282.77715849 -337.16015625 277.6640625 C-337.7268737 276.39883675 -338.29880903 275.13593966 -338.875 273.875 C-352.86238122 241.2644822 -358.98999556 205.22476215 -363.8125 170.25 C-363.94382324 169.36747559 -364.07514648 168.48495117 -364.21044922 167.57568359 C-368.97683133 135.46778278 -369.68502133 93.12384413 -350.8125 65.25 C-346.02441775 59.37489367 -340.95058089 54.91469944 -333.8125 52.25 C-332.51119141 51.71826172 -332.51119141 51.71826172 -331.18359375 51.17578125 C-300.00518401 42.61346015 -262.23875789 62.77282917 -236.078125 77.41796875 C-224.51865228 84.04384777 -213.49507547 91.29435239 -202.8125 99.25 C-202.09723145 99.78125488 -201.38196289 100.31250977 -200.64501953 100.85986328 C-192.04475628 107.27623518 -183.6766922 113.90714014 -175.546875 120.91015625 C-174.64453125 121.68230469 -173.7421875 122.45445312 -172.8125 123.25 C-171.97203125 124.03246094 -171.1315625 124.81492187 -170.265625 125.62109375 C-167.97780726 127.47182158 -167.97780726 127.47182158 -165.46875 127.22265625 C-161.96408853 125.93933168 -158.64921958 124.34706558 -155.3125 122.6875 C-145.384542 117.89169001 -135.180232 113.98310142 -124.8125 110.25 C-124.04824707 109.97414063 -123.28399414 109.69828125 -122.49658203 109.4140625 C-104.75062812 103.08209926 -86.42062098 98.22729936 -67.8125 95.25 C-67.00071289 95.11464844 -66.18892578 94.97929687 -65.35253906 94.83984375 C-53.6964376 92.91522157 -42.62925818 91.91868902 -30.8125 92.25 C-30.8125 82.68 -30.8125 73.11 -30.8125 63.25 C-34.7725 63.25 -38.7325 63.25 -42.8125 63.25 C-49.86243717 61.75707213 -55.15869143 59.91292523 -59.8125 54.25 C-65.94441979 44.5139465 -68.30426683 34.27445084 -66.41796875 22.86328125 C-64.48410558 15.7142258 -59.88004909 9.92641706 -53.7109375 5.8671875 C-38.08705237 -1.80271975 -17.05721804 0.012397 0 0 Z " fill="#FDF5EE" transform="translate(627.8125,190.75)"/>
<path d="M0 0 C1.26485733 -0.00101212 1.26485733 -0.00101212 2.55526733 -0.00204468 C13.58811417 0.01187566 24.51774829 0.29847269 35.5 1.4375 C36.55227783 1.53836914 37.60455566 1.63923828 38.6887207 1.74316406 C48.9404681 2.98661262 57.03063846 6.74786674 63.625 14.8046875 C66.20041548 18.83521272 66.86916763 22.53037654 67.1875 27.25 C67.26742188 28.21164063 67.34734375 29.17328125 67.4296875 30.1640625 C67.83722023 39.44142528 65.83318019 47.38872887 59.9375 54.6875 C55.01161387 59.83489279 49.31584243 62.69091432 42.1875 63.25 C38.5575 63.25 34.9275 63.25 31.1875 63.25 C31.1875 72.82 31.1875 82.39 31.1875 92.25 C35.8075 92.25 40.4275 92.25 45.1875 92.25 C49.24695982 92.82102376 53.17924626 93.45367584 57.1875 94.25 C59.19248676 94.61060913 61.19769893 94.96996702 63.203125 95.328125 C87.64898398 99.8748327 112.48658952 105.01152405 135.23364258 115.36621094 C137.39887126 116.34560964 139.59142132 117.21815735 141.8125 118.0625 C144.94085712 119.28044751 147.97057283 120.6115873 150.98046875 122.09375 C151.6441748 122.41754639 152.30788086 122.74134277 152.99169922 123.07495117 C154.30780976 123.72212685 155.61835004 124.38078457 156.92236328 125.05200195 C159.65334143 126.39005852 161.77580812 127.25545689 164.83984375 127.21484375 C167.86849518 125.97012344 169.60580925 124.30198768 171.9375 122 C178.51478529 115.73836951 185.6748782 110.33000509 192.95361328 104.91455078 C194.4092442 103.82990689 195.86095951 102.73998197 197.30810547 101.64404297 C214.98377492 88.26262569 234.03936806 76.533647 254.1875 67.25 C254.90454102 66.91419922 255.62158203 66.57839844 256.36035156 66.23242188 C266.4375289 61.52945042 276.49804731 57.37563601 287.1875 54.25 C287.83477051 54.05390137 288.48204102 53.85780273 289.14892578 53.65576172 C303.80021267 49.30554957 321.11764036 46.95151877 335.3984375 53.59375 C348.0756405 61.12194898 355.60568039 73.42494555 359.30957031 87.51782227 C362.88515958 102.71805395 363.66501414 117.54126503 363.57861328 133.11889648 C363.56256892 136.5477709 363.57853223 139.9754585 363.59765625 143.40429688 C363.61174842 157.60149229 362.51423573 171.25204038 360.1875 185.25 C359.95905321 186.6889024 359.73145953 188.12794061 359.50488281 189.56713867 C358.9060567 193.27935309 358.27332727 196.98364927 357.625 200.6875 C357.41681641 201.91275391 357.20863281 203.13800781 356.99414062 204.40039062 C356.00061135 210.13420691 354.88642663 215.67669191 353.1875 221.25 C352.73395295 223.21471035 352.28084482 225.17956757 351.84350586 227.14794922 C350.11682415 234.89507245 347.94353752 242.32969594 345.33984375 249.82421875 C344.32302617 252.84709677 343.46989137 255.84771714 342.6875 258.9375 C340.87475 265.83004659 338.1060525 272.38282364 334.94140625 278.76171875 C334.38259766 279.90060547 334.38259766 279.90060547 333.8125 281.0625 C333.47476563 281.70832031 333.13703125 282.35414063 332.7890625 283.01953125 C330.78223859 290.4604173 335.36979353 297.15702923 338.625 303.5625 C358.31521967 343.45628938 369.11558445 386.21202523 374.1875 430.25 C374.27411896 430.89217972 374.36073792 431.53435944 374.44998169 432.19599915 C375.30387775 438.90870111 375.36636747 445.57943779 375.390625 452.33984375 C375.39632507 453.5972084 375.40202515 454.85457306 375.40789795 456.15003967 C375.41731794 458.81189565 375.42422817 461.47363989 375.42773438 464.13549805 C375.43419469 468.11589037 375.46833397 472.09590089 375.5 476.07617188 C375.59510602 499.06579317 373.39174861 521.29477968 368.69482422 543.79150391 C368.19251267 546.22570856 367.72007769 548.66411163 367.25390625 551.10546875 C364.88525322 563.25688156 361.35349837 574.86490095 357.40014648 586.58398438 C355.96104239 590.86674381 354.62022996 595.15591009 353.375 599.5 C351.64276384 605.15428029 349.42863919 610.37365654 346.87109375 615.69921875 C345.66992198 618.23254853 344.51877942 620.75923406 343.41015625 623.33203125 C331.56458705 650.80721374 316.42834199 676.53098306 298.1875 700.25 C297.55521484 701.08168701 297.55521484 701.08168701 296.91015625 701.93017578 C290.93368929 709.78426422 284.65174191 717.1890889 277.8828125 724.37109375 C275.79381811 726.60238196 273.78396357 728.85443633 271.8125 731.1875 C264.01826631 740.18821213 255.30762536 748.60695709 246.1875 756.25 C244.86685547 757.40435547 244.86685547 757.40435547 243.51953125 758.58203125 C207.60858709 789.81454 165.99619245 813.58427905 121.1184082 829.21972656 C118.25490094 830.22630721 115.41107497 831.27747941 112.56640625 832.3359375 C107.35742684 834.23360128 102.10133101 835.80767206 96.75 837.25 C95.8105957 837.50491211 94.87119141 837.75982422 93.90332031 838.02246094 C85.17627397 840.34090239 76.3793964 842.1615676 67.50463867 843.81079102 C65.02018508 844.28171421 62.54378843 844.78623681 60.06640625 845.29296875 C56.01636269 846.10611399 51.97159943 846.770236 47.875 847.3125 C46.14830078 847.54646484 46.14830078 847.54646484 44.38671875 847.78515625 C34.56862518 848.94574555 24.75204217 849.41159623 14.87109375 849.453125 C13.74417618 849.46018463 12.61725861 849.46724426 11.45619202 849.47451782 C-35.49428641 849.70200419 -35.49428641 849.70200419 -55.8125 846.25 C-57.66391602 845.94400879 -57.66391602 845.94400879 -59.55273438 845.63183594 C-76.99262174 842.70552122 -93.96282029 838.63253657 -110.8125 833.25 C-111.78703125 832.94868164 -112.7615625 832.64736328 -113.765625 832.33691406 C-166.77222301 815.94580309 -215.29582742 786.67878785 -255.85546875 748.984375 C-257.79801405 747.17943999 -259.75867624 745.40614723 -261.73828125 743.640625 C-273.48224739 733.1254977 -284.00355431 721.58368301 -293.8125 709.25 C-294.69454619 708.19228212 -295.57878057 707.13638633 -296.46484375 706.08203125 C-309.99448869 689.82150511 -321.62119314 671.7722651 -331.8125 653.25 C-332.30282715 652.3636084 -332.7931543 651.4772168 -333.29833984 650.56396484 C-363.93794985 594.70059965 -379.02438055 532.72897595 -379.0625 469.125 C-379.06350708 467.96149017 -379.06451416 466.79798035 -379.06555176 465.59921265 C-379.0561895 449.62018175 -378.77009851 433.9379335 -376.265625 418.12304688 C-375.79087141 415.11286353 -375.37719545 412.09797402 -374.96875 409.078125 C-369.3905509 369.52222144 -356.97758799 326.7025514 -336.02734375 292.3203125 C-333.93137765 287.023112 -335.23856789 282.77715849 -337.16015625 277.6640625 C-337.7268737 276.39883675 -338.29880903 275.13593966 -338.875 273.875 C-352.86238122 241.2644822 -358.98999556 205.22476215 -363.8125 170.25 C-363.94382324 169.36747559 -364.07514648 168.48495117 -364.21044922 167.57568359 C-368.97683133 135.46778278 -369.68502133 93.12384413 -350.8125 65.25 C-346.02441775 59.37489367 -340.95058089 54.91469944 -333.8125 52.25 C-332.51119141 51.71826172 -332.51119141 51.71826172 -331.18359375 51.17578125 C-300.00518401 42.61346015 -262.23875789 62.77282917 -236.078125 77.41796875 C-224.51865228 84.04384777 -213.49507547 91.29435239 -202.8125 99.25 C-202.09723145 99.78125488 -201.38196289 100.31250977 -200.64501953 100.85986328 C-192.04475628 107.27623518 -183.6766922 113.90714014 -175.546875 120.91015625 C-174.64453125 121.68230469 -173.7421875 122.45445312 -172.8125 123.25 C-171.97203125 124.03246094 -171.1315625 124.81492187 -170.265625 125.62109375 C-167.97780726 127.47182158 -167.97780726 127.47182158 -165.46875 127.22265625 C-161.96408853 125.93933168 -158.64921958 124.34706558 -155.3125 122.6875 C-145.384542 117.89169001 -135.180232 113.98310142 -124.8125 110.25 C-124.04824707 109.97414063 -123.28399414 109.69828125 -122.49658203 109.4140625 C-104.75062812 103.08209926 -86.42062098 98.22729936 -67.8125 95.25 C-67.00071289 95.11464844 -66.18892578 94.97929687 -65.35253906 94.83984375 C-53.6964376 92.91522157 -42.62925818 91.91868902 -30.8125 92.25 C-30.8125 82.68 -30.8125 73.11 -30.8125 63.25 C-34.7725 63.25 -38.7325 63.25 -42.8125 63.25 C-49.86243717 61.75707213 -55.15869143 59.91292523 -59.8125 54.25 C-65.94441979 44.5139465 -68.30426683 34.27445084 -66.41796875 22.86328125 C-64.48410558 15.7142258 -59.88004909 9.92641706 -53.7109375 5.8671875 C-38.08705237 -1.80271975 -17.05721804 0.012397 0 0 Z M-82.8125 157.25 C-83.78445313 157.51151855 -84.75640625 157.77303711 -85.7578125 158.04248047 C-123.48363253 168.42089423 -159.55548628 185.67555019 -190.8125 209.25 C-191.4223877 209.70971191 -192.03227539 210.16942383 -192.66064453 210.64306641 C-196.77504932 213.76850621 -200.80815576 216.98520735 -204.8125 220.25 C-205.6163916 220.89727051 -205.6163916 220.89727051 -206.43652344 221.55761719 C-214.61822468 228.17901813 -222.16023701 235.39677416 -229.625 242.8125 C-230.49648682 243.67472168 -231.36797363 244.53694336 -232.26586914 245.42529297 C-237.42806083 250.61253192 -242.1957403 255.98019343 -246.75634766 261.70410156 C-248.8925556 264.3491237 -251.12037558 266.8931216 -253.375 269.4375 C-269.58792541 288.9030963 -282.27939481 311.59936996 -293.3125 334.3125 C-293.80524414 335.32304443 -294.29798828 336.33358887 -294.80566406 337.37475586 C-297.63674792 343.33089065 -299.92634059 349.28877302 -301.92895508 355.57055664 C-303.02370978 358.89051598 -304.41931996 362.04531239 -305.8125 365.25 C-314.47522738 388.51805369 -318.9894327 413.07842152 -321.54638672 437.70996094 C-321.71496823 439.31906369 -321.89721391 440.92684241 -322.09814453 442.53222656 C-323.08420232 450.86873662 -323.05623332 459.24219965 -323.0625 467.625 C-323.06317474 468.43891205 -323.06384949 469.2528241 -323.06454468 470.09140015 C-323.026121 499.47617623 -317.95019817 527.23438515 -310.75 555.625 C-310.58432526 556.28376129 -310.41865051 556.94252258 -310.24795532 557.62124634 C-308.27187277 565.43343524 -305.96890606 572.84089404 -302.8125 580.25 C-302.22200819 581.7620489 -301.63734135 583.27638585 -301.05859375 584.79296875 C-280.96608768 636.68516249 -248.11936595 685.83082448 -203.8125 720.25 C-202.72125445 721.15037875 -201.63288531 722.05425103 -200.546875 722.9609375 C-173.29081569 745.55764837 -140.54256076 764.85805512 -106.74560547 775.61279297 C-104.75871921 776.26772769 -102.80489861 776.98408326 -100.84765625 777.72265625 C-81.47730799 784.99352135 -61.23442353 789.19625442 -40.8125 792.25 C-40.06387695 792.36859375 -39.31525391 792.4871875 -38.54394531 792.609375 C39.65333698 804.65627406 123.99634968 777.91367277 186.92871094 731.98950195 C193.60581948 727.02818523 199.96736393 721.76996369 206.1875 716.25 C207.57195312 715.03183594 207.57195312 715.03183594 208.984375 713.7890625 C222.24098822 701.88740698 235.34263063 689.41551079 246.1875 675.25 C247.22275359 673.97452371 248.26075662 672.70127648 249.30078125 671.4296875 C281.17345586 632.06287127 301.83167869 584.04378232 312.625 534.75 C312.84776611 533.73945557 313.07053223 532.72891113 313.30004883 531.68774414 C314.01015049 528.21987577 314.62705148 524.74452548 315.1875 521.25 C315.31740326 520.44157654 315.44730652 519.63315308 315.58114624 518.80023193 C318.03855435 502.93577819 318.68746511 487.27263982 318.63354492 471.23291016 C318.62502259 467.3851988 318.65396128 463.53897303 318.68554688 459.69140625 C318.73139473 443.18532234 317.19826626 427.46814657 314.1875 411.25 C313.85142037 409.36586397 313.51610285 407.48159179 313.18164062 405.59716797 C311.28224012 394.92949008 308.3637497 384.76267858 304.92675781 374.49755859 C303.98276416 371.62754355 303.1117569 368.73802614 302.24072266 365.84521484 C299.99614954 358.43509756 297.31645271 351.33312372 294.1875 344.25 C293.62905112 342.92757142 293.07184175 341.60461897 292.515625 340.28125 C281.32322554 313.97628566 266.1832393 289.45005361 248.1875 267.25 C247.14142578 265.91775391 247.14142578 265.91775391 246.07421875 264.55859375 C200.73797994 207.61893001 135.18466506 169.5268169 64.55126953 154.03686523 C62.21920027 153.49133909 59.90302101 152.87493003 57.60400391 152.20361328 C54.57839738 151.35910713 51.75187197 150.8103681 48.640625 150.43359375 C47.1246875 150.24700195 47.1246875 150.24700195 45.578125 150.05664062 C44.54171875 149.93482422 43.5053125 149.81300781 42.4375 149.6875 C41.4165625 149.56181641 40.395625 149.43613281 39.34375 149.30664062 C36.29341497 148.9369617 33.24123757 148.59031027 30.1875 148.25 C29.36596436 148.15066162 28.54442871 148.05132324 27.69799805 147.94897461 C-9.14548312 143.9534619 -47.15583903 147.64879741 -82.8125 157.25 Z " fill="#D0C0DA" transform="translate(627.8125,190.75)"/>
<path d="M0 0 C5.58485104 2.85531798 9.84120979 8.51972313 11.796875 14.38671875 C11.89998877 16.40322088 11.94328577 18.42296014 11.95509338 20.44206238 C11.9648822 21.70830948 11.97467102 22.97455658 11.98475647 24.2791748 C11.99066066 25.68505822 11.99647111 27.09094202 12.00219727 28.49682617 C12.01177594 29.97508518 12.02178601 31.45334146 12.03219604 32.93159485 C12.05925236 36.94780052 12.080258 40.96401796 12.10019803 44.98026443 C12.12205309 49.17634335 12.14944413 53.372386 12.17625427 57.56843567 C12.22618765 65.51565898 12.27112409 73.46290242 12.31427664 81.41016513 C12.36364349 90.4572449 12.41856367 99.50428826 12.47395623 108.55133283 C12.58778618 127.16309435 12.69462303 145.77489021 12.796875 164.38671875 C13.24686859 164.01974884 13.69686218 163.65277893 14.16049194 163.27468872 C16.23390883 161.5846211 18.30835374 159.89581984 20.3828125 158.20703125 C21.09042725 157.62993408 21.79804199 157.05283691 22.52709961 156.45825195 C27.81661852 152.15424433 33.18364206 147.96797425 38.60546875 143.83203125 C41.92318599 141.29813108 45.20575455 138.72090594 48.484375 136.13671875 C53.82419962 131.93065145 59.18008259 127.74582447 64.546875 123.57421875 C65.30154053 122.98761475 66.05620605 122.40101074 66.83374023 121.79663086 C69.93180324 119.38906639 73.030365 116.98214423 76.12890625 114.57519531 C83.69760726 108.69514146 91.26568438 102.81478385 98.796875 96.88671875 C112.01106568 86.48863557 125.2903513 76.17462769 138.67822266 66.00097656 C140.88305648 64.32105478 143.08020036 62.63136974 145.27734375 60.94140625 C146.72107843 59.83948239 148.16507935 58.73790725 149.609375 57.63671875 C150.60541748 56.86593994 150.60541748 56.86593994 151.62158203 56.07958984 C158.0651268 51.19386186 163.80530336 50.43349384 171.796875 51.38671875 C177.13137734 53.33814354 181.50727239 57.24738658 184.7265625 61.8828125 C187.26902545 67.83069114 186.65288118 74.55054289 185.26953125 80.75 C182.61068426 87.35081914 176.3119467 91.27685271 170.796875 95.38671875 C169.61685614 96.2782074 168.43718122 97.17015144 167.2578125 98.0625 C164.61737116 100.05336058 161.96889994 102.03304439 159.31640625 104.0078125 C154.22083776 107.8076085 149.16383014 111.65748238 144.109375 115.51171875 C143.20687012 116.19991699 142.30436523 116.88811523 141.37451172 117.59716797 C135.57607214 122.02215325 129.78841613 126.46072694 124.01171875 130.9140625 C121.63358738 132.74575513 119.24967802 134.56971422 116.86328125 136.390625 C109.54111998 141.97780608 102.24194509 147.59082067 94.984375 153.26171875 C88.64398119 158.21267335 82.24345747 163.07494532 75.796875 167.88671875 C69.29113067 172.74385476 62.82698308 177.64749112 56.421875 182.63671875 C55.68839844 183.20793457 54.95492187 183.77915039 54.19921875 184.36767578 C50.66224082 187.12915384 47.13892819 189.90646518 43.6328125 192.70703125 C42.9836084 193.22362305 42.3344043 193.74021484 41.66552734 194.27246094 C40.45140543 195.24007835 39.24058848 196.21186254 38.03369141 197.18847656 C34.01947184 200.38671875 34.01947184 200.38671875 31.796875 200.38671875 C31.50554688 199.55269531 31.21421875 198.71867188 30.9140625 197.859375 C26.45413169 185.61560267 21.3019988 175.91887198 9.1015625 170.1015625 C-0.95140412 166.01296529 -11.6517767 164.09875227 -22.015625 168.38671875 C-22.78519531 168.75796875 -23.55476562 169.12921875 -24.34765625 169.51171875 C-26.203125 170.38671875 -26.203125 170.38671875 -28.203125 170.38671875 C-28.32000462 150.05469251 -28.40813587 129.72273459 -28.46218586 109.39044189 C-28.48795098 99.94947062 -28.5230691 90.50870826 -28.58032227 81.06787109 C-28.63020911 72.83777951 -28.66242832 64.60783926 -28.67356747 56.37760067 C-28.68007732 52.02098287 -28.69534172 47.66479795 -28.73177528 43.30831909 C-28.76581846 39.20425444 -28.77616136 35.10079927 -28.76866341 30.99660683 C-28.77003426 29.49380489 -28.77991761 27.99098169 -28.79915237 26.48830223 C-28.89717484 18.43251192 -28.95058412 11.60385449 -23.203125 5.38671875 C-16.53530452 -1.10023305 -9.12678274 -2.54061151 0 0 Z " fill="#24282B" transform="translate(635.203125,447.61328125)"/>
<path d="M0 0 C1.26485733 -0.00101212 1.26485733 -0.00101212 2.55526733 -0.00204468 C13.58811417 0.01187566 24.51774829 0.29847269 35.5 1.4375 C37.07841675 1.58880371 37.07841675 1.58880371 38.6887207 1.74316406 C48.9404681 2.98661262 57.03063846 6.74786674 63.625 14.8046875 C66.20041548 18.83521272 66.86916763 22.53037654 67.1875 27.25 C67.30738281 28.69246094 67.30738281 28.69246094 67.4296875 30.1640625 C67.83722023 39.44142528 65.83318019 47.38872887 59.9375 54.6875 C55.01161387 59.83489279 49.31584243 62.69091432 42.1875 63.25 C38.5575 63.25 34.9275 63.25 31.1875 63.25 C31.1875 72.49 31.1875 81.73 31.1875 91.25 C10.7275 91.25 -9.7325 91.25 -30.8125 91.25 C-30.8125 82.01 -30.8125 72.77 -30.8125 63.25 C-34.7725 63.25 -38.7325 63.25 -42.8125 63.25 C-49.86243717 61.75707213 -55.15869143 59.91292523 -59.8125 54.25 C-65.94441979 44.5139465 -68.30426683 34.27445084 -66.41796875 22.86328125 C-64.48410558 15.7142258 -59.88004909 9.92641706 -53.7109375 5.8671875 C-38.08705237 -1.80271975 -17.05721804 0.012397 0 0 Z " fill="#C2AFD0" transform="translate(627.8125,190.75)"/>
<path d="M0 0 C1.80078125 1.41796875 1.80078125 1.41796875 3.4375 3 C4.26314453 3.76763672 4.26314453 3.76763672 5.10546875 4.55078125 C14.39819635 14.89897915 14.08803753 31.52842166 13.875 44.625 C13.86784973 45.41224457 13.86069946 46.19948914 13.85333252 47.0105896 C13.73200315 59.88597779 12.81006486 72.32967116 10.4375 85 C10.10436029 86.87078453 9.77123929 88.74157242 9.43849182 90.61242676 C6.86720024 104.97255183 3.98937662 119.11839046 -0.5625 133 C-1.17215694 135.01918378 -1.7771287 137.03979522 -2.375 139.0625 C-2.77032485 140.37515324 -3.16591614 141.68772658 -3.5625 143 C-4.2225 143 -4.8825 143 -5.5625 143 C-7.12049891 141.13710894 -8.56621455 139.26801406 -10 137.3125 C-17.31203492 127.57609661 -25.20684946 118.37124506 -33.41015625 109.375 C-34.81129672 107.82891396 -36.19521794 106.26698822 -37.55859375 104.6875 C-46.96259486 93.87912065 -57.65746955 84.08292407 -68.86328125 75.171875 C-70.83367467 73.58643543 -72.75835539 71.98355373 -74.66796875 70.328125 C-81.97829864 63.99609249 -89.49649921 58.3465308 -97.5625 53 C-96.19950538 43.81011201 -83.37188443 36.36579493 -76.5625 31 C-75.57507813 30.20722656 -74.58765625 29.41445313 -73.5703125 28.59765625 C-60.19940888 18.04431212 -46.06711485 9.0778317 -30.5625 2 C-29.59957031 1.54496094 -28.63664063 1.08992188 -27.64453125 0.62109375 C-19.32955747 -2.90386559 -8.19398395 -4.63069974 0 0 Z " fill="#AE98C1" transform="translate(937.5625,296)"/>
<path d="M0 0 C11.78937666 6.39594686 22.73236141 13.79127521 33.1171875 22.265625 C33.66503906 22.7105127 34.21289062 23.15540039 34.77734375 23.61376953 C42.32267278 29.77389169 49.362809 36.23680223 56.1171875 43.265625 C52.14173115 47.47356418 47.81719772 50.87731949 43.1796875 54.328125 C35.21279735 60.34252254 27.58587016 66.64607695 20.1171875 73.265625 C19.19421875 74.07644531 18.27125 74.88726562 17.3203125 75.72265625 C10.48195372 81.85593002 3.95169311 88.2992902 -2.5703125 94.765625 C-3.44953369 95.63179443 -4.32875488 96.49796387 -5.23461914 97.39038086 C-11.22023709 103.36812225 -16.62884411 109.64049146 -21.8828125 116.265625 C-23.08707594 117.75639356 -24.29269453 119.24606897 -25.5 120.734375 C-27.14741605 122.772174 -28.79401879 124.81058816 -30.4375 126.8515625 C-30.97375 127.51414062 -31.51 128.17671875 -32.0625 128.859375 C-32.53413574 129.44396484 -33.00577148 130.02855469 -33.49169922 130.63085938 C-34.88150293 132.26408606 -36.34586622 133.77119845 -37.8828125 135.265625 C-41.61482346 126.254987 -44.31207394 117.4114548 -46.4453125 107.890625 C-46.59277924 107.24288116 -46.74024597 106.59513733 -46.8921814 105.92776489 C-61.58543098 41.36926869 -61.58543098 41.36926869 -53.8828125 12.265625 C-53.6146875 11.23308594 -53.3465625 10.20054687 -53.0703125 9.13671875 C-50.76501852 1.3083246 -47.82320575 -3.75505327 -41.3203125 -8.671875 C-26.80792888 -13.15752085 -12.69782517 -6.68737959 0 0 Z " fill="#AD97C0" transform="translate(357.8828125,303.734375)"/>
<path d="M0 0 C0.33 0 0.66 0 1 0 C1 50.49 1 100.98 1 153 C4.96 151.35 8.92 149.7 13 148 C25.19490093 146.11394904 36.01228474 149.20924318 45.9375 156.31640625 C52.97230307 162.05883072 56.74309995 168.59795825 60 177 C60.680625 178.7325 60.680625 178.7325 61.375 180.5 C63.25114476 191.00641063 59.93220506 201.22976868 54.65234375 210.3203125 C48.24460762 219.42322455 39.95444729 225.87881406 29.1875 228.75 C15.57909073 229.81732622 4.79400661 227.85557442 -6 219 C-15.04697873 210.36506189 -18.96879908 200.60370815 -19.375 188.1875 C-19.19976965 177.93652475 -15.72357894 168.79935157 -9 161 C-8.37115906 160.59490172 -7.74231812 160.18980345 -7.09442139 159.77242947 C-3.42535068 157.25002945 -1.3177485 155.31869314 -0.25372314 150.90286446 C0.0257716 146.9470233 0.05633662 143.02996522 0 139.06860352 C0.00761301 137.55032792 0.01873769 136.0320665 0.03309631 134.51383972 C0.06204431 130.40641521 0.04204169 126.30053178 0.0130806 122.1931622 C-0.00884178 117.8956081 0.01448444 113.59830209 0.03295898 109.30076599 C0.06106664 101.16929054 0.04862961 93.03840555 0.02153492 84.90694708 C-0.00733947 75.64690162 0.00912314 66.38710913 0.02934647 57.12706101 C0.06992081 38.08455084 0.05371535 19.04246592 0 0 Z " fill="#B39FC4" transform="translate(606,465)"/>
<path d="M0 0 C7.42633639 3.68799417 12.05352603 10.64174371 15.1796875 18.14453125 C19.46726963 32.56351116 18.62960273 48.21063883 11.9296875 61.65234375 C8.40189796 67.72575414 3.85663475 71.82553908 -2.8203125 74.14453125 C-10.00436187 75.12313988 -17.75180451 75.4750199 -24.1171875 71.53125 C-32.41274802 64.77683719 -36.68504337 56.72269317 -37.8203125 46.14453125 C-38.63743592 31.93424434 -39.14968346 18.43248165 -29.55078125 6.9375 C-21.31628616 -1.59440349 -11.34928653 -3.44251212 0 0 Z " fill="#25292C" transform="translate(460.8203125,688.85546875)"/>
<path d="M0 0 C7.50645363 3.28126416 12.70572412 10.01180466 15.71875 17.421875 C17.88785067 23.73318667 18.17120812 29.66269306 18.08203125 36.29296875 C18.06668335 38.0087915 18.06668335 38.0087915 18.05102539 39.75927734 C17.76877141 50.97427536 15.65667415 60.54701479 7.515625 68.828125 C0.97966595 74.03386929 -6.22965519 75.15787511 -14.43359375 74.859375 C-19.10421689 74.18273344 -22.00709111 72.54706888 -25.48046875 69.41796875 C-26.10695313 68.85980469 -26.7334375 68.30164063 -27.37890625 67.7265625 C-36.26291004 58.74884559 -37.77215801 45.85387288 -37.79736328 33.74414062 C-37.58871154 22.44088329 -34.07734166 12.78623716 -25.90234375 4.89453125 C-18.42840502 -1.63572834 -9.5173543 -2.23320597 0 0 Z " fill="#23272B" transform="translate(808.48046875,688.58203125)"/>
<path d="M0 0 C4.25381986 3.44759047 8.71695878 8.44307491 9.47265625 14.0390625 C9.77085299 20.4638469 8.99072778 24.58836298 5.06640625 29.75 C-3.37163951 38.63853691 -14.1077092 41.61126764 -26.0234375 42.00390625 C-36.98474754 41.85375132 -47.28372875 38.72027045 -55.49609375 31.2421875 C-59.81567931 26.44404727 -61.3524848 21.24189372 -61.14453125 14.83203125 C-60.20175471 8.48320697 -56.70100688 3.94813979 -51.75390625 0.06640625 C-36.46119464 -10.39866727 -15.50326341 -10.07459625 0 0 Z " fill="#E4CADE" transform="translate(452.8359375,786.24609375)"/>
<path d="M0 0 C4.96353945 3.90157287 9.21822083 7.99858397 10.11328125 14.44140625 C10.12648475 25.65117539 10.12648475 25.65117539 5.6796875 30.3203125 C4.85791016 31.19429687 4.85791016 31.19429687 4.01953125 32.0859375 C-4.15039729 40.07132966 -14.39304865 42.1897785 -25.5078125 42.5703125 C-35.99919523 42.44061134 -45.77885652 39.82942535 -53.328125 32.32421875 C-58.6364255 26.46789532 -59.79741542 22.31727224 -59.73046875 14.3984375 C-59.07686069 9.49326465 -56.77272356 6.71742178 -53.3203125 3.3203125 C-52.82917969 2.82789063 -52.33804688 2.33546875 -51.83203125 1.828125 C-38.56193106 -10.26161587 -14.33375701 -9.93252042 0 0 Z " fill="#E4CBDF" transform="translate(846.3203125,785.6796875)"/>
<path d="M0 0 C3.7134634 2.61630376 5.22663219 5.33735822 6.875 9.4375 C9.42304227 15.58759399 13.48694361 18.42933976 19 21.875 C26.53049129 24.71380823 36.21344688 24.06127877 43.625 21.25 C51.32484033 17.59130103 54.99850142 13.18034927 58.0625 5.25 C59.12943096 2.68936569 59.64297321 1.49278363 62 0 C66.92224114 -0.63512789 68.88387501 -0.76733593 73 2.0625 C75.58702404 5.86219156 75.67041286 7.45609061 75 12 C73.03229075 18.72758694 69.94012226 24.94696066 65 30 C64.34 30 63.68 30 63 30 C63 30.66 63 31.32 63 32 C51.38816388 41.28032571 38.75803454 44.38509624 24.19677734 43.27050781 C11.51404036 41.70877492 1.49814237 34.7564745 -6.4921875 25.09375 C-10.75750655 19.17092355 -12.7403548 13.51712932 -12.375 6.17578125 C-12 4 -12 4 -10.5 1.375 C-6.98201064 -0.55989415 -3.86029842 -0.86298088 0 0 Z " fill="#23272B" transform="translate(595,769)"/>
<path d="M0 0 C20.13 0 40.26 0 61 0 C61 9.24 61 18.48 61 28 C40.87 28 20.74 28 0 28 C0 18.76 0 9.52 0 0 Z " fill="#9480A9" transform="translate(597,254)"/>
<path d="M0 0 C2.60713425 1.77797629 3.35700885 3.13801541 5 6 C5.57470304 9.52005609 5.32556889 11.31482186 3.79980469 14.52587891 C1.64565627 17.48710246 0.09855382 18.22179888 -3.296875 19.5234375 C-4.36744141 19.93561523 -5.43800781 20.34779297 -6.54101562 20.77246094 C-12.40498362 22.8534908 -18.31016307 24.77279279 -24.25 26.625 C-33.50690678 29.48690518 -33.50690678 29.48690518 -42.62890625 32.7421875 C-46.44548087 34.1662165 -48.96570092 34.60895081 -53 34 C-56.5570158 31.06159564 -58.61660107 28.83179489 -59.5625 24.3125 C-58.81244961 19.89553657 -57.19645235 18.38762393 -53.7421875 15.64453125 C-49.4220509 13.0536801 -44.79067834 11.80697197 -39.97265625 10.46484375 C-36.08282657 9.36633831 -32.29744937 8.06486667 -28.49609375 6.69140625 C-26.78172119 6.07434814 -26.78172119 6.07434814 -25.03271484 5.44482422 C-22.76001978 4.62138398 -20.4906441 3.78871001 -18.22509766 2.94580078 C-11.88226153 0.67576348 -6.74796928 -0.73552865 0 0 Z " fill="#B7A2C7" transform="translate(219,705)"/>
<path d="M0 0 C8.70677954 1.40828527 17.01554564 4.99554477 25.1015625 8.40234375 C27.62553816 9.33752198 30.11915309 10.11850438 32.703125 10.86328125 C33.54842773 11.11150635 34.39373047 11.35973145 35.26464844 11.61547852 C36.95684129 12.10645682 38.65409312 12.58040867 40.35644531 13.03491211 C46.03317712 14.69381017 48.87292801 16.42012232 52.04296875 21.4921875 C52.63802918 24.71804141 52.08092686 27.39590567 51.04296875 30.4921875 C49.10546875 33.1171875 49.10546875 33.1171875 46.04296875 34.4921875 C39.8221264 34.91132227 34.37442945 33.13224201 28.7578125 30.625 C23.00274321 28.22360418 17.00412495 26.47685851 11.0546875 24.625 C8.94654262 23.95595589 6.83847074 23.28668169 4.73046875 22.6171875 C3.65990234 22.29105469 2.58933594 21.96492187 1.48632812 21.62890625 C-8.36504979 18.45820603 -8.36504979 18.45820603 -10.95703125 13.4921875 C-11.99300388 9.4701761 -11.28981041 6.21825112 -9.58203125 2.4921875 C-6.20373469 -0.08175273 -4.17730201 -0.20979065 0 0 Z " fill="#B7A2C7" transform="translate(1037.95703125,704.5078125)"/>
<path d="M0 0 C3.4375 2 3.4375 2 6 5 C7.08363895 9.10293831 6.64675729 11.88021544 4.53125 15.54296875 C1.02988955 18.94166585 -2.51379033 19.92635022 -7.125 21.3125 C-8.03209717 21.59810791 -8.93919434 21.88371582 -9.8737793 22.17797852 C-11.84931807 22.79740594 -13.82722589 23.40931561 -15.80712891 24.01464844 C-19.17739084 25.05474457 -22.53195046 26.13758996 -25.88671875 27.2265625 C-28.19494336 27.96469701 -30.50353181 28.7016948 -32.8125 29.4375 C-33.90256348 29.79175049 -34.99262695 30.14600098 -36.11572266 30.51098633 C-41.92777779 32.32640996 -46.90295889 33.68826348 -53 33 C-56.25932425 30.14809128 -57.73945496 28.25061619 -58.625 24 C-57.80892935 20.08286088 -55.89481647 17.65101707 -53 15 C-50.49894156 13.79953517 -48.36579858 12.93525961 -45.75 12.1484375 C-45.05543701 11.92225739 -44.36087402 11.69607727 -43.64526367 11.46304321 C-41.43564904 10.74836982 -39.21853209 10.06142341 -37 9.375 C-35.54239198 8.9080466 -34.08535403 8.43930975 -32.62890625 7.96875 C-29.09540047 6.83252961 -25.55453196 5.7221362 -22.00906372 4.62387085 C-20.06336464 4.01967651 -18.1201904 3.40794827 -16.17749023 2.79418945 C-14.44801147 2.25217896 -14.44801147 2.25217896 -12.68359375 1.69921875 C-11.67611084 1.38299561 -10.66862793 1.06677246 -9.63061523 0.7409668 C-6.18958276 -0.22827066 -3.53545809 -0.64936985 0 0 Z " fill="#B6A1C7" transform="translate(1086,630)"/>
<path d="M0 0 C3.5078125 0.953125 3.5078125 0.953125 7.125 2.25 C8.45528143 2.71612353 9.78601889 3.18094742 11.1171875 3.64453125 C11.77428711 3.8760791 12.43138672 4.10762695 13.10839844 4.34619141 C15.80237306 5.27733028 18.52236247 6.11083747 21.25 6.9375 C22.28511719 7.25589844 23.32023437 7.57429687 24.38671875 7.90234375 C26.37248106 8.50558614 28.35921912 9.10575805 30.35009766 9.69189453 C32.92433494 10.4501855 35.49338563 11.22455127 38.0625 12 C39.29564941 12.3556604 39.29564941 12.3556604 40.55371094 12.71850586 C44.92578398 14.05250452 48.25387416 15.1132875 51 19 C51.80105436 22.08820266 51.62145626 24.88162127 51 28 C49.0625 31.0625 49.0625 31.0625 46 33 C38.87954294 34.13023128 33.50993319 31.96192433 26.87890625 29.4296875 C22.79129958 27.88279861 18.63578778 26.64542676 14.4375 25.4375 C13.72368164 25.22907471 13.00986328 25.02064941 12.27441406 24.8059082 C8.92576457 23.83106723 5.57361425 22.88451138 2.20703125 21.97265625 C-9.13030179 18.78283034 -9.13030179 18.78283034 -12 14 C-12.67407405 10.83703713 -12.70272056 8.15938592 -12 5 C-8.52979604 -0.15272709 -5.96106025 -0.41473628 0 0 Z " fill="#B6A1C7" transform="translate(171,630)"/>
<path d="M0 0 C0.66 0 1.32 0 2 0 C3.60080151 4.00200378 2.29279692 7.04556236 1 11 C0.67 11 0.34 11 0 11 C-0.33 15.29 -0.66 19.58 -1 24 C-1.33 24 -1.66 24 -2 24 C-2.3690205 7.1070615 -2.3690205 7.1070615 0 0 Z " fill="#555759" transform="translate(773,708)"/>
<path d="M0 0 C0.66 0.33 1.32 0.66 2 1 C-1.42388092 4.82669043 -4.00724943 6.72278474 -9 8 C-6.14723863 5.06799526 -3.34920216 2.35684596 0 0 Z " fill="#E3E3E3" transform="translate(800,546)"/>
<path d="M0 0 C0.66 0.66 1.32 1.32 2 2 C-1.28804981 4.91227269 -3.59885603 6.49701212 -8 7 C-5.42215154 4.35247996 -3.08351902 2.05567935 0 0 Z " fill="#E7E5E4" transform="translate(743,590)"/>
<path d="M0 0 C3.65316671 1.24976756 4.78065836 1.67098753 7 5 C5.68 5 4.36 5 3 5 C1.25 2.5 1.25 2.5 0 0 Z " fill="#313438" transform="translate(463,692)"/>
</svg>
